<svg width="24" height="24" viewBox="0 0 24 24" fill="none" xmlns="http://www.w3.org/2000/svg">
<path d="M4 15V9C4 7.89543 4.89543 7 6 7H13C14.1046 7 15 7.89543 15 9V15C15 16.1046 14.1046 17 13 17H6C4.89543 17 4 16.1046 4 15Z" stroke="#2C2C2C" stroke-width="2" stroke-linecap="round" stroke-linejoin="round"/>
<path d="M18.3753 8.29976L15.3753 10.6998C15.1381 10.8895 15 11.1768 15 11.4806V12.5194C15 12.8232 15.1381 13.1105 15.3753 13.3002L18.3753 15.7002C19.0301 16.2241 20 15.7579 20 14.9194V9.08062C20 8.24212 19.0301 7.77595 18.3753 8.29976Z" stroke="#2C2C2C" stroke-width="2" stroke-linecap="round" stroke-linejoin="round"/>
</svg>
