<svg width="24" height="24" viewBox="0 0 24 24" fill="none" xmlns="http://www.w3.org/2000/svg">
<g clip-path="url(#clip0_1073_3721)">
<path d="M13.0001 2.051V1C13.0001 0.734784 12.8947 0.48043 12.7072 0.292893C12.5196 0.105357 12.2653 0 12.0001 0C11.7348 0 11.4805 0.105357 11.2929 0.292893C11.1054 0.48043 11.0001 0.734784 11.0001 1V2.051C8.98682 2.23149 7.06248 2.9642 5.43904 4.16842C3.8156 5.37264 2.55608 7.00161 1.79924 8.87588C1.0424 10.7501 0.817611 12.797 1.14965 14.7908C1.48169 16.7847 2.35766 18.6482 3.68105 20.176C3.15842 20.4345 2.72168 20.8387 2.42344 21.3397C2.12519 21.8407 1.97816 22.4173 2.00005 23C2.00005 23.2652 2.10541 23.5196 2.29295 23.7071C2.48048 23.8946 2.73484 24 3.00005 24C3.26527 24 3.51962 23.8946 3.70716 23.7071C3.8947 23.5196 4.00005 23.2652 4.00005 23C3.99174 22.6918 4.1024 22.3922 4.30907 22.1633C4.51574 21.9345 4.80257 21.794 5.11005 21.771C5.17884 21.7579 5.24593 21.7371 5.31005 21.709C7.22559 23.1947 9.58089 24.001 12.0051 24.001C14.4292 24.001 16.7845 23.1947 18.7001 21.709C18.7586 21.736 18.8195 21.7574 18.8821 21.773C19.1906 21.794 19.4791 21.9334 19.6874 22.162C19.8957 22.3906 20.0077 22.6908 20.0001 23C20.0001 23.2652 20.1054 23.5196 20.2929 23.7071C20.4805 23.8946 20.7348 24 21.0001 24C21.2653 24 21.5196 23.8946 21.7072 23.7071C21.8947 23.5196 22.0001 23.2652 22.0001 23C22.0219 22.4173 21.8749 21.8407 21.5767 21.3397C21.2784 20.8387 20.8417 20.4345 20.3191 20.176C21.6425 18.6482 22.5184 16.7847 22.8505 14.7908C23.1825 12.797 22.9577 10.7501 22.2009 8.87588C21.444 7.00161 20.1845 5.37264 18.5611 4.16842C16.9376 2.9642 15.0133 2.23149 13.0001 2.051ZM3.00005 13C3.00005 11.22 3.52789 9.47991 4.51683 7.99987C5.50576 6.51983 6.91137 5.36627 8.5559 4.68508C10.2004 4.0039 12.01 3.82567 13.7559 4.17293C15.5017 4.5202 17.1053 5.37737 18.364 6.63604C19.6227 7.89471 20.4799 9.49836 20.8271 11.2442C21.1744 12.99 20.9962 14.7996 20.315 16.4442C19.6338 18.0887 18.4802 19.4943 17.0002 20.4832C15.5201 21.4722 13.7801 22 12.0001 22C9.614 21.9971 7.3265 21.0479 5.63931 19.3607C3.95211 17.6736 3.00296 15.3861 3.00005 13Z" fill="#374957"/>
<path d="M19.2148 -0.000143813C18.9496 -0.000143813 18.6953 0.105213 18.5077 0.292749C18.3202 0.480286 18.2148 0.73464 18.2148 0.999856C18.2148 1.26507 18.3202 1.51943 18.5077 1.70696C18.6953 1.8945 18.9496 1.99986 19.2148 1.99986C19.5636 1.97335 19.914 2.01773 20.2451 2.13034C20.5762 2.24294 20.881 2.42143 21.1413 2.65504C21.4015 2.88865 21.6118 3.17254 21.7593 3.4896C21.9069 3.80666 21.9887 4.15032 21.9998 4.49986C21.9998 4.76507 22.1052 5.01943 22.2927 5.20696C22.4803 5.3945 22.7346 5.49986 22.9998 5.49986C23.2651 5.49986 23.5194 5.3945 23.707 5.20696C23.8945 5.01943 23.9998 4.76507 23.9998 4.49986C23.987 3.88835 23.8524 3.28554 23.6039 2.72669C23.3553 2.16783 22.9978 1.66416 22.5522 1.24514C22.1067 0.82612 21.582 0.500163 21.009 0.28634C20.4359 0.0725178 19.826 -0.0248762 19.2148 -0.000143813Z" fill="#374957"/>
<path d="M2 4.49986C2.01115 4.15032 2.09296 3.80666 2.24052 3.4896C2.38807 3.17254 2.59831 2.88865 2.85855 2.65504C3.11879 2.42143 3.42365 2.24294 3.75474 2.13034C4.08583 2.01773 4.43629 1.97335 4.785 1.99986C5.05022 1.99986 5.30457 1.8945 5.49211 1.70696C5.67964 1.51943 5.785 1.26507 5.785 0.999856C5.785 0.73464 5.67964 0.480286 5.49211 0.292749C5.30457 0.105213 5.05022 -0.000143813 4.785 -0.000143813C4.17386 -0.0248762 3.56393 0.0725178 2.99088 0.28634C2.41784 0.500163 1.89319 0.82612 1.44763 1.24514C1.00207 1.66416 0.644547 2.16783 0.395981 2.72669C0.147415 3.28554 0.0127962 3.88835 0 4.49986C0 4.76507 0.105357 5.01943 0.292893 5.20696C0.48043 5.3945 0.734784 5.49986 1 5.49986C1.26522 5.49986 1.51957 5.3945 1.70711 5.20696C1.89464 5.01943 2 4.76507 2 4.49986Z" fill="#374957"/>
<path d="M13 11.586V7C13 6.73478 12.8946 6.48043 12.7071 6.29289C12.5196 6.10536 12.2652 6 12 6C11.7348 6 11.4804 6.10536 11.2929 6.29289C11.1054 6.48043 11 6.73478 11 7V12C11.0001 12.2652 11.1055 12.5195 11.293 12.707L14.293 15.707C14.4816 15.8892 14.7342 15.99 14.9964 15.9877C15.2586 15.9854 15.5094 15.8802 15.6948 15.6948C15.8802 15.5094 15.9854 15.2586 15.9877 14.9964C15.99 14.7342 15.8892 14.4816 15.707 14.293L13 11.586Z" fill="#374957"/>
</g>
<defs>
<clipPath id="clip0_1073_3721">
<rect width="24" height="24" fill="white"/>
</clipPath>
</defs>
</svg>
