<svg width="16" height="17" viewBox="0 0 16 17" fill="none" xmlns="http://www.w3.org/2000/svg">
<path d="M15.1773 3.54376C14.9337 3.44228 14.6654 3.41561 14.4066 3.46713C14.1478 3.51866 13.9102 3.64605 13.724 3.83309L12 5.55709L8.94267 2.49976C8.69263 2.2498 8.35355 2.10938 8 2.10938C7.64645 2.10938 7.30737 2.2498 7.05733 2.49976L4 5.55709L2.276 3.83309C2.08953 3.64668 1.85198 3.51974 1.59338 3.46831C1.33477 3.41689 1.06673 3.44329 0.823127 3.54419C0.579528 3.64508 0.37131 3.81593 0.224798 4.03515C0.0782854 4.25436 5.62991e-05 4.51209 0 4.77576L0 11.8331C0.00105857 12.7168 0.352588 13.5641 0.97748 14.1889C1.60237 14.8138 2.4496 15.1654 3.33333 15.1664H12.6667C13.5504 15.1654 14.3976 14.8138 15.0225 14.1889C15.6474 13.5641 15.9989 12.7168 16 11.8331V4.77576C16.0001 4.51207 15.9219 4.25428 15.7755 4.03499C15.6291 3.8157 15.4209 3.64475 15.1773 3.54376ZM14.6667 11.8331C14.6667 12.3635 14.456 12.8722 14.0809 13.2473C13.7058 13.6224 13.1971 13.8331 12.6667 13.8331H3.33333C2.8029 13.8331 2.29419 13.6224 1.91912 13.2473C1.54405 12.8722 1.33333 12.3635 1.33333 11.8331V4.77576L3.52867 6.97109C3.65369 7.09607 3.82322 7.16628 4 7.16628C4.17678 7.16628 4.34631 7.09607 4.47133 6.97109L8 3.44242L11.5287 6.97109C11.6537 7.09607 11.8232 7.16628 12 7.16628C12.1768 7.16628 12.3463 7.09607 12.4713 6.97109L14.6667 4.77576V11.8331Z" fill="#FF6B4A"/>
</svg>
