<svg xmlns="http://www.w3.org/2000/svg" width="40" height="40" viewBox="0 0 40 40" fill="none">
  <path fill-rule="evenodd" clip-rule="evenodd" d="M10.0002 14.1668C10.0002 11.8656 11.8656 10.0002 14.1668 10.0002C16.468 10.0002 18.3335 11.8656 18.3335 14.1668C18.3335 16.468 16.468 18.3335 14.1668 18.3335C11.8656 18.3335 10.0002 16.468 10.0002 14.1668ZM14.1668 13.3335C13.7066 13.3335 13.3335 13.7066 13.3335 14.1668C13.3335 14.6271 13.7066 15.0002 14.1668 15.0002C14.6271 15.0002 15.0002 14.6271 15.0002 14.1668C15.0002 13.7066 14.6271 13.3335 14.1668 13.3335Z" fill="#2C2C2C"/>
  <path fill-rule="evenodd" clip-rule="evenodd" d="M3.3335 8.3335C3.3335 5.57207 5.57207 3.3335 8.3335 3.3335H31.6668C34.4283 3.3335 36.6668 5.57207 36.6668 8.3335V31.6668C36.6668 34.4283 34.4283 36.6668 31.6668 36.6668H8.3335C5.57207 36.6668 3.3335 34.4283 3.3335 31.6668V8.3335ZM8.3335 6.66683C7.41302 6.66683 6.66683 7.41302 6.66683 8.3335V31.6668C6.66683 32.3815 7.11671 32.9912 7.74873 33.228L25.4884 15.4883C26.1393 14.8374 27.1946 14.8374 27.8455 15.4883L33.3335 20.9763V8.3335C33.3335 7.41302 32.5873 6.66683 31.6668 6.66683H8.3335ZM33.3335 25.6904L26.667 19.0239L12.3573 33.3335H31.6668C32.5873 33.3335 33.3335 32.5873 33.3335 31.6668V25.6904Z" fill="#2C2C2C"/>
</svg>