<svg xmlns="http://www.w3.org/2000/svg" width="24" height="24" viewBox="0 0 24 24" fill="none">
  <g clip-path="url(#clip0_221_4937)">
    <path d="M23.7148 2.28466C23.5249 2.09548 23.2678 1.98926 22.9998 1.98926C22.7317 1.98926 22.4746 2.09548 22.2848 2.28466L17.5208 7.04866L17.2008 6.73566C16.3571 5.91161 15.2497 5.41174 14.0736 5.32412C12.8975 5.2365 11.7282 5.56673 10.7718 6.25666C9.39129 7.29765 7.85683 8.11684 6.22376 8.68465L4.14976 9.29265C3.4758 9.49049 2.85069 9.82712 2.31457 10.2809C1.77846 10.7347 1.3432 11.2956 1.03676 11.9276C0.735362 12.5511 0.567494 13.2306 0.543903 13.9227C0.520311 14.6148 0.641516 15.3041 0.899756 15.9466C1.87853 18.3494 3.55647 20.4028 5.71608 21.8406C7.87569 23.2784 10.4174 24.0345 13.0118 24.0106H13.9358C14.1425 24.0105 14.3442 23.947 14.5138 23.8286C16.274 22.6797 17.7783 21.1801 18.9328 19.4235C20.0873 17.667 20.8672 15.6912 21.2238 13.6196C21.3478 12.8275 21.2806 12.0173 21.0278 11.2564C20.7751 10.4955 20.3441 9.80611 19.7708 9.24565L18.9708 8.46165L23.7178 3.71466C23.9065 3.5244 24.0122 3.26707 24.0117 2.99904C24.0111 2.73101 23.9043 2.47413 23.7148 2.28466ZM13.6078 21.9846H13.0078C11.5302 21.9867 10.0666 21.6989 8.69975 21.1376L8.71076 21.1316C10.4597 20.2541 11.9568 18.9465 13.0618 17.3316L13.5798 16.5706C13.7307 16.3492 13.7874 16.0769 13.7375 15.8136C13.6876 15.5503 13.5352 15.3176 13.3138 15.1666C13.0923 15.0157 12.82 14.959 12.5567 15.0089C12.2934 15.0588 12.0607 15.2112 11.9098 15.4326L11.3918 16.1936C10.479 17.5252 9.24301 18.6032 7.79976 19.3266L6.54876 19.9566C5.54787 19.2531 4.67435 18.384 3.96576 17.3866C5.60473 16.8352 7.10005 15.9251 8.34276 14.7226C8.53451 14.5351 8.64392 14.2791 8.64692 14.011C8.64992 13.7428 8.54626 13.4844 8.35876 13.2926C8.17125 13.1009 7.91525 12.9915 7.64707 12.9885C7.37889 12.9855 7.12051 13.0891 6.92876 13.2766C5.80964 14.361 4.44379 15.1572 2.94876 15.5966C2.88776 15.4616 2.82176 15.3296 2.76676 15.1906C2.61188 14.8103 2.53938 14.4014 2.55403 13.991C2.56868 13.5806 2.67015 13.178 2.85176 12.8096C3.03561 12.4314 3.29635 12.0957 3.61731 11.824C3.93827 11.5523 4.31239 11.3506 4.71576 11.2316L6.78876 10.6236C7.99171 10.2372 9.1424 9.70385 10.2148 9.03565L18.1298 16.7476C17.0781 18.8411 15.5246 20.6417 13.6078 21.9886V21.9846ZM19.2278 13.3016C19.1513 13.7695 19.0481 14.2326 18.9188 14.6886L11.9478 7.89965C12.4592 7.53209 13.073 7.33414 13.7028 7.33365C14.4818 7.33267 15.2302 7.63753 15.7868 8.18265L18.3558 10.6917C18.6987 11.0265 18.9568 11.4383 19.1085 11.893C19.2601 12.3477 19.301 12.832 19.2278 13.3056V13.3016Z" fill="#2C2C2C"/>
  </g>
  <defs>
    <clipPath id="clip0_221_4937">
      <rect width="24" height="24" fill="white"/>
    </clipPath>
  </defs>
</svg>