<svg width="24" height="24" viewBox="0 0 24 24" fill="none" xmlns="http://www.w3.org/2000/svg">
<path d="M6.00098 12.0078C6.52305 11.8283 7.09169 12.1059 7.27148 12.6279C7.61523 13.6262 8.26699 14.4901 9.13184 15.0957C9.99665 15.7012 11.0314 16.0174 12.0869 15.999C13.1424 15.9805 14.1656 15.6285 15.0088 14.9932C15.2118 14.8401 15.4012 14.6715 15.5771 14.4912L16.9912 15.9053C16.7495 16.1513 16.4898 16.3814 16.2119 16.5908C15.267 17.3027 14.1606 17.7591 12.999 17.9268V20H14.999C15.5513 20 15.999 20.4477 15.999 21C15.999 21.5523 15.5513 22 14.999 22H8.99902C8.44698 21.9997 7.99902 21.5521 7.99902 21C7.99902 20.4479 8.44698 20.0003 8.99902 20H10.999V17.9277C9.91983 17.7719 8.88609 17.3657 7.98438 16.7344C6.77365 15.8866 5.86214 14.6768 5.38086 13.2793C5.20114 12.7572 5.47897 12.1877 6.00098 12.0078ZM16.7812 12.4619C16.9427 11.934 17.5013 11.6367 18.0293 11.7979C18.5574 11.9593 18.8548 12.5187 18.6934 13.0469C18.5631 13.4728 18.3926 13.8828 18.1865 14.2725L16.6768 12.7627C16.7141 12.6636 16.7501 12.5637 16.7812 12.4619ZM10.999 9.91309V11C10.999 11.5521 11.447 11.9997 11.999 12C12.2973 12 12.5639 11.8682 12.7471 11.6611L14.1611 13.0752C13.6152 13.6438 12.8495 14 11.999 14C10.3424 13.9997 8.99902 12.6567 8.99902 11V7.91309L10.999 9.91309ZM11.999 2C13.6559 2 14.999 3.34315 14.999 5V11C14.999 11.0275 14.9968 11.0548 14.9961 11.082L12.999 9.08496V5C12.999 4.44772 12.5513 4 11.999 4C11.447 4.00029 10.999 4.44789 10.999 5V7.08496L8.99902 5.08496V5C8.99902 3.34332 10.3424 2.00029 11.999 2Z" fill="#C92D2D"/>
<path d="M5 5L19 19" stroke="#C92D2D" stroke-width="2" stroke-linecap="round" stroke-linejoin="round"/>
</svg>
