<svg xmlns="http://www.w3.org/2000/svg" width="24" height="24" viewBox="0 0 24 24" fill="none">
  <path d="M15.4003 9.87982L10.8103 5.28982C10.6229 5.10356 10.3695 4.99902 10.1053 4.99902C9.8411 4.99902 9.58765 5.10356 9.40029 5.28982C9.30656 5.38278 9.23217 5.49338 9.1814 5.61524C9.13063 5.7371 9.10449 5.8678 9.10449 5.99982C9.10449 6.13183 9.13063 6.26253 9.1814 6.38439C9.23217 6.50625 9.30656 6.61685 9.40029 6.70982L14.0003 11.2898C14.094 11.3828 14.1684 11.4934 14.2192 11.6152C14.27 11.7371 14.2961 11.8678 14.2961 11.9998C14.2961 12.1318 14.27 12.2625 14.2192 12.3844C14.1684 12.5063 14.094 12.6169 14.0003 12.7098L9.40029 17.2898C9.21199 17.4768 9.10567 17.7309 9.10473 17.9963C9.1038 18.2616 9.20831 18.5165 9.39529 18.7048C9.58227 18.8931 9.83639 18.9994 10.1018 19.0004C10.3671 19.0013 10.622 18.8968 10.8103 18.7098L15.4003 14.1198C15.9621 13.5573 16.2777 12.7948 16.2777 11.9998C16.2777 11.2048 15.9621 10.4423 15.4003 9.87982Z" fill="#FAFAF9"/>
</svg>