<svg width="25" height="25" viewBox="0 0 25 25" fill="none" xmlns="http://www.w3.org/2000/svg">
<g clip-path="url(#clip0_665_17235)">
<path d="M23.6183 1.38238C23.2598 1.01951 22.8137 0.755235 22.3232 0.615097C21.8327 0.474958 21.3144 0.463689 20.8183 0.58238L4.81828 3.95238C3.89685 4.07875 3.02901 4.45986 2.31248 5.05279C1.59595 5.64573 1.05919 6.42694 0.762653 7.30844C0.466115 8.18995 0.421575 9.13674 0.63405 10.0422C0.846525 10.9476 1.30757 11.7758 1.96528 12.4334L3.68328 14.1504C3.77626 14.2433 3.85 14.3537 3.90028 14.4752C3.95056 14.5967 3.97638 14.7269 3.97628 14.8584V18.0264C3.97848 18.4718 4.08102 18.911 4.27628 19.3114L4.26828 19.3184L4.29428 19.3444C4.58729 19.9335 5.06586 20.41 5.65628 20.7004L5.68228 20.7264L5.68928 20.7184C6.08964 20.9136 6.52885 21.0162 6.97428 21.0184H10.1423C10.4073 21.0182 10.6616 21.1232 10.8493 21.3104L12.5663 23.0274C13.0268 23.493 13.5749 23.8629 14.1791 24.1157C14.7832 24.3685 15.4314 24.4992 16.0863 24.5004C16.632 24.4997 17.1741 24.4105 17.6913 24.2364C18.5647 23.9496 19.3406 23.4244 19.9315 22.7201C20.5224 22.0158 20.9047 21.1604 21.0353 20.2504L24.4103 4.21538C24.5351 3.71502 24.5278 3.1908 24.3889 2.69414C24.2501 2.19749 23.9845 1.74545 23.6183 1.38238ZM5.09928 12.7384L3.38028 11.0214C2.98 10.6307 2.69945 10.134 2.57156 9.58954C2.44368 9.04505 2.47376 8.47537 2.65828 7.94738C2.83717 7.4057 3.16788 6.92681 3.61107 6.56764C4.05427 6.20848 4.59129 5.98417 5.15828 5.92138L20.9993 2.58638L5.97428 17.6134V14.8584C5.97579 14.4647 5.89924 14.0747 5.74905 13.7108C5.59886 13.3469 5.37801 13.0164 5.09928 12.7384ZM19.0703 19.9084C18.9935 20.4607 18.7643 20.9807 18.4084 21.41C18.0525 21.8393 17.5839 22.1609 17.0554 22.3387C16.5269 22.5165 15.9592 22.5435 15.4162 22.4166C14.8732 22.2897 14.3763 22.014 13.9813 21.6204L12.2613 19.9004C11.9836 19.6212 11.6534 19.3999 11.2897 19.2492C10.926 19.0985 10.536 19.0214 10.1423 19.0224H7.38728L22.4143 4.00038L19.0703 19.9084Z" fill="#6F6F6F"/>
</g>
<defs>
<clipPath id="clip0_665_17235">
<rect width="24" height="24" fill="white" transform="translate(0.5 0.5)"/>
</clipPath>
</defs>
</svg>
