<svg width="24" height="25" viewBox="0 0 24 25" fill="none" xmlns="http://www.w3.org/2000/svg">
<g clip-path="url(#clip0_474_8458)">
<path d="M12 12.5C13.1867 12.5 14.3467 12.1481 15.3334 11.4888C16.3201 10.8295 17.0892 9.89246 17.5433 8.7961C17.9974 7.69975 18.1162 6.49335 17.8847 5.32946C17.6532 4.16558 17.0818 3.09648 16.2426 2.25736C15.4035 1.41825 14.3344 0.846802 13.1705 0.615291C12.0067 0.38378 10.8003 0.5026 9.7039 0.956726C8.60754 1.41085 7.67047 2.17989 7.01118 3.16658C6.35189 4.15328 6 5.31331 6 6.5C6.00159 8.09081 6.63424 9.61602 7.75911 10.7409C8.88399 11.8658 10.4092 12.4984 12 12.5ZM12 2.5C12.7911 2.5 13.5645 2.7346 14.2223 3.17412C14.8801 3.61365 15.3928 4.23836 15.6955 4.96927C15.9983 5.70017 16.0775 6.50444 15.9231 7.28036C15.7688 8.05629 15.3878 8.76902 14.8284 9.32843C14.269 9.88784 13.5563 10.2688 12.7804 10.4231C12.0044 10.5775 11.2002 10.4983 10.4693 10.1955C9.73836 9.89277 9.11365 9.38008 8.67412 8.72228C8.2346 8.06449 8 7.29113 8 6.5C8 5.43914 8.42143 4.42172 9.17157 3.67158C9.92172 2.92143 10.9391 2.5 12 2.5Z" fill="#374957"/>
<path d="M12 14.5005C9.61386 14.5031 7.32622 15.4522 5.63896 17.1395C3.95171 18.8267 3.00265 21.1144 3 23.5005C3 23.7657 3.10536 24.0201 3.29289 24.2076C3.48043 24.3951 3.73478 24.5005 4 24.5005C4.26522 24.5005 4.51957 24.3951 4.70711 24.2076C4.89464 24.0201 5 23.7657 5 23.5005C5 21.644 5.7375 19.8635 7.05025 18.5507C8.36301 17.238 10.1435 16.5005 12 16.5005C13.8565 16.5005 15.637 17.238 16.9497 18.5507C18.2625 19.8635 19 21.644 19 23.5005C19 23.7657 19.1054 24.0201 19.2929 24.2076C19.4804 24.3951 19.7348 24.5005 20 24.5005C20.2652 24.5005 20.5196 24.3951 20.7071 24.2076C20.8946 24.0201 21 23.7657 21 23.5005C20.9974 21.1144 20.0483 18.8267 18.361 17.1395C16.6738 15.4522 14.3861 14.5031 12 14.5005Z" fill="#374957"/>
</g>
<defs>
<clipPath id="clip0_474_8458">
<rect width="24" height="24" fill="white" transform="translate(0 0.5)"/>
</clipPath>
</defs>
</svg>
