<svg width="132" height="141" viewBox="0 0 132 141" fill="none" xmlns="http://www.w3.org/2000/svg">
<rect x="32.8707" y="8.67773" width="8.21768" height="8.21768" fill="#DA806E"/>
<rect x="90.3944" y="8.67773" width="8.21768" height="8.21768" fill="#DA806E"/>
<rect x="32.8707" y="0.460205" width="8.21768" height="8.21768" fill="#1C1C1C"/>
<rect x="106.83" y="123.725" width="8.21768" height="8.21768" fill="#1C1C1C"/>
<rect x="8.21765" y="74.4192" width="8.21768" height="8.21768" fill="#1C1C1C"/>
<rect x="41.0884" y="0.460205" width="8.21768" height="8.21768" fill="#1C1C1C"/>
<rect x="49.306" y="8.67773" width="8.21768" height="8.21768" fill="#1C1C1C"/>
<rect x="57.5237" y="8.67773" width="8.21768" height="8.21768" fill="#1C1C1C"/>
<rect x="16.4353" y="66.2014" width="8.21768" height="8.21768" fill="#1C1C1C"/>
<rect x="24.6531" y="66.2014" width="8.21768" height="8.21768" fill="#1C1C1C"/>
<rect x="8.21765" y="99.0723" width="8.21768" height="8.21768" fill="#1C1C1C"/>
<rect x="16.4353" y="99.0723" width="8.21768" height="8.21768" fill="#1C1C1C"/>
<rect x="106.83" y="99.0723" width="8.21768" height="8.21768" fill="#1C1C1C"/>
<rect x="115.047" y="99.0723" width="8.21768" height="8.21768" fill="#1C1C1C"/>
<rect x="98.6122" y="66.2014" width="8.21768" height="8.21768" fill="#1C1C1C"/>
<rect x="106.83" y="66.2014" width="8.21768" height="8.21768" fill="#1C1C1C"/>
<rect x="65.7415" y="8.67773" width="8.21768" height="8.21768" fill="#1C1C1C"/>
<rect x="73.9591" y="8.67773" width="8.21768" height="8.21768" fill="#1C1C1C"/>
<rect x="82.1768" y="0.460205" width="8.21768" height="8.21768" fill="#1C1C1C"/>
<rect x="90.3944" y="0.460205" width="8.21768" height="8.21768" fill="#1C1C1C"/>
<rect x="106.83" y="8.67773" width="8.21768" height="8.21768" transform="rotate(90 106.83 8.67773)" fill="#1C1C1C"/>
<rect x="106.83" y="16.8955" width="8.21768" height="8.21768" transform="rotate(90 106.83 16.8955)" fill="#1C1C1C"/>
<rect x="49.306" y="41.5486" width="8.21768" height="8.21768" transform="rotate(90 49.306 41.5486)" fill="#1C1C1C"/>
<rect x="49.306" y="49.7661" width="8.21768" height="8.21768" transform="rotate(90 49.306 49.7661)" fill="#1C1C1C"/>
<rect x="82.1768" y="41.5486" width="8.21768" height="8.21768" transform="rotate(90 82.1768 41.5486)" fill="#1C1C1C"/>
<rect x="82.1768" y="49.7661" width="8.21768" height="8.21768" transform="rotate(90 82.1768 49.7661)" fill="#1C1C1C"/>
<rect x="65.7415" y="49.7661" width="8.21768" height="8.21768" transform="rotate(90 65.7415 49.7661)" fill="#1C1C1C"/>
<rect x="32.8707" y="8.67773" width="8.21768" height="8.21768" transform="rotate(90 32.8707 8.67773)" fill="#1C1C1C"/>
<rect x="32.8707" y="16.8955" width="8.21768" height="8.21768" transform="rotate(90 32.8707 16.8955)" fill="#1C1C1C"/>
<rect x="8.21765" y="82.637" width="8.21768" height="8.21768" transform="rotate(90 8.21765 82.637)" fill="#1C1C1C"/>
<rect x="8.21765" y="90.8545" width="8.21768" height="8.21768" transform="rotate(90 8.21765 90.8545)" fill="#1C1C1C"/>
<rect width="8.21768" height="8.21768" transform="matrix(-1 0 0 1 123.265 74.4192)" fill="#1C1C1C"/>
<rect width="8.21768" height="8.21768" transform="matrix(0 1 1 0 123.265 82.637)" fill="#1C1C1C"/>
<rect width="8.21768" height="8.21768" transform="matrix(0 1 1 0 123.265 90.8545)" fill="#1C1C1C"/>
<rect x="24.6531" y="25.113" width="8.21768" height="8.21768" transform="rotate(90 24.6531 25.113)" fill="#1C1C1C"/>
<rect x="24.6531" y="33.3308" width="8.21768" height="8.21768" transform="rotate(90 24.6531 33.3308)" fill="#1C1C1C"/>
<rect x="115.047" y="25.113" width="8.21768" height="8.21768" transform="rotate(90 115.047 25.113)" fill="#1C1C1C"/>
<rect x="115.047" y="33.3308" width="8.21768" height="8.21768" transform="rotate(90 115.047 33.3308)" fill="#1C1C1C"/>
<rect x="123.265" y="57.9839" width="8.21768" height="8.21768" transform="rotate(90 123.265 57.9839)" fill="#1C1C1C"/>
<rect x="123.265" y="41.5486" width="8.21768" height="8.21768" transform="rotate(90 123.265 41.5486)" fill="#1C1C1C"/>
<rect x="123.265" y="49.7661" width="8.21768" height="8.21768" transform="rotate(90 123.265 49.7661)" fill="#1C1C1C"/>
<rect x="123.265" y="115.508" width="8.21768" height="8.21768" transform="rotate(90 123.265 115.508)" fill="#1C1C1C"/>
<rect x="123.265" y="107.29" width="8.21768" height="8.21768" transform="rotate(90 123.265 107.29)" fill="#1C1C1C"/>
<rect x="16.4353" y="57.9839" width="8.21768" height="8.21768" transform="rotate(90 16.4353 57.9839)" fill="#1C1C1C"/>
<rect x="16.4353" y="41.5486" width="8.21768" height="8.21768" transform="rotate(90 16.4353 41.5486)" fill="#1C1C1C"/>
<rect x="16.4353" y="49.7661" width="8.21768" height="8.21768" transform="rotate(90 16.4353 49.7661)" fill="#1C1C1C"/>
<rect x="90.3944" y="140.161" width="8.21768" height="8.21768" transform="rotate(180 90.3944 140.161)" fill="#1C1C1C"/>
<rect x="106.83" y="140.161" width="8.21768" height="8.21768" transform="rotate(180 106.83 140.161)" fill="#1C1C1C"/>
<rect x="98.6122" y="140.161" width="8.21768" height="8.21768" transform="rotate(180 98.6122 140.161)" fill="#1C1C1C"/>
<rect x="32.8707" y="140.161" width="8.21768" height="8.21768" transform="rotate(180 32.8707 140.161)" fill="#1C1C1C"/>
<rect x="49.306" y="140.161" width="8.21768" height="8.21768" transform="rotate(180 49.306 140.161)" fill="#1C1C1C"/>
<rect x="41.0884" y="140.161" width="8.21768" height="8.21768" transform="rotate(180 41.0884 140.161)" fill="#1C1C1C"/>
<rect x="65.7415" y="131.943" width="8.21768" height="8.21768" transform="rotate(180 65.7415 131.943)" fill="#1C1C1C"/>
<rect x="57.5237" y="131.943" width="8.21768" height="8.21768" transform="rotate(180 57.5237 131.943)" fill="#1C1C1C"/>
<rect x="82.1768" y="131.943" width="8.21768" height="8.21768" transform="rotate(180 82.1768 131.943)" fill="#1C1C1C"/>
<rect x="73.9591" y="131.943" width="8.21768" height="8.21768" transform="rotate(180 73.9591 131.943)" fill="#1C1C1C"/>
<rect x="16.4353" y="123.725" width="8.21768" height="8.21768" transform="rotate(-90 16.4353 123.725)" fill="#1C1C1C"/>
<rect x="16.4353" y="115.508" width="8.21768" height="8.21768" transform="rotate(-90 16.4353 115.508)" fill="#1C1C1C"/>
<rect x="16.4353" y="131.943" width="8.21768" height="8.21768" transform="rotate(-90 16.4353 131.943)" fill="#1C1C1C"/>
<rect x="16.4353" y="82.637" width="8.21768" height="8.21768" fill="#DAB5A7"/>
<rect x="106.83" y="74.4192" width="8.21768" height="8.21768" fill="#DAB5A7"/>
<rect x="115.047" y="82.637" width="8.21768" height="8.21768" fill="#DAB5A7"/>
<rect x="106.83" y="82.637" width="8.21768" height="8.21768" fill="#DAB5A7"/>
<rect x="115.047" y="90.8545" width="8.21768" height="8.21768" fill="#DAB5A7"/>
<rect x="106.83" y="25.113" width="8.21768" height="8.21768" transform="rotate(90 106.83 25.113)" fill="#DAB5A7"/>
<rect x="106.83" y="33.3308" width="8.21768" height="8.21768" transform="rotate(90 106.83 33.3308)" fill="#DAB5A7"/>
<rect x="24.6531" y="33.3308" width="8.21768" height="8.21768" fill="#DAB5A7"/>
<rect x="32.8707" y="33.3308" width="8.21768" height="8.21768" fill="#DAB5A7"/>
<rect x="41.0884" y="33.3308" width="8.21768" height="8.21768" fill="#DAB5A7"/>
<rect x="49.306" y="33.3308" width="8.21768" height="8.21768" fill="#DAB5A7"/>
<rect x="57.5237" y="33.3308" width="8.21768" height="8.21768" fill="#DAB5A7"/>
<rect x="65.7415" y="33.3308" width="8.21768" height="8.21768" fill="#DAB5A7"/>
<rect x="73.9591" y="33.3308" width="8.21768" height="8.21768" fill="#DAB5A7"/>
<rect x="82.1768" y="33.3308" width="8.21768" height="8.21768" fill="#DAB5A7"/>
<rect x="90.3944" y="33.3308" width="8.21768" height="8.21768" fill="#DAB5A7"/>
<rect x="49.306" y="41.5486" width="8.21768" height="8.21768" fill="#DAB5A7"/>
<rect x="57.5237" y="41.5486" width="8.21768" height="8.21768" fill="#DAB5A7"/>
<rect x="65.7415" y="41.5486" width="8.21768" height="8.21768" fill="#DAB5A7"/>
<rect x="16.4353" y="41.5486" width="8.21768" height="8.21768" fill="#DAB5A7"/>
<rect x="24.6531" y="41.5486" width="8.21768" height="8.21768" fill="#DAB5A7"/>
<rect x="32.8707" y="41.5486" width="8.21768" height="8.21768" fill="#DAB5A7"/>
<rect x="82.1768" y="41.5486" width="8.21768" height="8.21768" fill="#DAB5A7"/>
<rect x="90.3944" y="41.5486" width="8.21768" height="8.21768" fill="#DAB5A7"/>
<rect x="98.6122" y="41.5486" width="8.21768" height="8.21768" fill="#DAB5A7"/>
<rect x="98.6122" y="33.3308" width="8.21768" height="8.21768" transform="rotate(180 98.6122 33.3308)" fill="#DAB5A7"/>
<rect x="98.6122" y="16.8955" width="8.21768" height="8.21768" transform="rotate(90 98.6122 16.8955)" fill="#DAB5A7"/>
<rect x="98.6122" y="99.0723" width="8.21768" height="8.21768" fill="#DAB5A7"/>
<rect x="98.6122" y="107.29" width="8.21768" height="8.21768" fill="#DAB5A7"/>
<rect x="106.83" y="107.29" width="8.21768" height="8.21768" fill="#DAB5A7"/>
<rect x="98.6122" y="115.508" width="8.21768" height="8.21768" fill="#DAB5A7"/>
<rect x="49.306" y="115.508" width="8.21768" height="8.21768" fill="#DAB5A7"/>
<rect x="106.83" y="115.508" width="8.21768" height="8.21768" fill="#DAB5A7"/>
<rect x="90.3944" y="107.29" width="8.21768" height="8.21768" fill="#DAB5A7"/>
<rect x="90.3944" y="115.508" width="8.21768" height="8.21768" fill="#DAB5A7"/>
<rect x="41.0884" y="107.29" width="8.21768" height="8.21768" fill="#DAB5A7"/>
<rect x="41.0884" y="115.508" width="8.21768" height="8.21768" fill="#DAB5A7"/>
<rect x="32.8707" y="107.29" width="8.21768" height="8.21768" fill="#DAB5A7"/>
<rect x="32.8707" y="115.508" width="8.21768" height="8.21768" fill="#DAB5A7"/>
<rect x="24.6531" y="107.29" width="8.21768" height="8.21768" fill="#DAB5A7"/>
<rect x="24.6531" y="115.508" width="8.21768" height="8.21768" fill="#DAB5A7"/>
<rect x="82.1768" y="115.508" width="8.21768" height="8.21768" fill="#DAB5A7"/>
<rect x="73.9591" y="115.508" width="8.21768" height="8.21768" fill="#DAB5A7"/>
<rect x="65.7415" y="115.508" width="8.21768" height="8.21768" fill="#DAB5A7"/>
<rect x="57.5237" y="115.508" width="8.21768" height="8.21768" fill="#DAB5A7"/>
<rect x="24.6531" y="90.8545" width="8.21768" height="8.21768" fill="#DAB5A7"/>
<rect x="24.6531" y="99.0723" width="8.21768" height="8.21768" fill="#DAB5A7"/>
<rect x="32.8707" y="90.8545" width="8.21768" height="8.21768" fill="#DAB5A7"/>
<rect x="32.8707" y="99.0723" width="8.21768" height="8.21768" fill="#DAB5A7"/>
<rect x="32.8707" y="74.4192" width="8.21768" height="8.21768" fill="#DAB5A7"/>
<rect x="32.8707" y="82.637" width="8.21768" height="8.21768" fill="#DAB5A7"/>
<rect x="24.6531" y="74.4192" width="8.21768" height="8.21768" fill="#DAB5A7"/>
<rect x="24.6531" y="82.637" width="8.21768" height="8.21768" fill="#DAB5A7"/>
<rect x="8.21765" y="82.637" width="8.21768" height="8.21768" fill="#DAB5A7"/>
<rect x="8.21765" y="90.8545" width="8.21768" height="8.21768" fill="#DAB5A7"/>
<rect x="106.83" y="99.0723" width="8.21768" height="8.21768" transform="rotate(180 106.83 99.0723)" fill="#DAB5A7"/>
<rect x="106.83" y="74.4192" width="8.21768" height="8.21768" transform="rotate(90 106.83 74.4192)" fill="#DAB5A7"/>
<rect x="106.83" y="82.637" width="8.21768" height="8.21768" transform="rotate(90 106.83 82.637)" fill="#DAB5A7"/>
<rect x="90.3944" y="8.67773" width="8.21768" height="8.21768" transform="rotate(90 90.3944 8.67773)" fill="#DAB5A7"/>
<rect x="90.3944" y="16.8955" width="8.21768" height="8.21768" transform="rotate(90 90.3944 16.8955)" fill="#DAB5A7"/>
<rect x="90.3944" y="25.113" width="8.21768" height="8.21768" transform="rotate(90 90.3944 25.113)" fill="#DAB5A7"/>
<rect x="82.1768" y="16.8955" width="8.21768" height="8.21768" transform="rotate(90 82.1768 16.8955)" fill="#DAB5A7"/>
<rect x="82.1768" y="25.113" width="8.21768" height="8.21768" transform="rotate(90 82.1768 25.113)" fill="#DAB5A7"/>
<rect x="65.7415" y="16.8955" width="8.21768" height="8.21768" transform="rotate(90 65.7415 16.8955)" fill="#DAB5A7"/>
<rect x="65.7415" y="25.113" width="8.21768" height="8.21768" transform="rotate(90 65.7415 25.113)" fill="#DAB5A7"/>
<rect x="49.306" y="16.8955" width="8.21768" height="8.21768" transform="rotate(90 49.306 16.8955)" fill="#DAB5A7"/>
<rect x="49.306" y="25.113" width="8.21768" height="8.21768" transform="rotate(90 49.306 25.113)" fill="#DAB5A7"/>
<rect x="41.0884" y="16.8955" width="8.21768" height="8.21768" transform="rotate(90 41.0884 16.8955)" fill="#DAB5A7"/>
<rect x="41.0884" y="25.113" width="8.21768" height="8.21768" transform="rotate(90 41.0884 25.113)" fill="#DAB5A7"/>
<rect x="49.306" y="16.8955" width="8.21768" height="8.21768" transform="rotate(180 49.306 16.8955)" fill="#DAB5A7"/>
<rect x="32.8707" y="33.3308" width="8.21768" height="8.21768" transform="rotate(180 32.8707 33.3308)" fill="#DAB5A7"/>
<rect x="106.83" y="41.5486" width="8.21768" height="8.21768" fill="#DAB5A7"/>
<rect x="90.3944" y="57.9839" width="8.21768" height="8.21768" fill="#DAB5A7"/>
<rect x="98.6122" y="57.9839" width="8.21768" height="8.21768" fill="#DAB5A7"/>
<rect x="106.83" y="57.9839" width="8.21768" height="8.21768" fill="#DAB5A7"/>
<rect x="57.5237" y="16.8955" width="8.21768" height="8.21768" transform="rotate(90 57.5237 16.8955)" fill="#C68379"/>
<rect x="57.5237" y="25.113" width="8.21768" height="8.21768" transform="rotate(90 57.5237 25.113)" fill="#C68379"/>
<rect x="65.7415" y="25.113" width="8.21768" height="8.21768" transform="rotate(-90 65.7415 25.113)" fill="#C68379"/>
<rect x="73.9591" y="25.113" width="8.21768" height="8.21768" transform="rotate(90 73.9591 25.113)" fill="#C68379"/>
<rect x="90.3944" y="49.7661" width="8.21768" height="8.21768" fill="#C68379"/>
<rect x="98.6122" y="49.7661" width="8.21768" height="8.21768" fill="#C68379"/>
<rect x="106.83" y="49.7661" width="8.21768" height="8.21768" fill="#C68379"/>
<rect x="16.4353" y="49.7661" width="8.21768" height="8.21768" fill="#C68379"/>
<rect x="24.6531" y="49.7661" width="8.21768" height="8.21768" fill="#C68379"/>
<rect x="16.4353" y="74.4192" width="8.21768" height="8.21768" fill="#C68379"/>
<rect x="16.4353" y="90.8545" width="8.21768" height="8.21768" fill="#C68379"/>
<rect x="106.83" y="90.8545" width="8.21768" height="8.21768" fill="#C68379"/>
<rect x="16.4353" y="57.9839" width="8.21768" height="8.21768" fill="#EBD9D6"/>
<rect x="24.6531" y="57.9839" width="8.21768" height="8.21768" fill="#EBD9D6"/>
<rect x="32.8707" y="57.9839" width="8.21768" height="8.21768" fill="#EBD9D6"/>
<rect x="41.0884" y="57.9839" width="8.21768" height="8.21768" fill="#EBD9D6"/>
<rect x="49.306" y="57.9839" width="8.21768" height="8.21768" fill="#EBD9D6"/>
<rect x="57.5237" y="57.9839" width="8.21768" height="8.21768" fill="#EBD9D6"/>
<rect x="65.7415" y="57.9839" width="8.21768" height="8.21768" fill="#EBD9D6"/>
<rect x="65.7415" y="49.7661" width="8.21768" height="8.21768" fill="#EBD9D6"/>
<rect x="82.1768" y="49.7661" width="8.21768" height="8.21768" fill="#EBD9D6"/>
<rect x="49.306" y="49.7661" width="8.21768" height="8.21768" fill="#EBD9D6"/>
<rect x="32.8707" y="49.7661" width="8.21768" height="8.21768" fill="#EBD9D6"/>
<rect x="73.9591" y="57.9839" width="8.21768" height="8.21768" fill="#EBD9D6"/>
<rect x="82.1768" y="57.9839" width="8.21768" height="8.21768" fill="#EBD9D6"/>
<rect x="73.9591" y="66.2014" width="8.21768" height="8.21768" fill="#EBD9D6"/>
<rect x="82.1768" y="66.2014" width="8.21768" height="8.21768" fill="#EBD9D6"/>
<rect x="90.3944" y="66.2014" width="8.21768" height="8.21768" fill="#EBD9D6"/>
<rect x="73.9591" y="74.4192" width="8.21768" height="8.21768" fill="#EBD9D6"/>
<rect x="82.1768" y="74.4192" width="8.21768" height="8.21768" fill="#EBD9D6"/>
<rect x="90.3944" y="74.4192" width="8.21768" height="8.21768" fill="#EBD9D6"/>
<rect x="73.9591" y="82.637" width="8.21768" height="8.21768" fill="#EBD9D6"/>
<rect x="82.1768" y="82.637" width="8.21768" height="8.21768" fill="#EBD9D6"/>
<rect x="90.3944" y="82.637" width="8.21768" height="8.21768" fill="#EBD9D6"/>
<rect x="73.9591" y="90.8545" width="8.21768" height="8.21768" fill="#EBD9D6"/>
<rect x="82.1768" y="90.8545" width="8.21768" height="8.21768" fill="#EBD9D6"/>
<rect x="90.3944" y="90.8545" width="8.21768" height="8.21768" fill="#EBD9D6"/>
<rect x="73.9591" y="99.0723" width="8.21768" height="8.21768" fill="#EBD9D6"/>
<rect x="82.1768" y="99.0723" width="8.21768" height="8.21768" fill="#EBD9D6"/>
<rect x="90.3944" y="99.0723" width="8.21768" height="8.21768" fill="#EBD9D6"/>
<rect x="57.5237" y="66.2014" width="8.21768" height="8.21768" fill="#EBD9D6"/>
<rect x="65.7415" y="66.2014" width="8.21768" height="8.21768" fill="#EBD9D6"/>
<rect x="57.5237" y="74.4192" width="8.21768" height="8.21768" fill="#EBD9D6"/>
<rect x="65.7415" y="74.4192" width="8.21768" height="8.21768" fill="#EBD9D6"/>
<rect x="57.5237" y="82.637" width="8.21768" height="8.21768" fill="#EBD9D6"/>
<rect x="65.7415" y="82.637" width="8.21768" height="8.21768" fill="#EBD9D6"/>
<rect x="57.5237" y="90.8545" width="8.21768" height="8.21768" fill="#EBD9D6"/>
<rect x="65.7415" y="90.8545" width="8.21768" height="8.21768" fill="#EBD9D6"/>
<rect x="57.5237" y="99.0723" width="8.21768" height="8.21768" fill="#EBD9D6"/>
<rect x="65.7415" y="99.0723" width="8.21768" height="8.21768" fill="#EBD9D6"/>
<rect x="49.306" y="66.2014" width="8.21768" height="8.21768" fill="#EBD9D6"/>
<rect x="49.306" y="74.4192" width="8.21768" height="8.21768" fill="#EBD9D6"/>
<rect x="49.306" y="82.637" width="8.21768" height="8.21768" fill="#EBD9D6"/>
<rect x="49.306" y="90.8545" width="8.21768" height="8.21768" fill="#EBD9D6"/>
<rect x="49.306" y="99.0723" width="8.21768" height="8.21768" fill="#EBD9D6"/>
<rect x="41.0884" y="66.2014" width="8.21768" height="8.21768" fill="#EBD9D6"/>
<rect x="32.8707" y="66.2014" width="8.21768" height="8.21768" fill="#EBD9D6"/>
<rect x="41.0884" y="74.4192" width="8.21768" height="8.21768" fill="#EBD9D6"/>
<rect x="41.0884" y="82.637" width="8.21768" height="8.21768" fill="#EBD9D6"/>
<rect x="41.0884" y="90.8545" width="8.21768" height="8.21768" fill="#EBD9D6"/>
<rect x="41.0884" y="99.0723" width="8.21768" height="8.21768" fill="#EBD9D6"/>
<rect x="82.1768" y="107.29" width="8.21768" height="8.21768" fill="#EBD9D6"/>
<rect x="65.7415" y="107.29" width="8.21768" height="8.21768" fill="#EBD9D6"/>
<rect x="73.9591" y="107.29" width="8.21768" height="8.21768" fill="#EBD9D6"/>
<rect x="57.5237" y="107.29" width="8.21768" height="8.21768" fill="#EBD9D6"/>
<rect x="49.306" y="107.29" width="8.21768" height="8.21768" fill="#EBD9D6"/>
<rect x="41.0884" y="123.725" width="8.21768" height="8.21768" fill="#EBD9D6"/>
<rect x="32.8707" y="123.725" width="8.21768" height="8.21768" fill="#EBD9D6"/>
<rect x="24.6531" y="123.725" width="8.21768" height="8.21768" fill="#EBD9D6"/>
<rect x="98.6122" y="123.725" width="8.21768" height="8.21768" fill="#EBD9D6"/>
<rect x="90.3944" y="123.725" width="8.21768" height="8.21768" fill="#EBD9D6"/>
<rect x="82.1768" y="123.725" width="8.21768" height="8.21768" fill="#EBD9D6"/>
</svg>
