<svg width="40" height="40" viewBox="0 0 40 40" fill="none" xmlns="http://www.w3.org/2000/svg">
<path fill-rule="evenodd" clip-rule="evenodd" d="M9.99967 14.1668C9.99967 11.8656 11.8652 10.0002 14.1663 10.0002C16.4675 10.0002 18.333 11.8656 18.333 14.1668C18.333 16.468 16.4675 18.3335 14.1663 18.3335C11.8652 18.3335 9.99967 16.468 9.99967 14.1668ZM14.1663 13.3335C13.7061 13.3335 13.333 13.7066 13.333 14.1668C13.333 14.6271 13.7061 15.0002 14.1663 15.0002C14.6266 15.0002 14.9997 14.6271 14.9997 14.1668C14.9997 13.7066 14.6266 13.3335 14.1663 13.3335Z" fill="#2C2C2C"/>
<path fill-rule="evenodd" clip-rule="evenodd" d="M3.33301 8.3335C3.33301 5.57207 5.57158 3.3335 8.33301 3.3335H31.6663C34.4278 3.3335 36.6663 5.57207 36.6663 8.3335V31.6668C36.6663 34.4283 34.4278 36.6668 31.6663 36.6668H8.33301C5.57158 36.6668 3.33301 34.4283 3.33301 31.6668V8.3335ZM8.33301 6.66683C7.41253 6.66683 6.66634 7.41302 6.66634 8.3335V31.6668C6.66634 32.3815 7.11622 32.9912 7.74825 33.228L25.488 15.4883C26.1388 14.8374 27.1941 14.8374 27.845 15.4883L33.333 20.9763V8.3335C33.333 7.41302 32.5868 6.66683 31.6663 6.66683H8.33301ZM33.333 25.6904L26.6665 19.0239L12.3568 33.3335H31.6663C32.5868 33.3335 33.333 32.5873 33.333 31.6668V25.6904Z" fill="#2C2C2C"/>
</svg>
