<svg width="28" height="28" viewBox="0 0 28 28" fill="none" xmlns="http://www.w3.org/2000/svg">
<path d="M3.5 5.25016C3.5 4.60583 4.02233 4.0835 4.66667 4.0835H23.3333C23.9777 4.0835 24.5 4.60583 24.5 5.25016C24.5 5.89449 23.9777 6.41683 23.3333 6.41683H4.66667C4.02233 6.41683 3.5 5.89449 3.5 5.25016ZM8.16667 22.7502C8.16667 22.1058 8.689 21.5835 9.33333 21.5835H23.3333C23.9777 21.5835 24.5 22.1058 24.5 22.7502C24.5 23.3945 23.9777 23.9168 23.3333 23.9168H9.33333C8.689 23.9168 8.16667 23.3945 8.16667 22.7502ZM3.5 16.9168C3.5 16.2725 4.02233 15.7502 4.66667 15.7502H23.3333C23.9777 15.7502 24.5 16.2725 24.5 16.9168C24.5 17.5612 23.9777 18.0835 23.3333 18.0835H4.66667C4.02233 18.0835 3.5 17.5612 3.5 16.9168ZM8.16667 11.0835C8.16667 10.4392 8.689 9.91683 9.33333 9.91683H23.3333C23.9777 9.91683 24.5 10.4392 24.5 11.0835C24.5 11.7278 23.9777 12.2502 23.3333 12.2502H9.33333C8.689 12.2502 8.16667 11.7278 8.16667 11.0835Z" fill="#52525B"/>
</svg>
