<svg width="28" height="28" viewBox="0 0 28 28" fill="none" xmlns="http://www.w3.org/2000/svg">
<path d="M4.66699 5.25016C4.66699 4.60583 5.18933 4.0835 5.83366 4.0835H22.167C22.8113 4.0835 23.3337 4.60583 23.3337 5.25016C23.3337 5.89449 22.8113 6.41683 22.167 6.41683H5.83366C5.18932 6.41683 4.66699 5.89449 4.66699 5.25016ZM8.16699 22.7502C8.16699 22.1058 8.68933 21.5835 9.33366 21.5835H18.667C19.3113 21.5835 19.8337 22.1058 19.8337 22.7502C19.8337 23.3945 19.3113 23.9168 18.667 23.9168H9.33366C8.68933 23.9168 8.16699 23.3945 8.16699 22.7502ZM8.16699 11.0835C8.16699 10.4392 8.68933 9.91683 9.33366 9.91683H18.667C19.3113 9.91683 19.8337 10.4392 19.8337 11.0835C19.8337 11.7278 19.3113 12.2502 18.667 12.2502H9.33366C8.68933 12.2502 8.16699 11.7278 8.16699 11.0835ZM4.66699 16.9168C4.66699 16.2725 5.18933 15.7502 5.83366 15.7502H22.167C22.8113 15.7502 23.3337 16.2725 23.3337 16.9168C23.3337 17.5612 22.8113 18.0835 22.167 18.0835H5.83366C5.18932 18.0835 4.66699 17.5612 4.66699 16.9168Z" fill="#52525B"/>
</svg>
