<svg width="28" height="28" viewBox="0 0 28 28" fill="none" xmlns="http://www.w3.org/2000/svg">
<path d="M9.33333 12.8332H14.5833C15.3569 12.8332 16.0987 12.5259 16.6457 11.9789C17.1927 11.4319 17.5 10.6901 17.5 9.9165C17.5 9.14296 17.1927 8.40109 16.6457 7.85411C16.0987 7.30713 15.3569 6.99984 14.5833 6.99984H9.33333V12.8332ZM21 18.0832C21 18.7726 20.8642 19.4553 20.6004 20.0923C20.3365 20.7292 19.9498 21.308 19.4623 21.7955C18.9748 22.283 18.396 22.6697 17.7591 22.9335C17.1221 23.1974 16.4394 23.3332 15.75 23.3332H7.65C7.29101 23.3332 7 23.0422 7 22.6832V5.3165C7 4.95752 7.29101 4.6665 7.65 4.6665H14.5833C15.6111 4.66655 16.6163 4.96827 17.4742 5.53425C18.3321 6.10023 19.005 6.90557 19.4095 7.85042C19.814 8.79527 19.9322 9.83806 19.7495 10.8495C19.5669 11.8609 19.0914 12.7965 18.382 13.5402C19.1784 14.0014 19.8396 14.6639 20.2991 15.4613C20.7586 16.2586 21.0003 17.1629 21 18.0832ZM9.33333 15.1665V20.9998H15.75C16.5235 20.9998 17.2654 20.6925 17.8124 20.1456C18.3594 19.5986 18.6667 18.8567 18.6667 18.0832C18.6667 17.3096 18.3594 16.5678 17.8124 16.0208C17.2654 15.4738 16.5235 15.1665 15.75 15.1665H9.33333Z" fill="#52525B"/>
</svg>
