<svg width="28" height="28" viewBox="0 0 28 28" fill="none" xmlns="http://www.w3.org/2000/svg">
<path d="M9.33333 5.8335C9.33333 5.18916 9.85567 4.66683 10.5 4.66683H23.3333C23.9777 4.66683 24.5 5.18916 24.5 5.8335C24.5 6.47783 23.9777 7.00016 23.3333 7.00016H10.5C9.85567 7.00016 9.33333 6.47783 9.33333 5.8335ZM3.5 5.8335C3.5 4.867 4.2835 4.0835 5.25 4.0835C6.2165 4.0835 7 4.867 7 5.8335C7 6.79999 6.2165 7.5835 5.25 7.5835C4.2835 7.5835 3.5 6.79999 3.5 5.8335ZM3.5 14.0002C3.5 13.0337 4.2835 12.2502 5.25 12.2502C6.2165 12.2502 7 13.0337 7 14.0002C7 14.9667 6.2165 15.7502 5.25 15.7502C4.2835 15.7502 3.5 14.9667 3.5 14.0002ZM3.5 22.1668C3.5 21.2003 4.2835 20.4168 5.25 20.4168C6.2165 20.4168 7 21.2003 7 22.1668C7 23.1333 6.2165 23.9168 5.25 23.9168C4.2835 23.9168 3.5 23.1333 3.5 22.1668ZM9.33333 14.0002C9.33333 13.3558 9.85567 12.8335 10.5 12.8335H23.3333C23.9777 12.8335 24.5 13.3558 24.5 14.0002C24.5 14.6445 23.9777 15.1668 23.3333 15.1668H10.5C9.85567 15.1668 9.33333 14.6445 9.33333 14.0002ZM9.33333 22.1668C9.33333 21.5225 9.85567 21.0002 10.5 21.0002H23.3333C23.9777 21.0002 24.5 21.5225 24.5 22.1668C24.5 22.8112 23.9777 23.3335 23.3333 23.3335H10.5C9.85567 23.3335 9.33333 22.8112 9.33333 22.1668Z" fill="#52525B"/>
</svg>
