<svg width="20" height="21" viewBox="0 0 20 21" fill="none" xmlns="http://www.w3.org/2000/svg">
<g clip-path="url(#clip0_196_4670)">
<path d="M16.6667 0.500122H3.33333C2.44928 0.500122 1.60143 0.851312 0.976311 1.47643C0.35119 2.10155 0 2.9494 0 3.83346L0 13.8335C0 14.7175 0.35119 15.5654 0.976311 16.1905C1.60143 16.8156 2.44928 17.1668 3.33333 17.1668H5.75L9.45917 20.3026C9.60964 20.43 9.80038 20.4998 9.9975 20.4998C10.1946 20.4998 10.3854 20.43 10.5358 20.3026L14.25 17.1668H16.6667C17.5507 17.1668 18.3986 16.8156 19.0237 16.1905C19.6488 15.5654 20 14.7175 20 13.8335V3.83346C20 2.9494 19.6488 2.10155 19.0237 1.47643C18.3986 0.851312 17.5507 0.500122 16.6667 0.500122V0.500122ZM18.3333 13.8335C18.3333 14.2755 18.1577 14.6994 17.8452 15.012C17.5326 15.3245 17.1087 15.5001 16.6667 15.5001H14.25C13.8561 15.5002 13.4749 15.6399 13.1742 15.8943L10 18.5751L6.8275 15.8943C6.5263 15.6395 6.1445 15.4998 5.75 15.5001H3.33333C2.89131 15.5001 2.46738 15.3245 2.15482 15.012C1.84226 14.6994 1.66667 14.2755 1.66667 13.8335V3.83346C1.66667 3.39143 1.84226 2.9675 2.15482 2.65494C2.46738 2.34238 2.89131 2.16679 3.33333 2.16679H16.6667C17.1087 2.16679 17.5326 2.34238 17.8452 2.65494C18.1577 2.9675 18.3333 3.39143 18.3333 3.83346V13.8335Z" fill="#374957"/>
<path d="M5.83333 6.33358H10C10.221 6.33358 10.433 6.24578 10.5893 6.0895C10.7455 5.93322 10.8333 5.72126 10.8333 5.50025C10.8333 5.27923 10.7455 5.06727 10.5893 4.91099C10.433 4.75471 10.221 4.66692 10 4.66692H5.83333C5.61232 4.66692 5.40036 4.75471 5.24408 4.91099C5.0878 5.06727 5 5.27923 5 5.50025C5 5.72126 5.0878 5.93322 5.24408 6.0895C5.40036 6.24578 5.61232 6.33358 5.83333 6.33358Z" fill="#374957"/>
<path d="M14.1667 8.00012H5.83333C5.61232 8.00012 5.40036 8.08792 5.24408 8.2442C5.0878 8.40048 5 8.61244 5 8.83345C5 9.05447 5.0878 9.26643 5.24408 9.42271C5.40036 9.57899 5.61232 9.66679 5.83333 9.66679H14.1667C14.3877 9.66679 14.5996 9.57899 14.7559 9.42271C14.9122 9.26643 15 9.05447 15 8.83345C15 8.61244 14.9122 8.40048 14.7559 8.2442C14.5996 8.08792 14.3877 8.00012 14.1667 8.00012Z" fill="#374957"/>
<path d="M14.1667 11.3333H5.83333C5.61232 11.3333 5.40036 11.4211 5.24408 11.5774C5.0878 11.7337 5 11.9457 5 12.1667C5 12.3877 5.0878 12.5997 5.24408 12.7559C5.40036 12.9122 5.61232 13 5.83333 13H14.1667C14.3877 13 14.5996 12.9122 14.7559 12.7559C14.9122 12.5997 15 12.3877 15 12.1667C15 11.9457 14.9122 11.7337 14.7559 11.5774C14.5996 11.4211 14.3877 11.3333 14.1667 11.3333Z" fill="#374957"/>
</g>
<defs>
<clipPath id="clip0_196_4670">
<rect width="20" height="20" fill="white" transform="translate(0 0.500122)"/>
</clipPath>
</defs>
</svg>
