<svg width="28" height="28" viewBox="0 0 28 28" fill="none" xmlns="http://www.w3.org/2000/svg">
<path fill-rule="evenodd" clip-rule="evenodd" d="M6.20866 6.99984C5.76317 6.99984 5.25033 7.41875 5.25033 8.13005V14.936L8.32841 10.8179C8.36185 10.7732 8.39845 10.7309 8.43793 10.6914C9.57696 9.55239 11.4237 9.55239 12.5627 10.6914C12.587 10.7157 12.6101 10.741 12.6321 10.7672L16.7983 15.7409L18.0629 14.4831L18.0643 14.4817C19.2034 13.3441 21.0491 13.3445 22.1877 14.4831C22.2158 14.5112 22.2424 14.5407 22.2675 14.5715L22.7503 15.1646V8.13005C22.7503 7.41875 22.2375 6.99984 21.792 6.99984H6.20866ZM25.0837 8.13005C25.0837 6.30429 23.6937 4.6665 21.792 4.6665H6.20866C4.30694 4.6665 2.91699 6.30429 2.91699 8.13005V20.9998C2.91699 22.2885 3.96166 23.3332 5.25033 23.3332H22.7503C24.039 23.3332 25.0837 22.2885 25.0837 20.9998V8.13005ZM22.7503 18.8604L20.5057 16.1032C20.2765 15.9057 19.9302 15.9156 19.7128 16.133L19.7106 16.1352L17.5427 18.2915C17.311 18.5219 16.9934 18.6446 16.667 18.6298C16.3406 18.6149 16.0354 18.4639 15.8256 18.2134L10.8852 12.3155C10.6715 12.1274 10.3531 12.1223 10.1337 12.3L5.25033 18.8334V19.8696C5.25033 20.5809 5.76317 20.9998 6.20866 20.9998H21.792C22.2375 20.9998 22.7503 20.5809 22.7503 19.8696V18.8604Z" fill="#52525B"/>
<path d="M17.5003 12.2498C18.4663 12.2498 19.2503 11.4676 19.2503 10.4998C19.2503 9.53384 18.4663 8.74984 17.5003 8.74984C16.5343 8.74984 15.7503 9.53384 15.7503 10.4998C15.7503 11.4676 16.5343 12.2498 17.5003 12.2498Z" fill="#52525B"/>
</svg>
