<svg width="28" height="28" viewBox="0 0 28 28" fill="none" xmlns="http://www.w3.org/2000/svg">
<path fill-rule="evenodd" clip-rule="evenodd" d="M10.5003 5.83317C10.5003 5.18884 11.0227 4.6665 11.667 4.6665H22.167C22.8113 4.6665 23.3337 5.18884 23.3337 5.83317C23.3337 6.4775 22.8113 6.99984 22.167 6.99984H17.7747L12.6705 20.9998H16.3337C16.978 20.9998 17.5003 21.5222 17.5003 22.1665C17.5003 22.8108 16.978 23.3332 16.3337 23.3332H5.83366C5.18933 23.3332 4.66699 22.8108 4.66699 22.1665C4.66699 21.5222 5.18933 20.9998 5.83366 20.9998H10.2259L15.3301 6.99984H11.667C11.0227 6.99984 10.5003 6.4775 10.5003 5.83317Z" fill="#52525B"/>
</svg>
