<svg width="28" height="28" viewBox="0 0 28 28" fill="none" xmlns="http://www.w3.org/2000/svg">
<path d="M17.5171 21.0403C16.8728 21.0403 16.3506 20.518 16.3506 19.8738C16.3506 19.2296 16.8728 18.7073 17.5171 18.7073H18.6835C19.2964 18.7073 19.9032 18.5866 20.4694 18.3521C21.0357 18.1175 21.5501 17.7738 21.9835 17.3404C22.4168 16.9071 22.7606 16.3926 22.9951 15.8264C23.2296 15.2602 23.3503 14.6534 23.3503 14.0405C23.3503 13.4277 23.2296 12.8208 22.9951 12.2546C22.7606 11.6884 22.4168 11.174 21.9835 10.7406C21.5501 10.3073 21.0357 9.96351 20.4694 9.72898C19.9032 9.49445 19.2964 9.37374 18.6835 9.37374H17.5171C16.8728 9.37374 16.3506 8.85149 16.3506 8.20725C16.3506 7.56302 16.8728 7.04076 17.5171 7.04076L18.6835 7.04076C20.5301 7.0558 22.296 7.7999 23.5964 9.11098C24.8968 10.4221 25.6265 12.1939 25.6265 14.0405C25.6265 15.8872 24.8968 17.659 23.5964 18.9701C22.296 20.2812 20.5301 21.0253 18.6835 21.0403H17.5171ZM11.683 19.8738C11.683 20.518 11.1607 21.0403 10.5165 21.0403H9.34998C8.42596 21.0478 7.50959 20.8723 6.65374 20.5239C5.79788 20.1755 5.01947 19.6611 4.36342 19.0104C3.70736 18.3597 3.18664 17.5855 2.83128 16.7325C2.47592 15.8795 2.29297 14.9646 2.29297 14.0405C2.29297 13.1165 2.47592 12.2016 2.83128 11.3486C3.18664 10.4956 3.70736 9.7214 4.36342 9.07067C5.01947 8.41993 5.79788 7.90553 6.65374 7.55713C7.50959 7.20873 8.42596 7.03323 9.34998 7.04076L10.5165 7.04076C11.1607 7.04076 11.683 7.56302 11.683 8.20725C11.683 8.85149 11.1607 9.37374 10.5165 9.37374H9.34998C8.73712 9.37374 8.13027 9.49445 7.56407 9.72898C6.99787 9.96351 6.48341 10.3073 6.05006 10.7406C5.61671 11.174 5.27295 11.6884 5.03843 12.2546C4.8039 12.8208 4.68319 13.4277 4.68319 14.0405C4.68319 14.6534 4.8039 15.2602 5.03843 15.8264C5.27295 16.3926 5.61671 16.9071 6.05006 17.3404C6.48341 17.7738 6.99787 18.1175 7.56407 18.3521C8.13027 18.5866 8.73712 18.7073 9.34998 18.7073H10.5165C11.1607 18.7073 11.683 19.2296 11.683 19.8738ZM18.6828 12.8732C19.3274 12.8732 19.85 13.3958 19.85 14.0405C19.85 14.6852 19.3274 15.2078 18.6827 15.2078L9.35076 15.2071C8.70647 15.2071 8.18412 14.6849 8.1839 14.0406C8.18367 13.3959 8.70619 12.8732 9.35084 12.8732H18.6828Z" fill="#52525B"/>
</svg>
