<svg width="28" height="28" viewBox="0 0 28 28" fill="none" xmlns="http://www.w3.org/2000/svg">
<g clip-path="url(#clip0_665_16922)">
<path fill-rule="evenodd" clip-rule="evenodd" d="M7.61361 4.25774C7.95756 4.47031 8.16692 4.84582 8.16692 5.25016L8.16667 10.5002C8.16667 11.1445 7.64433 11.6668 7 11.6668C6.35567 11.6668 5.83333 11.1445 5.83333 10.5002L5.83359 7.13787L5.18867 7.46033C4.61236 7.74848 3.91158 7.51489 3.62342 6.93858C3.33527 6.36227 3.56886 5.66149 4.14517 5.37333L6.47851 4.20667C6.84016 4.02584 7.26966 4.04516 7.61361 4.25774ZM14.0003 7.00016C13.356 7.00016 12.8336 7.5225 12.8336 8.16683C12.8336 8.81116 13.356 9.3335 14.0003 9.3335H23.3336C23.9779 9.3335 24.5003 8.81116 24.5003 8.16683C24.5003 7.5225 23.9779 7.00016 23.3336 7.00016H14.0003ZM14 18.0835C13.3557 18.0835 12.8333 18.6058 12.8333 19.2502C12.8333 19.8945 13.3557 20.4168 14 20.4168H23.3333C23.9777 20.4168 24.5 19.8945 24.5 19.2502C24.5 18.6058 23.9777 18.0835 23.3333 18.0835H14Z" fill="#52525B"/>
<path d="M5.66919 17.8419L5.66788 17.8429L5.66635 17.8441L5.66404 17.8458L5.66287 17.8467C5.15248 18.2336 4.42472 18.1366 4.03361 17.6282C3.64075 17.1174 3.73629 16.385 4.247 15.9921L4.31493 15.942C4.34961 15.9173 4.39628 15.885 4.45354 15.8478C4.56721 15.7738 4.72719 15.6773 4.92173 15.5805C5.29255 15.3961 5.87642 15.1668 6.54619 15.1668C8.08548 15.1668 9.33333 16.4147 9.33333 17.954C9.33333 18.8469 8.81013 19.5326 8.34167 20.0418C7.98463 20.4298 7.55355 20.7459 7.175 21.0002H8.45833C9.10267 21.0002 9.625 21.5225 9.625 22.1668C9.625 22.8112 9.10267 23.3335 8.45833 23.3335H4.66667C4.02233 23.3335 3.5 22.8112 3.5 22.1668C3.5 21.2868 3.98237 20.6514 4.43333 20.2213C4.81543 19.8568 5.27422 19.5426 5.65458 19.2955L5.77827 19.2149C6.22708 18.9215 6.5452 18.6967 6.76122 18.4619C6.949 18.2578 7 18.1108 7 17.954C7 17.7033 6.79682 17.5002 6.54619 17.5002C6.38643 17.5002 6.17637 17.5625 5.96065 17.6698C5.86192 17.7189 5.78047 17.7682 5.72603 17.8036C5.69923 17.821 5.67923 17.8348 5.66919 17.8419Z" fill="#52525B"/>
</g>
<defs>
<clipPath id="clip0_665_16922">
<rect width="28" height="28" fill="white"/>
</clipPath>
</defs>
</svg>
