<svg width="28" height="28" viewBox="0 0 28 28" fill="none" xmlns="http://www.w3.org/2000/svg">
<path d="M20.013 16.3332C20.2813 16.9352 20.4167 17.6048 20.4167 18.3398C20.4167 19.9055 19.8053 21.1305 18.5838 22.0113C17.36 22.8922 15.6718 23.3332 13.517 23.3332C11.822 23.3332 10.1427 22.9843 8.47801 22.2859C8.08155 22.1195 7.83533 21.7245 7.83533 21.2945C7.83533 20.4375 8.77187 19.8925 9.57184 20.2C10.7886 20.6678 12.0242 20.9018 13.279 20.9018C16.2552 20.9018 17.7473 20.0478 17.7578 18.3387C17.764 17.9921 17.7002 17.6479 17.5703 17.3266C17.4404 17.0053 17.2471 16.7134 17.0018 16.4685L16.8618 16.332H4.66667C4.02233 16.332 3.5 15.8097 3.5 15.1653C3.5 14.521 4.02233 13.9987 4.66667 13.9987H23.3333C23.9777 13.9987 24.5 14.521 24.5 15.1653C24.5 15.8097 23.9777 16.332 23.3333 16.332H20.013V16.3332ZM15.1988 12.8137C15.2095 12.8174 15.2069 12.8332 15.1956 12.8332H8.90437C8.90188 12.8332 8.89948 12.8322 8.89764 12.8306C8.69438 12.6449 8.50758 12.442 8.33933 12.2242C7.83533 11.5732 7.58333 10.7868 7.58333 9.8605C7.58333 8.4185 8.127 7.19234 9.21317 6.182C10.3017 5.17167 11.9828 4.6665 14.259 4.6665C15.7547 4.6665 17.1946 4.95717 18.5771 5.53851C18.9536 5.6968 19.1847 6.0735 19.1847 6.48187C19.1847 7.30284 18.284 7.83171 17.5038 7.57647C16.5804 7.2744 15.6062 7.1235 14.581 7.1235C11.6877 7.1235 10.2422 8.03584 10.2422 9.8605C10.2422 10.3505 10.4965 10.7775 11.0052 11.1427C11.5138 11.5078 12.887 12.0177 12.887 12.0177L15.1988 12.8137Z" fill="#52525B"/>
</svg>
