<svg width="20" height="21" viewBox="0 0 20 21" fill="none" xmlns="http://www.w3.org/2000/svg">
<g clip-path="url(#clip0_829_80)">
<path d="M18.9741 7.79306C18.5834 7.27594 18.1006 6.86127 17.5582 6.57714C17.0158 6.29301 16.4266 6.14604 15.8305 6.14618H12.5069L12.7869 4.19309C12.8859 3.50531 12.7664 2.79955 12.4502 2.20453C12.1339 1.60952 11.6419 1.1649 11.064 0.951771C10.4861 0.738642 9.86074 0.771207 9.30199 1.04352C8.74323 1.31584 8.28833 1.80977 8.02024 2.43521L6.42552 6.14618H4.16592C3.06146 6.1477 2.00261 6.65228 1.22163 7.54925C0.440656 8.44622 0.00132298 9.66233 0 10.9308L0 15.7155C0.00132298 16.984 0.440656 18.2001 1.22163 19.0971C2.00261 19.994 3.06146 20.4986 4.16592 20.5001H15.2473C16.25 20.4954 17.2179 20.0775 17.975 19.3223C18.732 18.5671 19.2279 17.5249 19.3724 16.3853L19.9598 11.6007C20.0425 10.922 19.9973 10.2308 19.8272 9.57384C19.6572 8.91692 19.3663 8.30963 18.9741 7.79306ZM1.66637 15.7155V10.9308C1.66637 10.1694 1.92971 9.43925 2.39847 8.90087C2.86723 8.3625 3.503 8.06004 4.16592 8.06004H5.83229V18.5863H4.16592C3.503 18.5863 2.86723 18.2838 2.39847 17.7454C1.92971 17.2071 1.66637 16.4769 1.66637 15.7155ZM18.3059 11.3318L17.7177 16.1164C17.6317 16.7997 17.335 17.4248 16.8817 17.878C16.4283 18.3313 15.8483 18.5826 15.2473 18.5863H7.49866V7.8055C7.57718 7.72693 7.64218 7.63215 7.69029 7.52607L9.51414 3.28209C9.58253 3.1404 9.67923 3.01937 9.79628 2.92895C9.91332 2.83853 10.0474 2.7813 10.1874 2.76196C10.3275 2.74263 10.4695 2.76174 10.6019 2.81772C10.7343 2.87371 10.8532 2.96497 10.9489 3.08401C11.0307 3.19333 11.0906 3.32206 11.1241 3.46101C11.1577 3.59995 11.1641 3.74569 11.143 3.88783L10.7031 6.95C10.6838 7.08682 10.6906 7.22683 10.723 7.36034C10.7555 7.49384 10.8128 7.61766 10.891 7.72323C10.9692 7.8288 11.0664 7.91359 11.176 7.97174C11.2855 8.0299 11.4048 8.06002 11.5254 8.06004H15.8305C16.1883 8.05999 16.5419 8.14814 16.8674 8.31855C17.193 8.48896 17.4829 8.73765 17.7176 9.04782C17.9523 9.35798 18.1262 9.72239 18.2277 10.1164C18.3292 10.5104 18.3559 10.9249 18.3059 11.3318Z" fill="#2C2C2C"/>
</g>
<defs>
<clipPath id="clip0_829_80">
<rect width="20" height="20" fill="white" transform="translate(0 0.500122)"/>
</clipPath>
</defs>
</svg>
