<svg width="20" height="21" viewBox="0 0 20 21" fill="none" xmlns="http://www.w3.org/2000/svg">
<g clip-path="url(#clip0_943_6468)">
<path d="M18.9741 7.79294C18.5834 7.27582 18.1005 6.86115 17.5582 6.57702C17.0158 6.29288 16.4266 6.14591 15.8305 6.14606H12.5069L12.7869 4.19297C12.8859 3.50519 12.7664 2.79942 12.4502 2.20441C12.1339 1.6094 11.6419 1.16478 11.064 0.951648C10.4861 0.73852 9.86074 0.771085 9.30199 1.0434C8.74323 1.31572 8.28833 1.80964 8.02024 2.43509L6.42552 6.14606H4.16592C3.06146 6.14758 2.00261 6.65216 1.22163 7.54913C0.440656 8.44609 0.00132298 9.66221 0 10.9307L0 15.7154C0.00132298 16.9839 0.440656 18.2 1.22163 19.0969C2.00261 19.9939 3.06146 20.4985 4.16592 20.5H15.2473C16.25 20.4953 17.2179 20.0773 17.975 19.3222C18.732 18.567 19.2279 17.5248 19.3724 16.3852L19.9598 11.6006C20.0425 10.9218 19.9973 10.2306 19.8272 9.57371C19.6572 8.9168 19.3663 8.3095 18.9741 7.79294ZM1.66637 15.7154V10.9307C1.66637 10.1693 1.92971 9.43913 2.39847 8.90075C2.86723 8.36238 3.503 8.05992 4.16592 8.05992H5.83229V18.5861H4.16592C3.503 18.5861 2.86723 18.2837 2.39847 17.7453C1.92971 17.2069 1.66637 16.4767 1.66637 15.7154ZM18.3059 11.3317L17.7177 16.1163C17.6317 16.7995 17.335 17.4246 16.8817 17.8779C16.4283 18.3312 15.8483 18.5825 15.2473 18.5861H7.49866V7.80538C7.57718 7.72681 7.64218 7.63203 7.69029 7.52595L9.51414 3.28197C9.58253 3.14028 9.67923 3.01925 9.79628 2.92883C9.91332 2.83841 10.0474 2.78118 10.1874 2.76184C10.3275 2.7425 10.4695 2.76161 10.6019 2.8176C10.7343 2.87358 10.8532 2.96485 10.9489 3.08389C11.0307 3.19321 11.0906 3.32194 11.1241 3.46089C11.1577 3.59983 11.1641 3.74557 11.143 3.88771L10.7031 6.94988C10.6838 7.0867 10.6906 7.22671 10.723 7.36022C10.7555 7.49372 10.8128 7.61754 10.891 7.72311C10.9692 7.82867 11.0664 7.91347 11.176 7.97162C11.2855 8.02978 11.4048 8.0599 11.5254 8.05992H15.8305C16.1883 8.05986 16.5419 8.14802 16.8674 8.31843C17.193 8.48884 17.4829 8.73753 17.7176 9.04769C17.9523 9.35786 18.1262 9.72227 18.2277 10.1163C18.3292 10.5103 18.3559 10.9248 18.3059 11.3317Z" fill="#2C2C2C"/>
<path d="M1.66637 15.7154V10.9307C1.66637 10.1693 1.92971 9.43913 2.39847 8.90075C2.86723 8.36238 3.503 8.05992 4.16592 8.05992H5.83229V18.5861H4.16592C3.503 18.5861 2.86723 18.2837 2.39847 17.7453C1.92971 17.2069 1.66637 16.4767 1.66637 15.7154Z" fill="#FF6B4A"/>
<path d="M18.3059 11.3317L17.7177 16.1163C17.6317 16.7995 17.335 17.4246 16.8817 17.8779C16.4283 18.3312 15.8483 18.5825 15.2473 18.5861H7.49866V7.80538C7.57718 7.72681 7.64218 7.63203 7.69029 7.52595L9.51414 3.28197C9.58253 3.14028 9.67923 3.01925 9.79628 2.92883C9.91332 2.83841 10.0474 2.78118 10.1874 2.76184C10.3275 2.7425 10.4695 2.76161 10.6019 2.8176C10.7343 2.87358 10.8532 2.96485 10.9489 3.08389C11.0307 3.19321 11.0906 3.32194 11.1241 3.46089C11.1577 3.59983 11.1641 3.74557 11.143 3.88771L10.7031 6.94988C10.6838 7.0867 10.6906 7.22671 10.723 7.36022C10.7555 7.49372 10.8128 7.61754 10.891 7.72311C10.9692 7.82867 11.0664 7.91347 11.176 7.97162C11.2855 8.02978 11.4048 8.0599 11.5254 8.05992H15.8305C16.1883 8.05986 16.5419 8.14802 16.8674 8.31843C17.193 8.48884 17.4829 8.73753 17.7176 9.04769C17.9523 9.35786 18.1262 9.72227 18.2277 10.1163C18.3292 10.5103 18.3559 10.9248 18.3059 11.3317Z" fill="#FFEDB3"/>
</g>
<defs>
<clipPath id="clip0_943_6468">
<rect width="20" height="20" fill="white" transform="translate(0 0.5)"/>
</clipPath>
</defs>
</svg>
