<svg width="28" height="28" viewBox="0 0 28 28" fill="none" xmlns="http://www.w3.org/2000/svg">
<path d="M9.33301 4.66667C9.33301 4.02233 8.81067 3.5 8.16634 3.5C7.52201 3.5 6.99967 4.02233 6.99967 4.66667V12.8333C6.99967 17.3437 8.16634 21 13.9997 21C19.833 21 20.9997 17.3437 20.9997 12.8333V4.66667C20.9997 4.02233 20.4773 3.5 19.833 3.5C19.1887 3.5 18.6663 4.02233 18.6663 4.66667V12.8333C18.6663 16.055 18.6663 18.6667 13.9997 18.6667C9.33301 18.6667 9.33301 16.055 9.33301 12.8333V4.66667Z" fill="#52525B"/>
<path d="M6.99967 22.1667C6.35534 22.1667 5.83301 22.689 5.83301 23.3333C5.83301 23.9777 6.35534 24.5 6.99967 24.5H20.9997C21.644 24.5 22.1663 23.9777 22.1663 23.3333C22.1663 22.689 21.644 22.1667 20.9997 22.1667H6.99967Z" fill="#52525B"/>
</svg>
