<svg width="21" height="20" viewBox="0 0 21 20" fill="none" xmlns="http://www.w3.org/2000/svg">
<g clip-path="url(#clip0_259_9216)">
<path d="M19.7675 7.55727L13.4467 1.2356C12.6644 0.455591 11.6047 0.0175781 10.5 0.0175781C9.39529 0.0175781 8.33564 0.455591 7.55334 1.2356L1.23251 7.55727C0.999531 7.78875 0.814818 8.06418 0.689079 8.36759C0.563339 8.67099 0.499075 8.99634 0.50001 9.32477V17.5056C0.50001 18.1686 0.763402 18.8045 1.23224 19.2734C1.70108 19.7422 2.33697 20.0056 3.00001 20.0056H18C18.6631 20.0056 19.2989 19.7422 19.7678 19.2734C20.2366 18.8045 20.5 18.1686 20.5 17.5056V9.32477C20.5009 8.99634 20.4367 8.67099 20.3109 8.36759C20.1852 8.06418 20.0005 7.78875 19.7675 7.55727V7.55727ZM13 18.3389H8.00001V15.0606C8.00001 14.3976 8.2634 13.7617 8.73224 13.2928C9.20109 12.824 9.83697 12.5606 10.5 12.5606C11.1631 12.5606 11.7989 12.824 12.2678 13.2928C12.7366 13.7617 13 14.3976 13 15.0606V18.3389ZM18.8333 17.5056C18.8333 17.7266 18.7455 17.9386 18.5893 18.0949C18.433 18.2511 18.221 18.3389 18 18.3389H14.6667V15.0606C14.6667 13.9555 14.2277 12.8957 13.4463 12.1143C12.6649 11.3329 11.6051 10.8939 10.5 10.8939C9.39494 10.8939 8.33513 11.3329 7.55373 12.1143C6.77233 12.8957 6.33334 13.9555 6.33334 15.0606V18.3389H3.00001C2.779 18.3389 2.56704 18.2511 2.41075 18.0949C2.25447 17.9386 2.16668 17.7266 2.16668 17.5056V9.32477C2.16745 9.10392 2.25517 8.89225 2.41084 8.7356L8.73168 2.41643C9.20143 1.94887 9.83723 1.68639 10.5 1.68639C11.1628 1.68639 11.7986 1.94887 12.2683 2.41643L18.5892 8.7381C18.7442 8.89414 18.8319 9.10478 18.8333 9.32477V17.5056Z" fill="#FFF5F2"/>
</g>
<defs>
<clipPath id="clip0_259_9216">
<rect width="20" height="20" fill="white" transform="translate(0.5)"/>
</clipPath>
</defs>
</svg>
