<svg width="21" height="20" viewBox="0 0 21 20" fill="none" xmlns="http://www.w3.org/2000/svg">
<g clip-path="url(#clip0_259_9248)">
<path d="M14.666 11.6667C14.666 11.8877 14.5782 12.0997 14.4219 12.2559C14.2657 12.4122 14.0537 12.5 13.8327 12.5H7.16602C6.945 12.5 6.73304 12.4122 6.57676 12.2559C6.42048 12.0997 6.33268 11.8877 6.33268 11.6667C6.33268 11.4457 6.42048 11.2337 6.57676 11.0774C6.73304 10.9211 6.945 10.8334 7.16602 10.8334H13.8327C14.0537 10.8334 14.2657 10.9211 14.4219 11.0774C14.5782 11.2337 14.666 11.4457 14.666 11.6667ZM11.3327 14.1667H7.16602C6.945 14.1667 6.73304 14.2545 6.57676 14.4108C6.42048 14.567 6.33268 14.779 6.33268 15C6.33268 15.221 6.42048 15.433 6.57676 15.5893C6.73304 15.7456 6.945 15.8334 7.16602 15.8334H11.3327C11.5537 15.8334 11.7657 15.7456 11.9219 15.5893C12.0782 15.433 12.166 15.221 12.166 15C12.166 14.779 12.0782 14.567 11.9219 14.4108C11.7657 14.2545 11.5537 14.1667 11.3327 14.1667ZM18.8327 8.73752V15.8334C18.8314 16.938 18.3919 17.9971 17.6108 18.7782C16.8297 19.5593 15.7707 19.9987 14.666 20H6.33268C5.22802 19.9987 4.16898 19.5593 3.38787 18.7782C2.60675 17.9971 2.16734 16.938 2.16602 15.8334V4.16669C2.16734 3.06202 2.60675 2.00298 3.38787 1.22187C4.16898 0.440754 5.22802 0.00134242 6.33268 1.92072e-05H10.0952C10.8615 -0.00195323 11.6207 0.148009 12.3287 0.441235C13.0367 0.734461 13.6796 1.16513 14.2202 1.70835L17.1235 4.61335C17.667 5.15355 18.098 5.79623 18.3914 6.50416C18.6848 7.2121 18.8348 7.9712 18.8327 8.73752V8.73752ZM13.0418 2.88669C12.7796 2.63265 12.4851 2.41412 12.166 2.23669V5.83335C12.166 6.05437 12.2538 6.26633 12.4101 6.42261C12.5664 6.57889 12.7783 6.66669 12.9993 6.66669H16.596C16.4185 6.34768 16.1996 6.05347 15.9452 5.79169L13.0418 2.88669ZM17.166 8.73752C17.166 8.60002 17.1393 8.46835 17.1268 8.33335H12.9993C12.3363 8.33335 11.7004 8.06996 11.2316 7.60112C10.7627 7.13228 10.4993 6.49639 10.4993 5.83335V1.70585C10.3643 1.69335 10.2318 1.66669 10.0952 1.66669H6.33268C5.66964 1.66669 5.03376 1.93008 4.56492 2.39892C4.09607 2.86776 3.83268 3.50364 3.83268 4.16669V15.8334C3.83268 16.4964 4.09607 17.1323 4.56492 17.6011C5.03376 18.07 5.66964 18.3334 6.33268 18.3334H14.666C15.3291 18.3334 15.9649 18.07 16.4338 17.6011C16.9026 17.1323 17.166 16.4964 17.166 15.8334V8.73752Z" fill="#FFF5F2"/>
</g>
<defs>
<clipPath id="clip0_259_9248">
<rect width="20" height="20" fill="white" transform="translate(0.5)"/>
</clipPath>
</defs>
</svg>
