<svg width="21" height="20" viewBox="0 0 21 20" fill="none" xmlns="http://www.w3.org/2000/svg">
<path d="M10.4994 6.66699C9.84008 6.66699 9.19561 6.86249 8.64745 7.22876C8.09929 7.59503 7.67204 8.11563 7.41975 8.72471C7.16746 9.3338 7.10145 10.004 7.23007 10.6506C7.35868 11.2972 7.67615 11.8912 8.14233 12.3573C8.6085 12.8235 9.20245 13.141 9.84905 13.2696C10.4957 13.3982 11.1659 13.3322 11.775 13.0799C12.384 12.8276 12.9046 12.4004 13.2709 11.8522C13.6372 11.3041 13.8327 10.6596 13.8327 10.0003C13.8327 9.11627 13.4815 8.26842 12.8564 7.6433C12.2313 7.01818 11.3834 6.66699 10.4994 6.66699V6.66699ZM10.4994 11.667C10.1697 11.667 9.84748 11.5692 9.5734 11.3861C9.29932 11.203 9.0857 10.9427 8.95955 10.6381C8.83341 10.3336 8.8004 9.99848 8.86471 9.67517C8.92902 9.35187 9.08775 9.0549 9.32084 8.82181C9.55393 8.58873 9.8509 8.42999 10.1742 8.36568C10.4975 8.30137 10.8326 8.33438 11.1372 8.46053C11.4417 8.58667 11.702 8.80029 11.8851 9.07438C12.0683 9.34846 12.166 9.67069 12.166 10.0003C12.166 10.4424 11.9904 10.8663 11.6779 11.1788C11.3653 11.4914 10.9414 11.667 10.4994 11.667Z" fill="#6F6F6F"/>
<path d="M18.2442 11.5833L17.8742 11.37C18.0408 10.4637 18.0408 9.53463 17.8742 8.62833L18.2442 8.415C18.5287 8.25085 18.7781 8.03226 18.9782 7.77172C19.1782 7.51118 19.325 7.21378 19.4101 6.89651C19.4953 6.57925 19.517 6.24832 19.4743 5.92263C19.4315 5.59694 19.325 5.28286 19.1609 4.99833C18.9967 4.7138 18.7781 4.46439 18.5176 4.26434C18.257 4.06428 17.9596 3.91751 17.6424 3.83239C17.3251 3.74726 16.9942 3.72547 16.6685 3.76824C16.3428 3.81101 16.0287 3.91751 15.7442 4.08167L15.3734 4.29583C14.673 3.69743 13.8681 3.23354 12.9992 2.9275V2.5C12.9992 1.83696 12.7358 1.20107 12.2669 0.732233C11.7981 0.263392 11.1622 0 10.4992 0C9.83614 0 9.20026 0.263392 8.73141 0.732233C8.26257 1.20107 7.99918 1.83696 7.99918 2.5V2.9275C7.13034 3.23464 6.32572 3.69967 5.62585 4.29917L5.25335 4.08333C4.67871 3.75181 3.99592 3.66214 3.35517 3.83405C2.71442 4.00596 2.1682 4.42536 1.83668 5C1.50516 5.57464 1.41549 6.25743 1.5874 6.89818C1.75931 7.53893 2.17871 8.08515 2.75335 8.41667L3.12335 8.63C2.95677 9.5363 2.95677 10.4654 3.12335 11.3717L2.75335 11.585C2.17871 11.9165 1.75931 12.4627 1.5874 13.1035C1.41549 13.7442 1.50516 14.427 1.83668 15.0017C2.1682 15.5763 2.71442 15.9957 3.35517 16.1676C3.99592 16.3395 4.67871 16.2499 5.25335 15.9183L5.62418 15.7042C6.32482 16.3027 7.13 16.7666 7.99918 17.0725V17.5C7.99918 18.163 8.26257 18.7989 8.73141 19.2678C9.20026 19.7366 9.83614 20 10.4992 20C11.1622 20 11.7981 19.7366 12.2669 19.2678C12.7358 18.7989 12.9992 18.163 12.9992 17.5V17.0725C13.868 16.7654 14.6726 16.3003 15.3725 15.7008L15.745 15.9158C16.3197 16.2474 17.0024 16.337 17.6432 16.1651C18.2839 15.9932 18.8302 15.5738 19.1617 14.9992C19.4932 14.4245 19.5829 13.7417 19.411 13.101C19.2391 12.4602 18.8197 11.914 18.245 11.5825L18.2442 11.5833ZM16.1208 8.43667C16.4031 9.45922 16.4031 10.5391 16.1208 11.5617C16.0716 11.7396 16.0828 11.9289 16.1528 12.0998C16.2228 12.2707 16.3476 12.4135 16.5075 12.5058L17.4109 13.0275C17.6024 13.138 17.7421 13.3201 17.7994 13.5336C17.8567 13.7472 17.8268 13.9747 17.7163 14.1662C17.6058 14.3578 17.4237 14.4975 17.2101 14.5548C16.9966 14.6121 16.769 14.5822 16.5775 14.4717L15.6725 13.9483C15.5124 13.8556 15.326 13.8188 15.1427 13.8437C14.9594 13.8686 14.7896 13.9538 14.66 14.0858C13.9183 14.843 12.9838 15.3833 11.9575 15.6483C11.7784 15.6944 11.6197 15.7987 11.5063 15.9449C11.393 16.0911 11.3316 16.2709 11.3317 16.4558V17.5C11.3317 17.721 11.2439 17.933 11.0876 18.0893C10.9313 18.2455 10.7194 18.3333 10.4983 18.3333C10.2773 18.3333 10.0654 18.2455 9.90909 18.0893C9.75281 17.933 9.66501 17.721 9.66501 17.5V16.4567C9.66511 16.2717 9.60366 16.092 9.49035 15.9458C9.37705 15.7996 9.21832 15.6952 9.03918 15.6492C8.0128 15.3831 7.07862 14.8416 6.33751 14.0833C6.20795 13.9513 6.03813 13.8661 5.85481 13.8412C5.67149 13.8163 5.4851 13.8531 5.32501 13.9458L4.42168 14.4683C4.32687 14.5239 4.22201 14.5602 4.11312 14.5751C4.00423 14.59 3.89348 14.5832 3.78723 14.5551C3.68098 14.527 3.58133 14.4782 3.49403 14.4114C3.40673 14.3446 3.3335 14.2613 3.27854 14.1661C3.22359 14.0709 3.18801 13.9658 3.17385 13.8568C3.15968 13.7479 3.16721 13.6372 3.19601 13.5311C3.2248 13.425 3.27429 13.3257 3.34163 13.2389C3.40896 13.152 3.49281 13.0793 3.58835 13.025L4.49168 12.5033C4.65164 12.411 4.77641 12.2682 4.8464 12.0973C4.91639 11.9264 4.92762 11.7371 4.87835 11.5592C4.59615 10.5366 4.59615 9.45672 4.87835 8.43417C4.92674 8.25657 4.91496 8.06795 4.84486 7.89774C4.77476 7.72754 4.65028 7.58534 4.49085 7.49333L3.58751 6.97167C3.39601 6.86116 3.25624 6.6791 3.19896 6.46555C3.14169 6.25199 3.17159 6.02442 3.2821 5.83292C3.3926 5.64141 3.57466 5.50164 3.78822 5.44437C4.00178 5.38709 4.22934 5.41699 4.42085 5.5275L5.32585 6.05083C5.4855 6.14376 5.6715 6.18101 5.85462 6.15672C6.03774 6.13244 6.20761 6.048 6.33751 5.91667C7.07925 5.15945 8.0137 4.61918 9.04001 4.35417C9.21971 4.30797 9.37885 4.20313 9.49221 4.05625C9.60557 3.90938 9.66668 3.72887 9.66585 3.54333V2.5C9.66585 2.27899 9.75365 2.06702 9.90993 1.91074C10.0662 1.75446 10.2782 1.66667 10.4992 1.66667C10.7202 1.66667 10.9322 1.75446 11.0884 1.91074C11.2447 2.06702 11.3325 2.27899 11.3325 2.5V3.54333C11.3324 3.7283 11.3939 3.90804 11.5072 4.05423C11.6205 4.20043 11.7792 4.30478 11.9583 4.35083C12.985 4.61679 13.9195 5.15824 14.6608 5.91667C14.7904 6.04872 14.9602 6.13391 15.1436 6.15881C15.3269 6.1837 15.5133 6.14689 15.6733 6.05417L16.5767 5.53167C16.6715 5.47609 16.7764 5.43981 16.8852 5.42492C16.9941 5.41003 17.1049 5.41683 17.2111 5.44492C17.3174 5.47301 17.417 5.52184 17.5043 5.58859C17.5916 5.65535 17.6649 5.73872 17.7198 5.83389C17.7748 5.92907 17.8104 6.03417 17.8245 6.14316C17.8387 6.25214 17.8312 6.36285 17.8024 6.46891C17.7736 6.57497 17.7241 6.67429 17.6567 6.76114C17.5894 6.848 17.5056 6.92068 17.41 6.975L16.5067 7.49667C16.3476 7.58892 16.2234 7.73123 16.1536 7.90141C16.0838 8.07159 16.0723 8.26008 16.1208 8.4375V8.43667Z" fill="#6F6F6F"/>
</svg>
