<svg width="24" height="24" viewBox="0 0 24 24" fill="none" xmlns="http://www.w3.org/2000/svg">
<g clip-path="url(#clip0_92_4523)">
<path d="M23.2709 9.41879C22.3682 7.94051 21.2294 6.62004 19.8999 5.50979L22.6999 2.70979C22.8821 2.52119 22.9829 2.26858 22.9806 2.00639C22.9783 1.74419 22.8732 1.49338 22.6877 1.30797C22.5023 1.12256 22.2515 1.01739 21.9893 1.01511C21.7271 1.01284 21.4745 1.11363 21.2859 1.29579L18.2409 4.34479C16.3533 3.22361 14.1953 2.63925 11.9999 2.65479C5.80893 2.65479 2.28093 6.89279 0.728929 9.41879C0.249457 10.1943 -0.0045166 11.088 -0.0045166 11.9998C-0.0045166 12.9115 0.249457 13.8053 0.728929 14.5808C1.63169 16.0591 2.77042 17.3795 4.09993 18.4898L1.29993 21.2898C1.20442 21.382 1.12824 21.4924 1.07583 21.6144C1.02342 21.7364 0.995833 21.8676 0.994679 22.0004C0.993525 22.1332 1.01883 22.2648 1.06911 22.3877C1.11939 22.5106 1.19364 22.6223 1.28753 22.7162C1.38143 22.8101 1.49308 22.8843 1.61598 22.9346C1.73887 22.9849 1.87055 23.0102 2.00333 23.009C2.13611 23.0079 2.26733 22.9803 2.38933 22.9279C2.51134 22.8755 2.62168 22.7993 2.71393 22.7038L5.76593 19.6518C7.6512 20.7728 9.8066 21.3581 11.9999 21.3448C18.1909 21.3448 21.7189 17.1068 23.2709 14.5808C23.7504 13.8053 24.0044 12.9115 24.0044 11.9998C24.0044 11.088 23.7504 10.1943 23.2709 9.41879ZM2.43293 13.5338C2.14806 13.0728 1.99718 12.5417 1.99718 11.9998C1.99718 11.4579 2.14806 10.9267 2.43293 10.4658C3.76693 8.29979 6.78193 4.65479 11.9999 4.65479C13.6602 4.64549 15.2972 5.04563 16.7659 5.81979L14.7529 7.83279C13.7929 7.19539 12.6418 6.90978 11.4952 7.02443C10.3485 7.13908 9.2768 7.64693 8.46193 8.46179C7.64707 9.27665 7.13922 10.3483 7.02457 11.495C6.90992 12.6417 7.19553 13.7927 7.83293 14.7528L5.52293 17.0628C4.29803 16.0725 3.25277 14.8787 2.43293 13.5338ZM14.9999 11.9998C14.9999 12.7954 14.6839 13.5585 14.1213 14.1211C13.5586 14.6837 12.7956 14.9998 11.9999 14.9998C11.5544 14.9981 11.1151 14.8955 10.7149 14.6998L14.6999 10.7148C14.8956 11.115 14.9982 11.5543 14.9999 11.9998ZM8.99993 11.9998C8.99993 11.2041 9.316 10.4411 9.87861 9.87847C10.4412 9.31586 11.2043 8.99979 11.9999 8.99979C12.4454 9.00151 12.8847 9.10408 13.2849 9.29979L9.29993 13.2848C9.10422 12.8846 9.00165 12.4453 8.99993 11.9998ZM21.5669 13.5338C20.2329 15.6998 17.2179 19.3448 11.9999 19.3448C10.3397 19.3541 8.70269 18.954 7.23393 18.1798L9.24693 16.1668C10.207 16.8042 11.358 17.0898 12.5047 16.9751C13.6514 16.8605 14.7231 16.3526 15.5379 15.5378C16.3528 14.7229 16.8606 13.6512 16.9753 12.5046C17.0899 11.3579 16.8043 10.2069 16.1669 9.24679L18.4769 6.93679C19.7018 7.92707 20.7471 9.12084 21.5669 10.4658C21.8518 10.9267 22.0027 11.4579 22.0027 11.9998C22.0027 12.5417 21.8518 13.0728 21.5669 13.5338Z" fill="#374957"/>
</g>
<defs>
<clipPath id="clip0_92_4523">
<rect width="24" height="24" fill="white"/>
</clipPath>
</defs>
</svg>
