<svg width="16" height="16" viewBox="0 0 16 16" fill="none" xmlns="http://www.w3.org/2000/svg">
<path fill-rule="evenodd" clip-rule="evenodd" d="M12.6333 11.8159C12.4036 12.0547 12.0238 12.0622 11.7849 11.8325L8.18491 8.4325C8.06727 8.31938 8.00078 8.16321 8.00078 8C8.00078 7.83679 8.06727 7.68062 8.18491 7.5675L11.7849 4.1675C12.0238 3.93782 12.4036 3.94527 12.6333 4.18413C12.863 4.423 12.8555 4.80282 12.6166 5.0325L9.46644 8L12.6166 10.9675C12.8555 11.1972 12.863 11.577 12.6333 11.8159ZM7.83328 11.8159C7.6036 12.0547 7.22378 12.0622 6.98491 11.8325L3.38491 8.4325C3.26727 8.31938 3.20078 8.16321 3.20078 8C3.20078 7.83679 3.26727 7.68062 3.38491 7.5675L6.98491 4.1675C7.22378 3.93782 7.6036 3.94527 7.83328 4.18413C8.06296 4.423 8.05551 4.80282 7.81664 5.0325L4.66644 8L7.81665 10.9675C8.05551 11.1972 8.06296 11.577 7.83328 11.8159Z" fill="#8E95A9"/>
</svg>
