<svg width="24" height="25" viewBox="0 0 24 25" fill="none" xmlns="http://www.w3.org/2000/svg">
<path d="M9 22.5H15C20 22.5 22 20.5 22 15.5V9.5C22 4.5 20 2.5 15 2.5H9C4 2.5 2 4.5 2 9.5V15.5C2 20.5 4 22.5 9 22.5Z" stroke="#475069" stroke-width="1.5" stroke-linecap="round" stroke-linejoin="round"/>
<path d="M16.2792 14.1099C15.1492 15.2399 13.5292 15.5899 12.0992 15.1399L9.50922 17.7199C9.32922 17.9099 8.95922 18.0299 8.68922 17.9899L7.48922 17.8299C7.08922 17.7799 6.72922 17.3999 6.66922 17.0099L6.50922 15.8099C6.46922 15.5499 6.59922 15.1799 6.77922 14.9899L9.35922 12.4099C8.91922 10.9799 9.25922 9.35989 10.3892 8.22989C12.0092 6.60989 14.6492 6.60989 16.2792 8.22989C17.8992 9.83989 17.8992 12.4799 16.2792 14.1099Z" stroke="#475069" stroke-width="1.5" stroke-miterlimit="10" stroke-linecap="round" stroke-linejoin="round"/>
<path d="M10.4496 16.7799L9.59961 15.9199" stroke="#475069" stroke-width="1.5" stroke-miterlimit="10" stroke-linecap="round" stroke-linejoin="round"/>
<path d="M13.3949 11.2H13.4039" stroke="#475069" stroke-width="2" stroke-linecap="round" stroke-linejoin="round"/>
</svg>
