<svg width="25" height="24" viewBox="0 0 25 24" fill="none" xmlns="http://www.w3.org/2000/svg">
<path fill-rule="evenodd" clip-rule="evenodd" d="M18.8642 3.05811C19.0631 3.05811 19.2539 3.13712 19.3945 3.27778C19.5352 3.41843 19.6142 3.60919 19.6142 3.80811V8.05011C19.6142 8.24902 19.5352 8.43978 19.3945 8.58044C19.2539 8.72109 19.0631 8.80011 18.8642 8.80011H14.6212C14.4223 8.80011 14.2315 8.72109 14.0909 8.58044C13.9502 8.43978 13.8712 8.24902 13.8712 8.05011C13.8712 7.85119 13.9502 7.66043 14.0909 7.51978C14.2315 7.37912 14.4223 7.30011 14.6212 7.30011H16.9812C15.6272 6.2361 13.9387 5.6887 12.218 5.7559C10.4973 5.8231 8.85664 6.5005 7.58975 7.66687C6.32286 8.83323 5.51243 10.4124 5.30352 12.1217C5.09461 13.831 5.50087 15.5589 6.44956 16.9961C7.39826 18.4332 8.82747 19.4858 10.4814 19.9654C12.1353 20.4451 13.9059 20.3204 15.4763 19.6138C17.0466 18.9072 18.3143 17.6648 19.0523 16.1089C19.7903 14.553 19.9505 12.7853 19.5042 11.1221C19.4788 11.0269 19.4724 10.9276 19.4853 10.8299C19.4983 10.7322 19.5304 10.6381 19.5797 10.5528C19.6291 10.4675 19.6948 10.3928 19.773 10.3328C19.8512 10.2729 19.9405 10.229 20.0357 10.2036C20.1309 10.1782 20.2302 10.1718 20.3279 10.1847C20.4256 10.1977 20.5197 10.2298 20.605 10.2791C20.6903 10.3285 20.7651 10.3942 20.825 10.4724C20.8849 10.5506 20.9288 10.6399 20.9542 10.7351C21.4955 12.7531 21.2968 14.8982 20.3941 16.7824C19.4914 18.6667 17.9443 20.1658 16.0325 21.0085C14.1207 21.8513 11.9704 21.9822 9.97049 21.3775C7.97058 20.7728 6.25305 19.4724 5.1285 17.7116C4.00395 15.9507 3.5466 13.8455 3.83915 11.7768C4.13171 9.70804 5.15486 7.81226 6.72359 6.43226C8.29231 5.05226 10.3031 4.27914 12.3922 4.2527C14.4814 4.22626 16.5111 4.94825 18.1142 6.28811V3.80811C18.1142 3.60919 18.1932 3.41843 18.3339 3.27778C18.4745 3.13712 18.6653 3.05811 18.8642 3.05811Z" fill="#919498"/>
</svg>
