<svg width="16" height="16" viewBox="0 0 16 16" fill="none" xmlns="http://www.w3.org/2000/svg">
<path d="M3.38335 10.9675C3.14449 11.1972 3.13704 11.577 3.36672 11.8159C3.5964 12.0547 3.97622 12.0622 4.21509 11.8325L7.81509 8.4325C7.93273 8.31938 7.99922 8.16321 7.99922 8C7.99922 7.83679 7.93273 7.68062 7.81509 7.5675L4.21508 4.1675C3.97622 3.93782 3.5964 3.94527 3.36672 4.18414C3.13704 4.423 3.14449 4.80282 3.38335 5.0325L6.53355 8L3.38335 10.9675Z" fill="#8E95A9"/>
<path d="M8.18335 10.9675C7.94449 11.1972 7.93704 11.577 8.16672 11.8159C8.3964 12.0547 8.77622 12.0622 9.01509 11.8325L12.6151 8.4325C12.7327 8.31938 12.7992 8.16321 12.7992 8C12.7992 7.83679 12.7327 7.68062 12.6151 7.5675L9.01509 4.1675C8.77622 3.93782 8.3964 3.94527 8.16672 4.18414C7.93704 4.423 7.94449 4.80282 8.18335 5.0325L11.3336 8L8.18335 10.9675Z" fill="#8E95A9"/>
</svg>
