<svg width="132" height="140" viewBox="0 0 132 140" fill="none" xmlns="http://www.w3.org/2000/svg">
<rect x="32.8707" y="8.26392" width="8.21768" height="8.21768" fill="#DA806E"/>
<rect x="90.3944" y="8.26392" width="8.21768" height="8.21768" fill="#DA806E"/>
<rect x="32.8707" y="0.0463867" width="8.21768" height="8.21768" fill="#1C1C1C"/>
<rect x="106.83" y="123.312" width="8.21768" height="8.21768" fill="#1C1C1C"/>
<rect x="8.21765" y="74.0054" width="8.21768" height="8.21768" fill="#1C1C1C"/>
<rect x="41.0884" y="0.0463867" width="8.21768" height="8.21768" fill="#1C1C1C"/>
<rect x="49.306" y="8.26392" width="8.21768" height="8.21768" fill="#1C1C1C"/>
<rect x="57.5237" y="8.26392" width="8.21768" height="8.21768" fill="#1C1C1C"/>
<rect x="16.4353" y="65.7876" width="8.21768" height="8.21768" fill="#1C1C1C"/>
<rect x="24.6531" y="65.7876" width="8.21768" height="8.21768" fill="#1C1C1C"/>
<rect x="8.21765" y="98.6584" width="8.21768" height="8.21768" fill="#1C1C1C"/>
<rect x="16.4353" y="98.6584" width="8.21768" height="8.21768" fill="#1C1C1C"/>
<rect x="106.83" y="98.6584" width="8.21768" height="8.21768" fill="#1C1C1C"/>
<rect x="115.047" y="98.6584" width="8.21768" height="8.21768" fill="#1C1C1C"/>
<rect x="98.6122" y="65.7876" width="8.21768" height="8.21768" fill="#1C1C1C"/>
<rect x="106.83" y="65.7876" width="8.21768" height="8.21768" fill="#1C1C1C"/>
<rect x="65.7415" y="8.26392" width="8.21768" height="8.21768" fill="#1C1C1C"/>
<rect x="73.9591" y="8.26392" width="8.21768" height="8.21768" fill="#1C1C1C"/>
<rect x="82.1768" y="0.0463867" width="8.21768" height="8.21768" fill="#1C1C1C"/>
<rect x="90.3944" y="0.0463867" width="8.21768" height="8.21768" fill="#1C1C1C"/>
<rect x="106.83" y="8.26392" width="8.21768" height="8.21768" transform="rotate(90 106.83 8.26392)" fill="#1C1C1C"/>
<rect x="106.83" y="16.4817" width="8.21768" height="8.21768" transform="rotate(90 106.83 16.4817)" fill="#1C1C1C"/>
<rect x="49.306" y="41.1348" width="8.21768" height="8.21768" transform="rotate(90 49.306 41.1348)" fill="#1C1C1C"/>
<rect x="49.306" y="49.3523" width="8.21768" height="8.21768" transform="rotate(90 49.306 49.3523)" fill="#1C1C1C"/>
<rect x="82.1768" y="41.1348" width="8.21768" height="8.21768" transform="rotate(90 82.1768 41.1348)" fill="#1C1C1C"/>
<rect x="82.1768" y="49.3523" width="8.21768" height="8.21768" transform="rotate(90 82.1768 49.3523)" fill="#1C1C1C"/>
<rect x="65.7415" y="49.3523" width="8.21768" height="8.21768" transform="rotate(90 65.7415 49.3523)" fill="#1C1C1C"/>
<rect x="32.8707" y="8.26392" width="8.21768" height="8.21768" transform="rotate(90 32.8707 8.26392)" fill="#1C1C1C"/>
<rect x="32.8707" y="16.4817" width="8.21768" height="8.21768" transform="rotate(90 32.8707 16.4817)" fill="#1C1C1C"/>
<rect x="8.21765" y="82.2231" width="8.21768" height="8.21768" transform="rotate(90 8.21765 82.2231)" fill="#1C1C1C"/>
<rect x="8.21765" y="90.4407" width="8.21768" height="8.21768" transform="rotate(90 8.21765 90.4407)" fill="#1C1C1C"/>
<rect width="8.21768" height="8.21768" transform="matrix(-1 0 0 1 123.265 74.0054)" fill="#1C1C1C"/>
<rect width="8.21768" height="8.21768" transform="matrix(0 1 1 0 123.265 82.2231)" fill="#1C1C1C"/>
<rect width="8.21768" height="8.21768" transform="matrix(0 1 1 0 123.265 90.4407)" fill="#1C1C1C"/>
<rect x="24.6531" y="24.6992" width="8.21768" height="8.21768" transform="rotate(90 24.6531 24.6992)" fill="#1C1C1C"/>
<rect x="24.6531" y="32.917" width="8.21768" height="8.21768" transform="rotate(90 24.6531 32.917)" fill="#1C1C1C"/>
<rect x="115.047" y="24.6992" width="8.21768" height="8.21768" transform="rotate(90 115.047 24.6992)" fill="#1C1C1C"/>
<rect x="115.047" y="32.917" width="8.21768" height="8.21768" transform="rotate(90 115.047 32.917)" fill="#1C1C1C"/>
<rect x="123.265" y="57.5701" width="8.21768" height="8.21768" transform="rotate(90 123.265 57.5701)" fill="#1C1C1C"/>
<rect x="123.265" y="41.1348" width="8.21768" height="8.21768" transform="rotate(90 123.265 41.1348)" fill="#1C1C1C"/>
<rect x="123.265" y="49.3523" width="8.21768" height="8.21768" transform="rotate(90 123.265 49.3523)" fill="#1C1C1C"/>
<rect x="123.265" y="115.094" width="8.21768" height="8.21768" transform="rotate(90 123.265 115.094)" fill="#1C1C1C"/>
<rect x="123.265" y="106.876" width="8.21768" height="8.21768" transform="rotate(90 123.265 106.876)" fill="#1C1C1C"/>
<rect x="16.4353" y="57.5701" width="8.21768" height="8.21768" transform="rotate(90 16.4353 57.5701)" fill="#1C1C1C"/>
<rect x="16.4353" y="41.1348" width="8.21768" height="8.21768" transform="rotate(90 16.4353 41.1348)" fill="#1C1C1C"/>
<rect x="16.4353" y="49.3523" width="8.21768" height="8.21768" transform="rotate(90 16.4353 49.3523)" fill="#1C1C1C"/>
<rect x="90.3944" y="139.747" width="8.21768" height="8.21768" transform="rotate(180 90.3944 139.747)" fill="#1C1C1C"/>
<rect x="106.83" y="139.747" width="8.21768" height="8.21768" transform="rotate(180 106.83 139.747)" fill="#1C1C1C"/>
<rect x="98.6122" y="139.747" width="8.21768" height="8.21768" transform="rotate(180 98.6122 139.747)" fill="#1C1C1C"/>
<rect x="32.8707" y="139.747" width="8.21768" height="8.21768" transform="rotate(180 32.8707 139.747)" fill="#1C1C1C"/>
<rect x="49.306" y="139.747" width="8.21768" height="8.21768" transform="rotate(180 49.306 139.747)" fill="#1C1C1C"/>
<rect x="41.0884" y="139.747" width="8.21768" height="8.21768" transform="rotate(180 41.0884 139.747)" fill="#1C1C1C"/>
<rect x="65.7415" y="131.529" width="8.21768" height="8.21768" transform="rotate(180 65.7415 131.529)" fill="#1C1C1C"/>
<rect x="57.5237" y="131.529" width="8.21768" height="8.21768" transform="rotate(180 57.5237 131.529)" fill="#1C1C1C"/>
<rect x="82.1768" y="131.529" width="8.21768" height="8.21768" transform="rotate(180 82.1768 131.529)" fill="#1C1C1C"/>
<rect x="73.9591" y="131.529" width="8.21768" height="8.21768" transform="rotate(180 73.9591 131.529)" fill="#1C1C1C"/>
<rect x="16.4353" y="123.312" width="8.21768" height="8.21768" transform="rotate(-90 16.4353 123.312)" fill="#1C1C1C"/>
<rect x="16.4353" y="115.094" width="8.21768" height="8.21768" transform="rotate(-90 16.4353 115.094)" fill="#1C1C1C"/>
<rect x="16.4353" y="131.529" width="8.21768" height="8.21768" transform="rotate(-90 16.4353 131.529)" fill="#1C1C1C"/>
<rect x="16.4353" y="82.2231" width="8.21768" height="8.21768" fill="#A69078"/>
<rect x="106.83" y="74.0054" width="8.21768" height="8.21768" fill="#A69078"/>
<rect x="115.047" y="82.2231" width="8.21768" height="8.21768" fill="#A69078"/>
<rect x="106.83" y="82.2231" width="8.21768" height="8.21768" fill="#A69078"/>
<rect x="115.047" y="90.4407" width="8.21768" height="8.21768" fill="#A69078"/>
<rect x="106.83" y="24.6992" width="8.21768" height="8.21768" transform="rotate(90 106.83 24.6992)" fill="#A69078"/>
<rect x="106.83" y="32.917" width="8.21768" height="8.21768" transform="rotate(90 106.83 32.917)" fill="#A69078"/>
<rect x="24.6531" y="32.917" width="8.21768" height="8.21768" fill="#A69078"/>
<rect x="32.8707" y="32.917" width="8.21768" height="8.21768" fill="#A69078"/>
<rect x="41.0884" y="32.917" width="8.21768" height="8.21768" fill="#A69078"/>
<rect x="49.306" y="32.917" width="8.21768" height="8.21768" fill="#A69078"/>
<rect x="57.5237" y="32.917" width="8.21768" height="8.21768" fill="#A69078"/>
<rect x="65.7415" y="32.917" width="8.21768" height="8.21768" fill="#A69078"/>
<rect x="73.9591" y="32.917" width="8.21768" height="8.21768" fill="#A69078"/>
<rect x="82.1768" y="32.917" width="8.21768" height="8.21768" fill="#A69078"/>
<rect x="90.3944" y="32.917" width="8.21768" height="8.21768" fill="#A69078"/>
<rect x="49.306" y="41.1348" width="8.21768" height="8.21768" fill="#A69078"/>
<rect x="57.5237" y="41.1348" width="8.21768" height="8.21768" fill="#A69078"/>
<rect x="65.7415" y="41.1348" width="8.21768" height="8.21768" fill="#A69078"/>
<rect x="16.4353" y="41.1348" width="8.21768" height="8.21768" fill="#A69078"/>
<rect x="24.6531" y="41.1348" width="8.21768" height="8.21768" fill="#A69078"/>
<rect x="32.8707" y="41.1348" width="8.21768" height="8.21768" fill="#A69078"/>
<rect x="82.1768" y="41.1348" width="8.21768" height="8.21768" fill="#A69078"/>
<rect x="90.3944" y="41.1348" width="8.21768" height="8.21768" fill="#A69078"/>
<rect x="98.6122" y="41.1348" width="8.21768" height="8.21768" fill="#A69078"/>
<rect x="98.6122" y="32.917" width="8.21768" height="8.21768" transform="rotate(180 98.6122 32.917)" fill="#A69078"/>
<rect x="98.6122" y="16.4817" width="8.21768" height="8.21768" transform="rotate(90 98.6122 16.4817)" fill="#A69078"/>
<rect x="98.6122" y="98.6584" width="8.21768" height="8.21768" fill="#A69078"/>
<rect x="98.6122" y="106.876" width="8.21768" height="8.21768" fill="#A69078"/>
<rect x="106.83" y="106.876" width="8.21768" height="8.21768" fill="#A69078"/>
<rect x="98.6122" y="115.094" width="8.21768" height="8.21768" fill="#A69078"/>
<rect x="49.306" y="115.094" width="8.21768" height="8.21768" fill="#A69078"/>
<rect x="106.83" y="115.094" width="8.21768" height="8.21768" fill="#A69078"/>
<rect x="90.3944" y="106.876" width="8.21768" height="8.21768" fill="#A69078"/>
<rect x="90.3944" y="115.094" width="8.21768" height="8.21768" fill="#A69078"/>
<rect x="41.0884" y="106.876" width="8.21768" height="8.21768" fill="#A69078"/>
<rect x="41.0884" y="115.094" width="8.21768" height="8.21768" fill="#A69078"/>
<rect x="32.8707" y="106.876" width="8.21768" height="8.21768" fill="#A69078"/>
<rect x="32.8707" y="115.094" width="8.21768" height="8.21768" fill="#A69078"/>
<rect x="24.6531" y="106.876" width="8.21768" height="8.21768" fill="#A69078"/>
<rect x="24.6531" y="115.094" width="8.21768" height="8.21768" fill="#A69078"/>
<rect x="82.1768" y="115.094" width="8.21768" height="8.21768" fill="#A69078"/>
<rect x="73.9591" y="115.094" width="8.21768" height="8.21768" fill="#A69078"/>
<rect x="65.7415" y="115.094" width="8.21768" height="8.21768" fill="#A69078"/>
<rect x="57.5237" y="115.094" width="8.21768" height="8.21768" fill="#A69078"/>
<rect x="24.6531" y="90.4407" width="8.21768" height="8.21768" fill="#A69078"/>
<rect x="24.6531" y="98.6584" width="8.21768" height="8.21768" fill="#A69078"/>
<rect x="32.8707" y="90.4407" width="8.21768" height="8.21768" fill="#A69078"/>
<rect x="32.8707" y="98.6584" width="8.21768" height="8.21768" fill="#A69078"/>
<rect x="32.8707" y="74.0054" width="8.21768" height="8.21768" fill="#A69078"/>
<rect x="32.8707" y="82.2231" width="8.21768" height="8.21768" fill="#A69078"/>
<rect x="24.6531" y="74.0054" width="8.21768" height="8.21768" fill="#A69078"/>
<rect x="24.6531" y="82.2231" width="8.21768" height="8.21768" fill="#A69078"/>
<rect x="8.21765" y="82.2231" width="8.21768" height="8.21768" fill="#A69078"/>
<rect x="8.21765" y="90.4407" width="8.21768" height="8.21768" fill="#A69078"/>
<rect x="106.83" y="98.6584" width="8.21768" height="8.21768" transform="rotate(180 106.83 98.6584)" fill="#A69078"/>
<rect x="106.83" y="74.0054" width="8.21768" height="8.21768" transform="rotate(90 106.83 74.0054)" fill="#A69078"/>
<rect x="106.83" y="82.2231" width="8.21768" height="8.21768" transform="rotate(90 106.83 82.2231)" fill="#A69078"/>
<rect x="90.3944" y="8.26392" width="8.21768" height="8.21768" transform="rotate(90 90.3944 8.26392)" fill="#A69078"/>
<rect x="90.3944" y="16.4817" width="8.21768" height="8.21768" transform="rotate(90 90.3944 16.4817)" fill="#A69078"/>
<rect x="90.3944" y="24.6992" width="8.21768" height="8.21768" transform="rotate(90 90.3944 24.6992)" fill="#A69078"/>
<rect x="82.1768" y="16.4817" width="8.21768" height="8.21768" transform="rotate(90 82.1768 16.4817)" fill="#A69078"/>
<rect x="82.1768" y="24.6992" width="8.21768" height="8.21768" transform="rotate(90 82.1768 24.6992)" fill="#A69078"/>
<rect x="65.7415" y="16.4817" width="8.21768" height="8.21768" transform="rotate(90 65.7415 16.4817)" fill="#A69078"/>
<rect x="65.7415" y="24.6992" width="8.21768" height="8.21768" transform="rotate(90 65.7415 24.6992)" fill="#A69078"/>
<rect x="49.306" y="16.4817" width="8.21768" height="8.21768" transform="rotate(90 49.306 16.4817)" fill="#A69078"/>
<rect x="49.306" y="24.6992" width="8.21768" height="8.21768" transform="rotate(90 49.306 24.6992)" fill="#A69078"/>
<rect x="41.0884" y="16.4817" width="8.21768" height="8.21768" transform="rotate(90 41.0884 16.4817)" fill="#A69078"/>
<rect x="41.0884" y="24.6992" width="8.21768" height="8.21768" transform="rotate(90 41.0884 24.6992)" fill="#A69078"/>
<rect x="49.306" y="16.4817" width="8.21768" height="8.21768" transform="rotate(180 49.306 16.4817)" fill="#A69078"/>
<rect x="32.8707" y="32.917" width="8.21768" height="8.21768" transform="rotate(180 32.8707 32.917)" fill="#A69078"/>
<rect x="106.83" y="41.1348" width="8.21768" height="8.21768" fill="#A69078"/>
<rect x="90.3944" y="57.5701" width="8.21768" height="8.21768" fill="#A69078"/>
<rect x="98.6122" y="57.5701" width="8.21768" height="8.21768" fill="#A69078"/>
<rect x="106.83" y="57.5701" width="8.21768" height="8.21768" fill="#A69078"/>
<rect x="57.5237" y="16.4817" width="8.21768" height="8.21768" transform="rotate(90 57.5237 16.4817)" fill="#6F5246"/>
<rect x="57.5237" y="24.6992" width="8.21768" height="8.21768" transform="rotate(90 57.5237 24.6992)" fill="#6F5246"/>
<rect x="65.7415" y="24.6992" width="8.21768" height="8.21768" transform="rotate(-90 65.7415 24.6992)" fill="#6F5246"/>
<rect x="73.9591" y="24.6992" width="8.21768" height="8.21768" transform="rotate(90 73.9591 24.6992)" fill="#6F5246"/>
<rect x="90.3944" y="49.3523" width="8.21768" height="8.21768" fill="#6F5246"/>
<rect x="98.6122" y="49.3523" width="8.21768" height="8.21768" fill="#6F5246"/>
<rect x="106.83" y="49.3523" width="8.21768" height="8.21768" fill="#6F5246"/>
<rect x="16.4353" y="49.3523" width="8.21768" height="8.21768" fill="#6F5246"/>
<rect x="24.6531" y="49.3523" width="8.21768" height="8.21768" fill="#6F5246"/>
<rect x="16.4353" y="74.0054" width="8.21768" height="8.21768" fill="#6F5246"/>
<rect x="16.4353" y="90.4407" width="8.21768" height="8.21768" fill="#6F5246"/>
<rect x="106.83" y="90.4407" width="8.21768" height="8.21768" fill="#6F5246"/>
<rect x="16.4353" y="57.5701" width="8.21768" height="8.21768" fill="#DBD5C3"/>
<rect x="24.6531" y="57.5701" width="8.21768" height="8.21768" fill="#DBD5C3"/>
<rect x="32.8707" y="57.5701" width="8.21768" height="8.21768" fill="#DBD5C3"/>
<rect x="41.0884" y="57.5701" width="8.21768" height="8.21768" fill="#DBD5C3"/>
<rect x="49.306" y="57.5701" width="8.21768" height="8.21768" fill="#DBD5C3"/>
<rect x="57.5237" y="57.5701" width="8.21768" height="8.21768" fill="#DBD5C3"/>
<rect x="65.7415" y="57.5701" width="8.21768" height="8.21768" fill="#DBD5C3"/>
<rect x="65.7415" y="49.3523" width="8.21768" height="8.21768" fill="#DBD5C3"/>
<rect x="82.1768" y="49.3523" width="8.21768" height="8.21768" fill="#DBD5C3"/>
<rect x="49.306" y="49.3523" width="8.21768" height="8.21768" fill="#DBD5C3"/>
<rect x="32.8707" y="49.3523" width="8.21768" height="8.21768" fill="#DBD5C3"/>
<rect x="73.9591" y="57.5701" width="8.21768" height="8.21768" fill="#DBD5C3"/>
<rect x="82.1768" y="57.5701" width="8.21768" height="8.21768" fill="#DBD5C3"/>
<rect x="73.9591" y="65.7876" width="8.21768" height="8.21768" fill="#DBD5C3"/>
<rect x="82.1768" y="65.7876" width="8.21768" height="8.21768" fill="#DBD5C3"/>
<rect x="90.3944" y="65.7876" width="8.21768" height="8.21768" fill="#DBD5C3"/>
<rect x="73.9591" y="74.0054" width="8.21768" height="8.21768" fill="#DBD5C3"/>
<rect x="82.1768" y="74.0054" width="8.21768" height="8.21768" fill="#DBD5C3"/>
<rect x="90.3944" y="74.0054" width="8.21768" height="8.21768" fill="#DBD5C3"/>
<rect x="73.9591" y="82.2231" width="8.21768" height="8.21768" fill="#DBD5C3"/>
<rect x="82.1768" y="82.2231" width="8.21768" height="8.21768" fill="#DBD5C3"/>
<rect x="90.3944" y="82.2231" width="8.21768" height="8.21768" fill="#DBD5C3"/>
<rect x="73.9591" y="90.4407" width="8.21768" height="8.21768" fill="#DBD5C3"/>
<rect x="82.1768" y="90.4407" width="8.21768" height="8.21768" fill="#DBD5C3"/>
<rect x="90.3944" y="90.4407" width="8.21768" height="8.21768" fill="#DBD5C3"/>
<rect x="73.9591" y="98.6584" width="8.21768" height="8.21768" fill="#DBD5C3"/>
<rect x="82.1768" y="98.6584" width="8.21768" height="8.21768" fill="#DBD5C3"/>
<rect x="90.3944" y="98.6584" width="8.21768" height="8.21768" fill="#DBD5C3"/>
<rect x="57.5237" y="65.7876" width="8.21768" height="8.21768" fill="#DBD5C3"/>
<rect x="65.7415" y="65.7876" width="8.21768" height="8.21768" fill="#DBD5C3"/>
<rect x="57.5237" y="74.0054" width="8.21768" height="8.21768" fill="#DBD5C3"/>
<rect x="65.7415" y="74.0054" width="8.21768" height="8.21768" fill="#DBD5C3"/>
<rect x="57.5237" y="82.2231" width="8.21768" height="8.21768" fill="#DBD5C3"/>
<rect x="65.7415" y="82.2231" width="8.21768" height="8.21768" fill="#DBD5C3"/>
<rect x="57.5237" y="90.4407" width="8.21768" height="8.21768" fill="#DBD5C3"/>
<rect x="65.7415" y="90.4407" width="8.21768" height="8.21768" fill="#DBD5C3"/>
<rect x="57.5237" y="98.6584" width="8.21768" height="8.21768" fill="#DBD5C3"/>
<rect x="65.7415" y="98.6584" width="8.21768" height="8.21768" fill="#DBD5C3"/>
<rect x="49.306" y="65.7876" width="8.21768" height="8.21768" fill="#DBD5C3"/>
<rect x="49.306" y="74.0054" width="8.21768" height="8.21768" fill="#DBD5C3"/>
<rect x="49.306" y="82.2231" width="8.21768" height="8.21768" fill="#DBD5C3"/>
<rect x="49.306" y="90.4407" width="8.21768" height="8.21768" fill="#DBD5C3"/>
<rect x="49.306" y="98.6584" width="8.21768" height="8.21768" fill="#DBD5C3"/>
<rect x="41.0884" y="65.7876" width="8.21768" height="8.21768" fill="#DBD5C3"/>
<rect x="32.8707" y="65.7876" width="8.21768" height="8.21768" fill="#DBD5C3"/>
<rect x="41.0884" y="74.0054" width="8.21768" height="8.21768" fill="#DBD5C3"/>
<rect x="41.0884" y="82.2231" width="8.21768" height="8.21768" fill="#DBD5C3"/>
<rect x="41.0884" y="90.4407" width="8.21768" height="8.21768" fill="#DBD5C3"/>
<rect x="41.0884" y="98.6584" width="8.21768" height="8.21768" fill="#DBD5C3"/>
<rect x="82.1768" y="106.876" width="8.21768" height="8.21768" fill="#DBD5C3"/>
<rect x="65.7415" y="106.876" width="8.21768" height="8.21768" fill="#DBD5C3"/>
<rect x="73.9591" y="106.876" width="8.21768" height="8.21768" fill="#DBD5C3"/>
<rect x="57.5237" y="106.876" width="8.21768" height="8.21768" fill="#DBD5C3"/>
<rect x="49.306" y="106.876" width="8.21768" height="8.21768" fill="#DBD5C3"/>
<rect x="41.0884" y="123.312" width="8.21768" height="8.21768" fill="#DBD5C3"/>
<rect x="32.8707" y="123.312" width="8.21768" height="8.21768" fill="#DBD5C3"/>
<rect x="24.6531" y="123.312" width="8.21768" height="8.21768" fill="#DBD5C3"/>
<rect x="98.6122" y="123.312" width="8.21768" height="8.21768" fill="#DBD5C3"/>
<rect x="90.3944" y="123.312" width="8.21768" height="8.21768" fill="#DBD5C3"/>
<rect x="82.1768" y="123.312" width="8.21768" height="8.21768" fill="#DBD5C3"/>
</svg>
