<svg width="128" height="136" viewBox="0 0 128 136" fill="none" xmlns="http://www.w3.org/2000/svg">
<rect x="32" width="16" height="16" fill="#1C1C1C"/>
<rect x="24" y="8" width="80" height="24" fill="#1C1C1C"/>
<rect x="16" y="24" width="96" height="24" fill="#1C1C1C"/>
<rect x="16" y="56" width="96" height="24" fill="#1C1C1C"/>
<rect x="16" y="96" width="104" height="24" fill="#1C1C1C"/>
<rect x="16" y="112" width="96" height="16" fill="#1C1C1C"/>
<rect x="24" y="120" width="24" height="16" fill="#1C1C1C"/>
<rect x="80" y="120" width="24" height="16" fill="#1C1C1C"/>
<rect x="8" y="40" width="112" height="24" fill="#1C1C1C"/>
<rect x="8" y="72" width="112" height="32" fill="#1C1C1C"/>
<rect y="80" width="128" height="16" fill="#1C1C1C"/>
<rect x="80" width="16" height="16" fill="#1C1C1C"/>
<rect x="32" y="8" width="16" height="16" fill="#252525"/>
<rect x="8" y="80" width="16" height="16" fill="#252525"/>
<rect x="104" y="80" width="16" height="16" fill="#252525"/>
<rect x="96" y="104" width="16" height="16" fill="#252525"/>
<rect x="80" y="112" width="24" height="16" fill="#252525"/>
<rect x="24" y="112" width="24" height="16" fill="#252525"/>
<rect x="32" y="60" width="64" height="16" fill="#252525"/>
<rect x="32" y="16" width="64" height="16" fill="#252525"/>
<rect x="24" y="24" width="80" height="24" fill="#252525"/>
<rect x="16" y="40" width="96" height="24" fill="#252525"/>
<rect x="16" y="72" width="96" height="24" fill="#252525"/>
<rect x="24" y="88" width="80" height="32" fill="#252525"/>
<rect x="80" y="8" width="16" height="16" fill="#252525"/>
<rect x="80" y="40" width="16" height="8" transform="rotate(90 80 40)" fill="#FFD66B"/>
<rect x="48" y="40" width="16" height="8" transform="rotate(90 48 40)" fill="#FFD66B"/>
<rect x="64" y="48" width="8" height="8" transform="rotate(90 64 48)" fill="#1C1C1C"/>
<rect x="32" y="8" width="8" height="8" fill="#DA806E"/>
<rect x="88" y="8" width="8" height="8" fill="#DA806E"/>
</svg>
