<svg width="133" height="141" viewBox="0 0 133 141" fill="none" xmlns="http://www.w3.org/2000/svg">
<rect x="33.4689" y="25.113" width="8.21768" height="8.21768" transform="rotate(90 33.4689 25.113)" fill="#EB2500"/>
<rect x="33.4689" y="33.3308" width="8.21768" height="8.21768" transform="rotate(90 33.4689 33.3308)" fill="#EB2500"/>
<rect x="33.4689" y="41.5486" width="8.21768" height="8.21768" transform="rotate(90 33.4689 41.5486)" fill="#EB2500"/>
<rect x="49.9043" y="8.67773" width="8.21768" height="8.21768" transform="rotate(90 49.9043 8.67773)" fill="#EB2500"/>
<rect x="49.9043" y="16.8955" width="8.21768" height="8.21768" transform="rotate(90 49.9043 16.8955)" fill="#EB2500"/>
<rect x="49.9043" y="25.113" width="8.21768" height="8.21768" transform="rotate(90 49.9043 25.113)" fill="#EB2500"/>
<rect x="49.9043" y="33.3308" width="8.21768" height="8.21768" transform="rotate(90 49.9043 33.3308)" fill="#EB2500"/>
<rect x="58.1219" y="16.8955" width="8.21768" height="8.21768" transform="rotate(90 58.1219 16.8955)" fill="#EB2500"/>
<rect x="58.1219" y="25.113" width="8.21768" height="8.21768" transform="rotate(90 58.1219 25.113)" fill="#EB2500"/>
<rect x="41.6865" y="16.8955" width="8.21768" height="8.21768" transform="rotate(90 41.6865 16.8955)" fill="#EB2500"/>
<rect x="41.6865" y="25.113" width="8.21768" height="8.21768" transform="rotate(90 41.6865 25.113)" fill="#EB2500"/>
<rect x="41.6865" y="33.3308" width="8.21768" height="8.21768" transform="rotate(90 41.6865 33.3308)" fill="#EB2500"/>
<rect x="41.6865" y="41.5486" width="8.21768" height="8.21768" transform="rotate(90 41.6865 41.5486)" fill="#EB2500"/>
<rect x="25.2512" y="41.5486" width="8.21768" height="8.21768" transform="rotate(90 25.2512 41.5486)" fill="#EB2500"/>
<rect x="25.2512" y="49.7661" width="8.21768" height="8.21768" transform="rotate(90 25.2512 49.7661)" fill="#EB2500"/>
<rect x="90.9927" y="8.67773" width="8.21768" height="8.21768" transform="rotate(90 90.9927 8.67773)" fill="#EB2500"/>
<rect x="90.9927" y="16.8955" width="8.21768" height="8.21768" transform="rotate(90 90.9927 16.8955)" fill="#EB2500"/>
<rect x="90.9927" y="25.113" width="8.21768" height="8.21768" transform="rotate(90 90.9927 25.113)" fill="#EB2500"/>
<rect x="99.2102" y="16.8955" width="8.21768" height="8.21768" transform="rotate(90 99.2102 16.8955)" fill="#EB2500"/>
<rect x="99.2102" y="25.113" width="8.21768" height="8.21768" transform="rotate(90 99.2102 25.113)" fill="#EB2500"/>
<rect x="99.2102" y="33.3308" width="8.21768" height="8.21768" transform="rotate(90 99.2102 33.3308)" fill="#EB2500"/>
<rect x="107.428" y="25.113" width="8.21768" height="8.21768" transform="rotate(90 107.428 25.113)" fill="#EB2500"/>
<rect x="90.9927" y="49.7661" width="8.21768" height="8.21768" transform="rotate(90 90.9927 49.7661)" fill="#EB2500"/>
<rect x="99.2102" y="49.7661" width="8.21768" height="8.21768" transform="rotate(90 99.2102 49.7661)" fill="#EB2500"/>
<rect x="90.9927" y="41.5486" width="8.21768" height="8.21768" transform="rotate(90 90.9927 41.5486)" fill="#EB2500"/>
<rect x="99.2102" y="41.5486" width="8.21768" height="8.21768" transform="rotate(90 99.2102 41.5486)" fill="#EB2500"/>
<rect x="107.428" y="49.7661" width="8.21768" height="8.21768" transform="rotate(90 107.428 49.7661)" fill="#EB2500"/>
<rect x="74.5573" y="33.3308" width="8.21768" height="8.21768" transform="rotate(90 74.5573 33.3308)" fill="#EB2500"/>
<rect x="74.5573" y="41.5486" width="8.21768" height="8.21768" transform="rotate(90 74.5573 41.5486)" fill="#EB2500"/>
<rect x="82.7749" y="33.3308" width="8.21768" height="8.21768" transform="rotate(90 82.7749 33.3308)" fill="#EB2500"/>
<rect x="90.9927" y="33.3308" width="8.21768" height="8.21768" transform="rotate(90 90.9927 33.3308)" fill="#EB2500"/>
<rect x="74.5573" y="16.8955" width="8.21768" height="8.21768" transform="rotate(90 74.5573 16.8955)" fill="#EB2500"/>
<rect x="82.7749" y="16.8955" width="8.21768" height="8.21768" transform="rotate(90 82.7749 16.8955)" fill="#EB2500"/>
<rect x="82.7749" y="25.113" width="8.21768" height="8.21768" transform="rotate(90 82.7749 25.113)" fill="#EB2500"/>
<rect x="74.5573" y="25.113" width="8.21768" height="8.21768" transform="rotate(90 74.5573 25.113)" fill="#EB2500"/>
<rect x="107.428" y="33.3308" width="8.21768" height="8.21768" transform="rotate(90 107.428 33.3308)" fill="#EB2500"/>
<rect x="107.428" y="41.5486" width="8.21768" height="8.21768" transform="rotate(90 107.428 41.5486)" fill="#EB2500"/>
<rect x="115.646" y="41.5486" width="8.21768" height="8.21768" transform="rotate(90 115.646 41.5486)" fill="#EB2500"/>
<rect x="115.646" y="49.7661" width="8.21768" height="8.21768" transform="rotate(90 115.646 49.7661)" fill="#EB2500"/>
<rect x="115.646" y="74.4192" width="8.21768" height="8.21768" transform="rotate(90 115.646 74.4192)" fill="#EB2500"/>
<rect x="107.428" y="82.637" width="8.21768" height="8.21768" transform="rotate(90 107.428 82.637)" fill="#EB2500"/>
<rect x="107.428" y="90.8545" width="8.21768" height="8.21768" transform="rotate(90 107.428 90.8545)" fill="#EB2500"/>
<rect x="33.4689" y="82.637" width="8.21768" height="8.21768" transform="rotate(90 33.4689 82.637)" fill="#EB2500"/>
<rect x="25.2512" y="74.4192" width="8.21768" height="8.21768" transform="rotate(90 25.2512 74.4192)" fill="#EB2500"/>
<rect x="33.4689" y="90.8545" width="8.21768" height="8.21768" transform="rotate(90 33.4689 90.8545)" fill="#EB2500"/>
<rect x="17.0336" y="57.9839" width="8.21768" height="8.21768" fill="#FFFAE8"/>
<rect x="25.2512" y="57.9839" width="8.21768" height="8.21768" fill="#FFFAE8"/>
<rect x="33.4689" y="57.9839" width="8.21768" height="8.21768" fill="#FFFAE8"/>
<rect x="25.2512" y="49.7661" width="8.21768" height="8.21768" fill="#FFFAE8"/>
<rect x="33.4689" y="49.7661" width="8.21768" height="8.21768" fill="#FFFAE8"/>
<rect x="49.9043" y="33.3308" width="8.21768" height="8.21768" fill="#FFFAE8"/>
<rect x="58.1219" y="33.3308" width="8.21768" height="8.21768" fill="#FFFAE8"/>
<rect x="66.3396" y="16.8955" width="8.21768" height="8.21768" transform="rotate(90 66.3396 16.8955)" fill="#FFFAE8"/>
<rect x="66.3396" y="25.113" width="8.21768" height="8.21768" transform="rotate(90 66.3396 25.113)" fill="#FFFAE8"/>
<rect x="66.3396" y="41.5486" width="8.21768" height="8.21768" transform="rotate(90 66.3396 41.5486)" fill="#FFFAE8"/>
<rect x="74.5573" y="49.7661" width="8.21768" height="8.21768" transform="rotate(90 74.5573 49.7661)" fill="#FFFAE8"/>
<rect x="58.1219" y="41.5486" width="8.21768" height="8.21768" transform="rotate(90 58.1219 41.5486)" fill="#FFFAE8"/>
<rect x="58.1219" y="49.7661" width="8.21768" height="8.21768" transform="rotate(90 58.1219 49.7661)" fill="#FFFAE8"/>
<rect x="41.6865" y="57.9839" width="8.21768" height="8.21768" fill="#FFFAE8"/>
<rect x="49.9043" y="57.9839" width="8.21768" height="8.21768" fill="#FFFAE8"/>
<rect x="58.1219" y="57.9839" width="8.21768" height="8.21768" fill="#FFFAE8"/>
<rect x="66.3396" y="57.9839" width="8.21768" height="8.21768" fill="#FFFAE8"/>
<rect x="74.5573" y="57.9839" width="8.21768" height="8.21768" fill="#FFFAE8"/>
<rect x="82.7749" y="57.9839" width="8.21768" height="8.21768" fill="#FFFAE8"/>
<rect x="33.4689" y="66.2014" width="8.21768" height="8.21768" fill="#FFFAE8"/>
<rect x="41.6865" y="66.2014" width="8.21768" height="8.21768" fill="#FFFAE8"/>
<rect x="49.9043" y="66.2014" width="8.21768" height="8.21768" fill="#FFFAE8"/>
<rect x="58.1219" y="66.2014" width="8.21768" height="8.21768" fill="#FFFAE8"/>
<rect x="66.3396" y="66.2014" width="8.21768" height="8.21768" fill="#FFFAE8"/>
<rect x="74.5573" y="66.2014" width="8.21768" height="8.21768" fill="#FFFAE8"/>
<rect x="82.7749" y="66.2014" width="8.21768" height="8.21768" fill="#FFFAE8"/>
<rect x="90.9927" y="66.2014" width="8.21768" height="8.21768" fill="#FFFAE8"/>
<rect x="33.4689" y="74.4192" width="8.21768" height="8.21768" fill="#FFFAE8"/>
<rect x="41.6865" y="74.4192" width="8.21768" height="8.21768" fill="#FFFAE8"/>
<rect x="49.9043" y="74.4192" width="8.21768" height="8.21768" fill="#FFFAE8"/>
<rect x="58.1219" y="74.4192" width="8.21768" height="8.21768" fill="#FFFAE8"/>
<rect x="66.3396" y="74.4192" width="8.21768" height="8.21768" fill="#FFFAE8"/>
<rect x="74.5573" y="74.4192" width="8.21768" height="8.21768" fill="#FFFAE8"/>
<rect x="82.7749" y="74.4192" width="8.21768" height="8.21768" fill="#FFFAE8"/>
<rect x="33.4689" y="82.637" width="8.21768" height="8.21768" fill="#FFFAE8"/>
<rect x="41.6865" y="82.637" width="8.21768" height="8.21768" fill="#FFFAE8"/>
<rect x="49.9043" y="82.637" width="8.21768" height="8.21768" fill="#FFFAE8"/>
<rect x="58.1219" y="82.637" width="8.21768" height="8.21768" fill="#FFFAE8"/>
<rect x="66.3396" y="82.637" width="8.21768" height="8.21768" fill="#FFFAE8"/>
<rect x="74.5573" y="82.637" width="8.21768" height="8.21768" fill="#FFFAE8"/>
<rect x="82.7749" y="82.637" width="8.21768" height="8.21768" fill="#FFFAE8"/>
<rect x="33.4689" y="90.8545" width="8.21768" height="8.21768" fill="#FFFAE8"/>
<rect x="41.6865" y="90.8545" width="8.21768" height="8.21768" fill="#FFFAE8"/>
<rect x="49.9043" y="90.8545" width="8.21768" height="8.21768" fill="#FFFAE8"/>
<rect x="58.1219" y="90.8545" width="8.21768" height="8.21768" fill="#FFFAE8"/>
<rect x="66.3396" y="90.8545" width="8.21768" height="8.21768" fill="#FFFAE8"/>
<rect x="74.5573" y="90.8545" width="8.21768" height="8.21768" fill="#FFFAE8"/>
<rect x="82.7749" y="90.8545" width="8.21768" height="8.21768" fill="#FFFAE8"/>
<rect x="33.4689" y="99.0723" width="8.21768" height="8.21768" fill="#FFFAE8"/>
<rect x="41.6865" y="99.0723" width="8.21768" height="8.21768" fill="#FFFAE8"/>
<rect x="49.9043" y="99.0723" width="8.21768" height="8.21768" fill="#FFFAE8"/>
<rect x="58.1219" y="99.0723" width="8.21768" height="8.21768" fill="#FFFAE8"/>
<rect x="66.3396" y="99.0723" width="8.21768" height="8.21768" fill="#FFFAE8"/>
<rect x="74.5573" y="99.0723" width="8.21768" height="8.21768" fill="#FFFAE8"/>
<rect x="82.7749" y="99.0723" width="8.21768" height="8.21768" fill="#FFFAE8"/>
<rect x="33.4689" y="107.29" width="8.21768" height="8.21768" fill="#FFFAE8"/>
<rect x="41.6865" y="107.29" width="8.21768" height="8.21768" fill="#FFFAE8"/>
<rect x="49.9043" y="107.29" width="8.21768" height="8.21768" fill="#FFFAE8"/>
<rect x="58.1219" y="107.29" width="8.21768" height="8.21768" fill="#FFFAE8"/>
<rect x="66.3396" y="107.29" width="8.21768" height="8.21768" fill="#FFFAE8"/>
<rect x="90.9927" y="99.0723" width="8.21768" height="8.21768" fill="#FFFAE8"/>
<rect x="90.9927" y="107.29" width="8.21768" height="8.21768" fill="#FFFAE8"/>
<rect x="90.9927" y="115.508" width="8.21768" height="8.21768" fill="#FFFAE8"/>
<rect x="74.5573" y="107.29" width="8.21768" height="8.21768" fill="#FFFAE8"/>
<rect x="82.7749" y="107.29" width="8.21768" height="8.21768" fill="#FFFAE8"/>
<rect x="33.4689" y="115.508" width="8.21768" height="8.21768" fill="#FFFAE8"/>
<rect x="41.6865" y="115.508" width="8.21768" height="8.21768" fill="#FFFAE8"/>
<rect x="49.9043" y="115.508" width="8.21768" height="8.21768" fill="#FFFAE8"/>
<rect x="25.2512" y="115.508" width="8.21768" height="8.21768" fill="#FFFAE8"/>
<rect x="25.2512" y="123.725" width="8.21768" height="8.21768" fill="#FFFAE8"/>
<rect x="33.4689" y="123.725" width="8.21768" height="8.21768" fill="#FFFAE8"/>
<rect x="41.6865" y="123.725" width="8.21768" height="8.21768" fill="#FFFAE8"/>
<rect x="58.1219" y="115.508" width="8.21768" height="8.21768" fill="#FFFAE8"/>
<rect x="66.3396" y="115.508" width="8.21768" height="8.21768" fill="#FFFAE8"/>
<rect x="74.5573" y="115.508" width="8.21768" height="8.21768" fill="#FFFAE8"/>
<rect x="82.7749" y="115.508" width="8.21768" height="8.21768" fill="#FFFAE8"/>
<rect x="99.2102" y="115.508" width="8.21768" height="8.21768" fill="#FFFAE8"/>
<rect x="82.7749" y="123.725" width="8.21768" height="8.21768" fill="#FFFAE8"/>
<rect x="90.9927" y="123.725" width="8.21768" height="8.21768" fill="#FFFAE8"/>
<rect x="99.2102" y="123.725" width="8.21768" height="8.21768" fill="#FFFAE8"/>
<rect x="90.9927" y="57.9839" width="8.21768" height="8.21768" fill="#FFFAE8"/>
<rect x="99.2102" y="57.9839" width="8.21768" height="8.21768" fill="#FFFAE8"/>
<rect x="107.428" y="57.9839" width="8.21768" height="8.21768" fill="#FFFAE8"/>
<rect x="8.81592" y="82.637" width="8.21768" height="8.21768" fill="#FFFAE8"/>
<rect x="17.0336" y="82.637" width="8.21768" height="8.21768" fill="#FFFAE8"/>
<rect x="8.81592" y="90.8545" width="8.21768" height="8.21768" fill="#FFFAE8"/>
<rect x="17.0336" y="90.8545" width="8.21768" height="8.21768" fill="#FFFAE8"/>
<rect x="33.4689" y="74.4192" width="8.21768" height="8.21768" transform="rotate(90 33.4689 74.4192)" fill="#FFFAE8"/>
<rect x="107.428" y="82.637" width="8.21768" height="8.21768" fill="#FFC39A"/>
<rect x="115.646" y="82.637" width="8.21768" height="8.21768" fill="#FFC39A"/>
<rect x="107.428" y="90.8545" width="8.21768" height="8.21768" fill="#FFC39A"/>
<rect x="115.646" y="90.8545" width="8.21768" height="8.21768" fill="#FFC39A"/>
<rect x="90.9927" y="74.4192" width="8.21768" height="8.21768" fill="#FFC39A"/>
<rect x="99.2102" y="74.4192" width="8.21768" height="8.21768" fill="#FFC39A"/>
<rect x="99.2102" y="107.29" width="8.21768" height="8.21768" fill="#FFC39A"/>
<rect x="107.428" y="107.29" width="8.21768" height="8.21768" fill="#FFC39A"/>
<rect x="33.4689" y="99.0723" width="8.21768" height="8.21768" transform="rotate(90 33.4689 99.0723)" fill="#FFC39A"/>
<rect x="33.4689" y="107.29" width="8.21768" height="8.21768" transform="rotate(90 33.4689 107.29)" fill="#FFC39A"/>
<rect x="99.2102" y="82.637" width="8.21768" height="8.21768" transform="rotate(90 99.2102 82.637)" fill="#FFC39A"/>
<rect x="99.2102" y="90.8545" width="8.21768" height="8.21768" transform="rotate(90 99.2102 90.8545)" fill="#FFC39A"/>
<rect x="115.646" y="115.508" width="8.21768" height="8.21768" transform="rotate(90 115.646 115.508)" fill="#FFC39A"/>
<rect x="107.428" y="99.0723" width="8.21768" height="8.21768" transform="rotate(90 107.428 99.0723)" fill="#FFC39A"/>
<rect x="33.4689" y="8.67773" width="8.21768" height="8.21768" fill="#DA806E"/>
<rect x="90.9927" y="8.67773" width="8.21768" height="8.21768" fill="#DA806E"/>
<rect x="33.4689" y="0.460205" width="8.21768" height="8.21768" fill="#1C1C1C"/>
<rect x="107.428" y="123.725" width="8.21768" height="8.21768" fill="#1C1C1C"/>
<rect x="8.81592" y="74.4192" width="8.21768" height="8.21768" fill="#1C1C1C"/>
<rect x="41.6865" y="0.460205" width="8.21768" height="8.21768" fill="#1C1C1C"/>
<rect x="49.9043" y="8.67773" width="8.21768" height="8.21768" fill="#1C1C1C"/>
<rect x="58.1219" y="8.67773" width="8.21768" height="8.21768" fill="#1C1C1C"/>
<rect x="17.0336" y="66.2014" width="8.21768" height="8.21768" fill="#1C1C1C"/>
<rect x="25.2512" y="66.2014" width="8.21768" height="8.21768" fill="#1C1C1C"/>
<rect x="8.81592" y="99.0723" width="8.21768" height="8.21768" fill="#1C1C1C"/>
<rect x="17.0336" y="99.0723" width="8.21768" height="8.21768" fill="#1C1C1C"/>
<rect x="107.428" y="99.0723" width="8.21768" height="8.21768" fill="#1C1C1C"/>
<rect x="115.646" y="99.0723" width="8.21768" height="8.21768" fill="#1C1C1C"/>
<rect x="99.2102" y="66.2014" width="8.21768" height="8.21768" fill="#1C1C1C"/>
<rect x="107.428" y="66.2014" width="8.21768" height="8.21768" fill="#1C1C1C"/>
<rect x="66.3396" y="8.67773" width="8.21768" height="8.21768" fill="#1C1C1C"/>
<rect x="74.5573" y="8.67773" width="8.21768" height="8.21768" fill="#1C1C1C"/>
<rect x="82.7749" y="0.460205" width="8.21768" height="8.21768" fill="#1C1C1C"/>
<rect x="90.9927" y="0.460205" width="8.21768" height="8.21768" fill="#1C1C1C"/>
<rect x="107.428" y="8.67773" width="8.21768" height="8.21768" transform="rotate(90 107.428 8.67773)" fill="#1C1C1C"/>
<rect x="107.428" y="16.8955" width="8.21768" height="8.21768" transform="rotate(90 107.428 16.8955)" fill="#1C1C1C"/>
<rect x="49.9043" y="41.5486" width="8.21768" height="8.21768" transform="rotate(90 49.9043 41.5486)" fill="#1C1C1C"/>
<rect x="49.9043" y="49.7661" width="8.21768" height="8.21768" transform="rotate(90 49.9043 49.7661)" fill="#1C1C1C"/>
<rect x="82.7749" y="41.5486" width="8.21768" height="8.21768" transform="rotate(90 82.7749 41.5486)" fill="#1C1C1C"/>
<rect x="82.7749" y="49.7661" width="8.21768" height="8.21768" transform="rotate(90 82.7749 49.7661)" fill="#1C1C1C"/>
<rect x="66.3396" y="49.7661" width="8.21768" height="8.21768" transform="rotate(90 66.3396 49.7661)" fill="#1C1C1C"/>
<rect x="33.4689" y="8.67773" width="8.21768" height="8.21768" transform="rotate(90 33.4689 8.67773)" fill="#1C1C1C"/>
<rect x="33.4689" y="16.8955" width="8.21768" height="8.21768" transform="rotate(90 33.4689 16.8955)" fill="#1C1C1C"/>
<rect x="8.81592" y="82.637" width="8.21768" height="8.21768" transform="rotate(90 8.81592 82.637)" fill="#1C1C1C"/>
<rect x="8.81592" y="90.8545" width="8.21768" height="8.21768" transform="rotate(90 8.81592 90.8545)" fill="#1C1C1C"/>
<rect width="8.21768" height="8.21768" transform="matrix(-1 0 0 1 123.863 74.4192)" fill="#1C1C1C"/>
<rect width="8.21768" height="8.21768" transform="matrix(0 1 1 0 123.863 82.637)" fill="#1C1C1C"/>
<rect width="8.21768" height="8.21768" transform="matrix(0 1 1 0 123.863 90.8545)" fill="#1C1C1C"/>
<rect x="25.2512" y="25.113" width="8.21768" height="8.21768" transform="rotate(90 25.2512 25.113)" fill="#1C1C1C"/>
<rect x="25.2512" y="33.3308" width="8.21768" height="8.21768" transform="rotate(90 25.2512 33.3308)" fill="#1C1C1C"/>
<rect x="115.646" y="25.113" width="8.21768" height="8.21768" transform="rotate(90 115.646 25.113)" fill="#1C1C1C"/>
<rect x="115.646" y="33.3308" width="8.21768" height="8.21768" transform="rotate(90 115.646 33.3308)" fill="#1C1C1C"/>
<rect x="123.863" y="57.9839" width="8.21768" height="8.21768" transform="rotate(90 123.863 57.9839)" fill="#1C1C1C"/>
<rect x="123.863" y="41.5486" width="8.21768" height="8.21768" transform="rotate(90 123.863 41.5486)" fill="#1C1C1C"/>
<rect x="123.863" y="49.7661" width="8.21768" height="8.21768" transform="rotate(90 123.863 49.7661)" fill="#1C1C1C"/>
<rect x="123.863" y="115.508" width="8.21768" height="8.21768" transform="rotate(90 123.863 115.508)" fill="#1C1C1C"/>
<rect x="123.863" y="107.29" width="8.21768" height="8.21768" transform="rotate(90 123.863 107.29)" fill="#1C1C1C"/>
<rect x="17.0336" y="57.9839" width="8.21768" height="8.21768" transform="rotate(90 17.0336 57.9839)" fill="#1C1C1C"/>
<rect x="17.0336" y="41.5486" width="8.21768" height="8.21768" transform="rotate(90 17.0336 41.5486)" fill="#1C1C1C"/>
<rect x="17.0336" y="49.7661" width="8.21768" height="8.21768" transform="rotate(90 17.0336 49.7661)" fill="#1C1C1C"/>
<rect x="90.9927" y="140.161" width="8.21768" height="8.21768" transform="rotate(180 90.9927 140.161)" fill="#1C1C1C"/>
<rect x="107.428" y="140.161" width="8.21768" height="8.21768" transform="rotate(180 107.428 140.161)" fill="#1C1C1C"/>
<rect x="99.2102" y="140.161" width="8.21768" height="8.21768" transform="rotate(180 99.2102 140.161)" fill="#1C1C1C"/>
<rect x="33.4689" y="140.161" width="8.21768" height="8.21768" transform="rotate(180 33.4689 140.161)" fill="#1C1C1C"/>
<rect x="49.9043" y="140.161" width="8.21768" height="8.21768" transform="rotate(180 49.9043 140.161)" fill="#1C1C1C"/>
<rect x="41.6865" y="140.161" width="8.21768" height="8.21768" transform="rotate(180 41.6865 140.161)" fill="#1C1C1C"/>
<rect x="66.3396" y="131.943" width="8.21768" height="8.21768" transform="rotate(180 66.3396 131.943)" fill="#1C1C1C"/>
<rect x="58.1219" y="131.943" width="8.21768" height="8.21768" transform="rotate(180 58.1219 131.943)" fill="#1C1C1C"/>
<rect x="82.7749" y="131.943" width="8.21768" height="8.21768" transform="rotate(180 82.7749 131.943)" fill="#1C1C1C"/>
<rect x="74.5573" y="131.943" width="8.21768" height="8.21768" transform="rotate(180 74.5573 131.943)" fill="#1C1C1C"/>
<rect x="17.0336" y="123.725" width="8.21768" height="8.21768" transform="rotate(-90 17.0336 123.725)" fill="#1C1C1C"/>
<rect x="17.0336" y="115.508" width="8.21768" height="8.21768" transform="rotate(-90 17.0336 115.508)" fill="#1C1C1C"/>
<rect x="17.0336" y="131.943" width="8.21768" height="8.21768" transform="rotate(-90 17.0336 131.943)" fill="#1C1C1C"/>
</svg>
