<svg width="132" height="140" viewBox="0 0 132 140" fill="none" xmlns="http://www.w3.org/2000/svg">
<rect x="24.6531" y="57.5237" width="8.21768" height="8.21768" fill="#FFFED9"/>
<rect x="32.8708" y="57.5237" width="8.21768" height="8.21768" fill="#FFFED9"/>
<rect x="41.0884" y="57.5237" width="8.21768" height="8.21768" fill="#FFFED9"/>
<rect x="49.3062" y="57.5237" width="8.21768" height="8.21768" fill="#FFFED9"/>
<rect x="57.5239" y="57.5237" width="8.21768" height="8.21768" fill="#FFFED9"/>
<rect x="65.7415" y="57.5237" width="8.21768" height="8.21768" fill="#FFFED9"/>
<rect x="73.9592" y="57.5237" width="8.21768" height="8.21768" fill="#FFFED9"/>
<rect x="82.1768" y="57.5237" width="8.21768" height="8.21768" fill="#FFFED9"/>
<rect x="90.3945" y="57.5237" width="8.21768" height="8.21768" fill="#FFFED9"/>
<rect x="73.9592" y="65.7415" width="8.21768" height="8.21768" fill="#FFFED9"/>
<rect x="82.1768" y="65.7415" width="8.21768" height="8.21768" fill="#FFFED9"/>
<rect x="90.3945" y="65.7415" width="8.21768" height="8.21768" fill="#FFFED9"/>
<rect x="49.3062" y="65.7415" width="8.21768" height="8.21768" fill="#FFFED9"/>
<rect x="57.5239" y="65.7415" width="8.21768" height="8.21768" fill="#FFFED9"/>
<rect x="65.7415" y="65.7415" width="8.21768" height="8.21768" fill="#FFFED9"/>
<rect x="32.8708" y="73.959" width="8.21768" height="8.21768" fill="#FFFED9"/>
<rect x="41.0884" y="73.959" width="8.21768" height="8.21768" fill="#FFFED9"/>
<rect x="49.3062" y="73.959" width="8.21768" height="8.21768" fill="#FFFED9"/>
<rect x="57.5239" y="73.959" width="8.21768" height="8.21768" fill="#FFFED9"/>
<rect x="65.7415" y="73.959" width="8.21768" height="8.21768" fill="#FFFED9"/>
<rect x="73.9592" y="73.959" width="8.21768" height="8.21768" fill="#FFFED9"/>
<rect x="90.3945" y="73.959" width="8.21768" height="8.21768" transform="rotate(90 90.3945 73.959)" fill="#FFFED9"/>
<rect x="90.3945" y="82.1768" width="8.21768" height="8.21768" transform="rotate(90 90.3945 82.1768)" fill="#FFFED9"/>
<rect x="90.3945" y="90.3943" width="8.21768" height="8.21768" transform="rotate(90 90.3945 90.3943)" fill="#FFFED9"/>
<rect x="115.048" y="73.959" width="8.21768" height="8.21768" transform="rotate(90 115.048 73.959)" fill="#FFFED9"/>
<rect x="115.048" y="82.1768" width="8.21768" height="8.21768" transform="rotate(90 115.048 82.1768)" fill="#FFFED9"/>
<rect x="115.048" y="90.3943" width="8.21768" height="8.21768" transform="rotate(90 115.048 90.3943)" fill="#FFFED9"/>
<rect x="73.9592" y="32.8706" width="8.21768" height="8.21768" transform="rotate(90 73.9592 32.8706)" fill="#FFFED9"/>
<rect x="73.9592" y="41.0884" width="8.21768" height="8.21768" transform="rotate(90 73.9592 41.0884)" fill="#FFFED9"/>
<rect x="73.9592" y="49.3059" width="8.21768" height="8.21768" transform="rotate(90 73.9592 49.3059)" fill="#FFFED9"/>
<rect x="57.5239" y="32.8706" width="8.21768" height="8.21768" transform="rotate(90 57.5239 32.8706)" fill="#FFFED9"/>
<rect x="57.5239" y="41.0884" width="8.21768" height="8.21768" transform="rotate(90 57.5239 41.0884)" fill="#FFFED9"/>
<rect x="57.5239" y="49.3059" width="8.21768" height="8.21768" transform="rotate(90 57.5239 49.3059)" fill="#FFFED9"/>
<rect x="65.7415" y="24.6531" width="8.21768" height="8.21768" transform="rotate(90 65.7415 24.6531)" fill="#FFFED9"/>
<rect x="65.7415" y="32.8706" width="8.21768" height="8.21768" transform="rotate(90 65.7415 32.8706)" fill="#FFFED9"/>
<rect x="65.7415" y="41.0884" width="8.21768" height="8.21768" transform="rotate(90 65.7415 41.0884)" fill="#FFFED9"/>
<rect x="32.8708" y="82.1768" width="8.21768" height="8.21768" transform="rotate(90 32.8708 82.1768)" fill="#FFFED9"/>
<rect x="32.8708" y="90.3943" width="8.21768" height="8.21768" transform="rotate(90 32.8708 90.3943)" fill="#FFFED9"/>
<rect x="32.8708" y="98.6121" width="8.21768" height="8.21768" transform="rotate(90 32.8708 98.6121)" fill="#FFFED9"/>
<rect x="41.0884" y="82.1768" width="8.21768" height="8.21768" transform="rotate(90 41.0884 82.1768)" fill="#FFFED9"/>
<rect x="41.0884" y="90.3943" width="8.21768" height="8.21768" transform="rotate(90 41.0884 90.3943)" fill="#FFFED9"/>
<rect x="41.0884" y="98.6121" width="8.21768" height="8.21768" transform="rotate(90 41.0884 98.6121)" fill="#FFFED9"/>
<rect x="49.3062" y="82.1768" width="8.21768" height="8.21768" transform="rotate(90 49.3062 82.1768)" fill="#FFFED9"/>
<rect x="49.3062" y="90.3943" width="8.21768" height="8.21768" transform="rotate(90 49.3062 90.3943)" fill="#FFFED9"/>
<rect x="49.3062" y="98.6121" width="8.21768" height="8.21768" transform="rotate(90 49.3062 98.6121)" fill="#FFFED9"/>
<rect x="57.5239" y="82.1768" width="8.21768" height="8.21768" transform="rotate(90 57.5239 82.1768)" fill="#FFFED9"/>
<rect x="57.5239" y="90.3943" width="8.21768" height="8.21768" transform="rotate(90 57.5239 90.3943)" fill="#FFFED9"/>
<rect x="57.5239" y="98.6121" width="8.21768" height="8.21768" transform="rotate(90 57.5239 98.6121)" fill="#FFFED9"/>
<rect x="65.7415" y="82.1768" width="8.21768" height="8.21768" transform="rotate(90 65.7415 82.1768)" fill="#FFFED9"/>
<rect x="65.7415" y="90.3943" width="8.21768" height="8.21768" transform="rotate(90 65.7415 90.3943)" fill="#FFFED9"/>
<rect x="65.7415" y="98.6121" width="8.21768" height="8.21768" transform="rotate(90 65.7415 98.6121)" fill="#FFFED9"/>
<rect x="73.9592" y="82.1768" width="8.21768" height="8.21768" transform="rotate(90 73.9592 82.1768)" fill="#FFFED9"/>
<rect x="73.9592" y="90.3943" width="8.21768" height="8.21768" transform="rotate(90 73.9592 90.3943)" fill="#FFFED9"/>
<rect x="73.9592" y="98.6121" width="8.21768" height="8.21768" transform="rotate(90 73.9592 98.6121)" fill="#FFFED9"/>
<rect x="82.1768" y="98.6121" width="8.21768" height="8.21768" transform="rotate(90 82.1768 98.6121)" fill="#FFFED9"/>
<rect x="82.1768" y="106.83" width="8.21768" height="8.21768" transform="rotate(90 82.1768 106.83)" fill="#FFFED9"/>
<rect x="82.1768" y="115.047" width="8.21768" height="8.21768" transform="rotate(90 82.1768 115.047)" fill="#FFFED9"/>
<rect x="90.3945" y="98.6121" width="8.21768" height="8.21768" transform="rotate(90 90.3945 98.6121)" fill="#FFFED9"/>
<rect x="90.3945" y="106.83" width="8.21768" height="8.21768" transform="rotate(90 90.3945 106.83)" fill="#FFFED9"/>
<rect x="90.3945" y="115.047" width="8.21768" height="8.21768" transform="rotate(90 90.3945 115.047)" fill="#FFFED9"/>
<rect x="98.6123" y="98.6121" width="8.21768" height="8.21768" transform="rotate(90 98.6123 98.6121)" fill="#FFFED9"/>
<rect x="98.6123" y="106.83" width="8.21768" height="8.21768" transform="rotate(90 98.6123 106.83)" fill="#FFFED9"/>
<rect x="98.6123" y="115.047" width="8.21768" height="8.21768" transform="rotate(90 98.6123 115.047)" fill="#FFFED9"/>
<rect x="57.5239" y="106.83" width="8.21768" height="8.21768" transform="rotate(90 57.5239 106.83)" fill="#FFFED9"/>
<rect x="57.5239" y="115.047" width="8.21768" height="8.21768" transform="rotate(90 57.5239 115.047)" fill="#FFFED9"/>
<rect x="65.7415" y="106.83" width="8.21768" height="8.21768" transform="rotate(90 65.7415 106.83)" fill="#FFFED9"/>
<rect x="65.7415" y="115.047" width="8.21768" height="8.21768" transform="rotate(90 65.7415 115.047)" fill="#FFFED9"/>
<rect x="73.9592" y="106.83" width="8.21768" height="8.21768" transform="rotate(90 73.9592 106.83)" fill="#FFFED9"/>
<rect x="73.9592" y="115.047" width="8.21768" height="8.21768" transform="rotate(90 73.9592 115.047)" fill="#FFFED9"/>
<rect x="82.1768" y="82.1768" width="8.21768" height="8.21768" transform="rotate(90 82.1768 82.1768)" fill="#FFFED9"/>
<rect x="82.1768" y="90.3943" width="8.21768" height="8.21768" transform="rotate(90 82.1768 90.3943)" fill="#FFFED9"/>
<rect x="115.048" y="65.7415" width="8.21768" height="8.21768" transform="rotate(180 115.048 65.7415)" fill="#FFFED9"/>
<rect x="106.83" y="65.7415" width="8.21768" height="8.21768" transform="rotate(180 106.83 65.7415)" fill="#FFFED9"/>
<rect x="49.3062" y="73.959" width="8.21768" height="8.21768" transform="rotate(180 49.3062 73.959)" fill="#FFFED9"/>
<rect x="41.0884" y="73.959" width="8.21768" height="8.21768" transform="rotate(180 41.0884 73.959)" fill="#FFFED9"/>
<rect x="24.6531" y="98.6121" width="8.21768" height="8.21768" transform="rotate(180 24.6531 98.6121)" fill="#FFFED9"/>
<rect x="16.4355" y="98.6121" width="8.21768" height="8.21768" transform="rotate(180 16.4355 98.6121)" fill="#FFFED9"/>
<rect x="49.3062" y="131.483" width="8.21768" height="8.21768" transform="rotate(180 49.3062 131.483)" fill="#FFFED9"/>
<rect x="41.0884" y="131.483" width="8.21768" height="8.21768" transform="rotate(180 41.0884 131.483)" fill="#FFFED9"/>
<rect x="73.9592" y="24.6531" width="8.21768" height="8.21768" transform="rotate(180 73.9592 24.6531)" fill="#FFFED9"/>
<rect x="73.9592" y="32.8706" width="8.21768" height="8.21768" transform="rotate(180 73.9592 32.8706)" fill="#FFFED9"/>
<rect x="98.6123" y="98.6121" width="8.21768" height="8.21768" transform="rotate(180 98.6123 98.6121)" fill="#FFFED9"/>
<rect x="123.265" y="90.3943" width="8.21768" height="8.21768" transform="rotate(180 123.265 90.3943)" fill="#FFFED9"/>
<rect x="123.265" y="98.6121" width="8.21768" height="8.21768" transform="rotate(180 123.265 98.6121)" fill="#FFFED9"/>
<rect x="106.83" y="123.265" width="8.21768" height="8.21768" transform="rotate(180 106.83 123.265)" fill="#FFFED9"/>
<rect x="90.3945" y="131.483" width="8.21768" height="8.21768" transform="rotate(180 90.3945 131.483)" fill="#FFFED9"/>
<rect x="65.7415" y="24.6531" width="8.21768" height="8.21768" transform="rotate(180 65.7415 24.6531)" fill="#FFFED9"/>
<rect x="32.8708" y="106.83" width="8.21768" height="8.21768" transform="rotate(90 32.8708 106.83)" fill="#FFFED9"/>
<rect x="32.8708" y="115.047" width="8.21768" height="8.21768" transform="rotate(90 32.8708 115.047)" fill="#FFFED9"/>
<rect x="41.0884" y="106.83" width="8.21768" height="8.21768" transform="rotate(90 41.0884 106.83)" fill="#FFFED9"/>
<rect x="41.0884" y="115.047" width="8.21768" height="8.21768" transform="rotate(90 41.0884 115.047)" fill="#FFFED9"/>
<rect x="49.3062" y="106.83" width="8.21768" height="8.21768" transform="rotate(90 49.3062 106.83)" fill="#FFFED9"/>
<rect x="49.3062" y="115.047" width="8.21768" height="8.21768" transform="rotate(90 49.3062 115.047)" fill="#FFFED9"/>
<rect x="16.4355" y="57.5237" width="8.21768" height="8.21768" fill="#FFE08C"/>
<rect x="16.4355" y="73.959" width="8.21768" height="8.21768" fill="#FFE08C"/>
<rect x="16.4355" y="82.1768" width="8.21768" height="8.21768" fill="#FFE08C"/>
<rect x="8.21777" y="82.1768" width="8.21768" height="8.21768" fill="#FFE08C"/>
<rect x="98.6123" y="123.265" width="8.21768" height="8.21768" fill="#FFE08C"/>
<rect x="90.3945" y="123.265" width="8.21768" height="8.21768" fill="#FFE08C"/>
<rect x="24.6531" y="24.6531" width="8.21768" height="8.21768" fill="#91CA35"/>
<rect x="32.8708" y="24.6531" width="8.21768" height="8.21768" fill="#91CA35"/>
<rect x="41.0884" y="24.6531" width="8.21768" height="8.21768" fill="#91CA35"/>
<rect x="24.6531" y="32.8706" width="8.21768" height="8.21768" fill="#91CA35"/>
<rect x="32.8708" y="32.8706" width="8.21768" height="8.21768" fill="#91CA35"/>
<rect x="41.0884" y="32.8706" width="8.21768" height="8.21768" fill="#91CA35"/>
<rect x="49.3062" y="24.6531" width="8.21768" height="8.21768" fill="#91CA35"/>
<rect x="41.0884" y="8.21753" width="8.21768" height="8.21768" fill="#91CA35"/>
<rect x="32.8708" y="16.4353" width="8.21768" height="8.21768" fill="#91CA35"/>
<rect x="41.0884" y="16.4353" width="8.21768" height="8.21768" fill="#91CA35"/>
<rect x="49.3062" y="16.4353" width="8.21768" height="8.21768" fill="#91CA35"/>
<rect x="90.3945" y="82.1768" width="8.21768" height="8.21768" fill="#91CA35"/>
<rect x="98.6123" y="82.1768" width="8.21768" height="8.21768" fill="#91CA35"/>
<rect x="98.6123" y="90.3943" width="8.21768" height="8.21768" fill="#91CA35"/>
<rect x="90.3945" y="73.959" width="8.21768" height="8.21768" fill="#91CA35"/>
<rect x="24.6531" y="123.265" width="8.21768" height="8.21768" fill="#91CA35"/>
<rect x="98.6123" y="73.959" width="8.21768" height="8.21768" fill="#91CA35"/>
<rect x="16.4355" y="41.0884" width="8.21768" height="8.21768" fill="#91CA35"/>
<rect x="24.6531" y="41.0884" width="8.21768" height="8.21768" fill="#91CA35"/>
<rect x="32.8708" y="41.0884" width="8.21768" height="8.21768" fill="#91CA35"/>
<rect x="16.4355" y="49.3059" width="8.21768" height="8.21768" fill="#91CA35"/>
<rect x="24.6531" y="49.3059" width="8.21768" height="8.21768" fill="#91CA35"/>
<rect x="32.8708" y="49.3059" width="8.21768" height="8.21768" fill="#91CA35"/>
<rect x="73.9592" y="16.4353" width="8.21768" height="8.21768" fill="#E28001"/>
<rect x="82.1768" y="16.4353" width="8.21768" height="8.21768" fill="#E28001"/>
<rect x="73.9592" y="24.6531" width="8.21768" height="8.21768" fill="#E28001"/>
<rect x="82.1768" y="24.6531" width="8.21768" height="8.21768" fill="#E28001"/>
<rect x="73.9592" y="32.8706" width="8.21768" height="8.21768" fill="#E28001"/>
<rect x="82.1768" y="32.8706" width="8.21768" height="8.21768" fill="#E28001"/>
<rect x="82.1768" y="41.0884" width="8.21768" height="8.21768" fill="#E28001"/>
<rect x="90.3945" y="41.0884" width="8.21768" height="8.21768" fill="#E28001"/>
<rect x="98.6123" y="41.0884" width="8.21768" height="8.21768" fill="#E28001"/>
<rect x="106.83" y="41.0884" width="8.21768" height="8.21768" fill="#E28001"/>
<rect x="98.6123" y="49.3059" width="8.21768" height="8.21768" fill="#E28001"/>
<rect x="24.6531" y="73.959" width="8.21768" height="8.21768" fill="#E28001"/>
<rect x="106.83" y="106.83" width="8.21768" height="8.21768" fill="#E28001"/>
<rect x="106.83" y="115.047" width="8.21768" height="8.21768" fill="#E28001"/>
<rect x="98.6123" y="98.6121" width="8.21768" height="8.21768" fill="#E28001"/>
<rect x="98.6123" y="106.83" width="8.21768" height="8.21768" fill="#E28001"/>
<rect x="106.83" y="49.3059" width="8.21768" height="8.21768" fill="#E28001"/>
<rect x="82.1768" y="49.3059" width="8.21768" height="8.21768" fill="#E28001"/>
<rect x="90.3945" y="49.3059" width="8.21768" height="8.21768" fill="#E28001"/>
<rect x="90.3945" y="24.6531" width="8.21768" height="8.21768" fill="#E28001"/>
<rect x="98.6123" y="24.6531" width="8.21768" height="8.21768" fill="#E28001"/>
<rect x="90.3945" y="32.8706" width="8.21768" height="8.21768" fill="#E28001"/>
<rect x="98.6123" y="32.8706" width="8.21768" height="8.21768" fill="#E28001"/>
<rect x="82.1768" y="8.21753" width="8.21768" height="8.21768" fill="#E28001"/>
<rect x="90.3945" y="16.4353" width="8.21768" height="8.21768" fill="#E28001"/>
<rect x="32.8708" y="8.21753" width="8.21768" height="8.21768" fill="#DA806E"/>
<rect x="90.3945" y="8.21753" width="8.21768" height="8.21768" fill="#DA806E"/>
<rect x="32.8708" width="8.21768" height="8.21768" fill="#1C1C1C"/>
<rect x="106.83" y="123.265" width="8.21768" height="8.21768" fill="#1C1C1C"/>
<rect x="8.21777" y="73.959" width="8.21768" height="8.21768" fill="#1C1C1C"/>
<rect x="41.0884" width="8.21768" height="8.21768" fill="#1C1C1C"/>
<rect x="49.3062" y="8.21753" width="8.21768" height="8.21768" fill="#1C1C1C"/>
<rect x="57.5239" y="8.21753" width="8.21768" height="8.21768" fill="#1C1C1C"/>
<rect x="16.4355" y="65.7415" width="8.21768" height="8.21768" fill="#1C1C1C"/>
<rect x="24.6531" y="65.7415" width="8.21768" height="8.21768" fill="#1C1C1C"/>
<rect x="8.21777" y="98.6121" width="8.21768" height="8.21768" fill="#1C1C1C"/>
<rect x="16.4355" y="98.6121" width="8.21768" height="8.21768" fill="#1C1C1C"/>
<rect x="106.83" y="98.6121" width="8.21768" height="8.21768" fill="#1C1C1C"/>
<rect x="115.048" y="98.6121" width="8.21768" height="8.21768" fill="#1C1C1C"/>
<rect x="98.6123" y="65.7415" width="8.21768" height="8.21768" fill="#1C1C1C"/>
<rect x="106.83" y="65.7415" width="8.21768" height="8.21768" fill="#1C1C1C"/>
<rect x="65.7415" y="8.21753" width="8.21768" height="8.21768" fill="#1C1C1C"/>
<rect x="73.9592" y="8.21753" width="8.21768" height="8.21768" fill="#1C1C1C"/>
<rect x="82.1768" width="8.21768" height="8.21768" fill="#1C1C1C"/>
<rect x="90.3945" width="8.21768" height="8.21768" fill="#1C1C1C"/>
<rect x="106.83" y="8.21753" width="8.21768" height="8.21768" transform="rotate(90 106.83 8.21753)" fill="#1C1C1C"/>
<rect x="106.83" y="16.4353" width="8.21768" height="8.21768" transform="rotate(90 106.83 16.4353)" fill="#1C1C1C"/>
<rect x="49.3062" y="41.0884" width="8.21768" height="8.21768" transform="rotate(90 49.3062 41.0884)" fill="#1C1C1C"/>
<rect x="49.3062" y="49.3059" width="8.21768" height="8.21768" transform="rotate(90 49.3062 49.3059)" fill="#1C1C1C"/>
<rect x="82.1768" y="41.0884" width="8.21768" height="8.21768" transform="rotate(90 82.1768 41.0884)" fill="#1C1C1C"/>
<rect x="82.1768" y="49.3059" width="8.21768" height="8.21768" transform="rotate(90 82.1768 49.3059)" fill="#1C1C1C"/>
<rect x="65.7415" y="49.3059" width="8.21768" height="8.21768" transform="rotate(90 65.7415 49.3059)" fill="#1C1C1C"/>
<rect x="32.8708" y="8.21753" width="8.21768" height="8.21768" transform="rotate(90 32.8708 8.21753)" fill="#1C1C1C"/>
<rect x="32.8708" y="16.4353" width="8.21768" height="8.21768" transform="rotate(90 32.8708 16.4353)" fill="#1C1C1C"/>
<rect x="8.21777" y="82.1768" width="8.21768" height="8.21768" transform="rotate(90 8.21777 82.1768)" fill="#1C1C1C"/>
<rect x="8.21777" y="90.3943" width="8.21768" height="8.21768" transform="rotate(90 8.21777 90.3943)" fill="#1C1C1C"/>
<rect width="8.21768" height="8.21768" transform="matrix(-1 0 0 1 123.265 73.959)" fill="#1C1C1C"/>
<rect width="8.21768" height="8.21768" transform="matrix(0 1 1 0 123.265 82.1768)" fill="#1C1C1C"/>
<rect width="8.21768" height="8.21768" transform="matrix(0 1 1 0 123.265 90.3943)" fill="#1C1C1C"/>
<rect x="24.6531" y="24.6531" width="8.21768" height="8.21768" transform="rotate(90 24.6531 24.6531)" fill="#1C1C1C"/>
<rect x="24.6531" y="32.8706" width="8.21768" height="8.21768" transform="rotate(90 24.6531 32.8706)" fill="#1C1C1C"/>
<rect x="115.048" y="24.6531" width="8.21768" height="8.21768" transform="rotate(90 115.048 24.6531)" fill="#1C1C1C"/>
<rect x="115.048" y="32.8706" width="8.21768" height="8.21768" transform="rotate(90 115.048 32.8706)" fill="#1C1C1C"/>
<rect x="123.265" y="57.5237" width="8.21768" height="8.21768" transform="rotate(90 123.265 57.5237)" fill="#1C1C1C"/>
<rect x="123.265" y="41.0884" width="8.21768" height="8.21768" transform="rotate(90 123.265 41.0884)" fill="#1C1C1C"/>
<rect x="123.265" y="49.3059" width="8.21768" height="8.21768" transform="rotate(90 123.265 49.3059)" fill="#1C1C1C"/>
<rect x="123.265" y="115.047" width="8.21768" height="8.21768" transform="rotate(90 123.265 115.047)" fill="#1C1C1C"/>
<rect x="123.265" y="106.83" width="8.21768" height="8.21768" transform="rotate(90 123.265 106.83)" fill="#1C1C1C"/>
<rect x="16.4355" y="57.5237" width="8.21768" height="8.21768" transform="rotate(90 16.4355 57.5237)" fill="#1C1C1C"/>
<rect x="16.4355" y="41.0884" width="8.21768" height="8.21768" transform="rotate(90 16.4355 41.0884)" fill="#1C1C1C"/>
<rect x="16.4355" y="49.3059" width="8.21768" height="8.21768" transform="rotate(90 16.4355 49.3059)" fill="#1C1C1C"/>
<rect x="90.3945" y="139.7" width="8.21768" height="8.21768" transform="rotate(180 90.3945 139.7)" fill="#1C1C1C"/>
<rect x="106.83" y="139.7" width="8.21768" height="8.21768" transform="rotate(180 106.83 139.7)" fill="#1C1C1C"/>
<rect x="98.6123" y="139.7" width="8.21768" height="8.21768" transform="rotate(180 98.6123 139.7)" fill="#1C1C1C"/>
<rect x="32.8708" y="139.7" width="8.21768" height="8.21768" transform="rotate(180 32.8708 139.7)" fill="#1C1C1C"/>
<rect x="49.3062" y="139.7" width="8.21768" height="8.21768" transform="rotate(180 49.3062 139.7)" fill="#1C1C1C"/>
<rect x="41.0884" y="139.7" width="8.21768" height="8.21768" transform="rotate(180 41.0884 139.7)" fill="#1C1C1C"/>
<rect x="65.7415" y="131.483" width="8.21768" height="8.21768" transform="rotate(180 65.7415 131.483)" fill="#1C1C1C"/>
<rect x="57.5239" y="131.483" width="8.21768" height="8.21768" transform="rotate(180 57.5239 131.483)" fill="#1C1C1C"/>
<rect x="82.1768" y="131.483" width="8.21768" height="8.21768" transform="rotate(180 82.1768 131.483)" fill="#1C1C1C"/>
<rect x="73.9592" y="131.483" width="8.21768" height="8.21768" transform="rotate(180 73.9592 131.483)" fill="#1C1C1C"/>
<rect x="16.4355" y="123.265" width="8.21768" height="8.21768" transform="rotate(-90 16.4355 123.265)" fill="#1C1C1C"/>
<rect x="16.4355" y="115.047" width="8.21768" height="8.21768" transform="rotate(-90 16.4355 115.047)" fill="#1C1C1C"/>
<rect x="16.4355" y="131.483" width="8.21768" height="8.21768" transform="rotate(-90 16.4355 131.483)" fill="#1C1C1C"/>
</svg>
