<svg width="133" height="140" viewBox="0 0 133 140" fill="none" xmlns="http://www.w3.org/2000/svg">
<rect x="33.4689" y="24.6992" width="8.21768" height="8.21768" transform="rotate(90 33.4689 24.6992)" fill="#4C5153"/>
<rect x="33.4689" y="32.917" width="8.21768" height="8.21768" transform="rotate(90 33.4689 32.917)" fill="#4C5153"/>
<rect x="33.4689" y="41.1348" width="8.21768" height="8.21768" transform="rotate(90 33.4689 41.1348)" fill="#4C5153"/>
<rect x="49.9043" y="8.26392" width="8.21768" height="8.21768" transform="rotate(90 49.9043 8.26392)" fill="#4C5153"/>
<rect x="49.9043" y="16.4817" width="8.21768" height="8.21768" transform="rotate(90 49.9043 16.4817)" fill="#4C5153"/>
<rect x="49.9043" y="24.6992" width="8.21768" height="8.21768" transform="rotate(90 49.9043 24.6992)" fill="#4C5153"/>
<rect x="49.9043" y="32.917" width="8.21768" height="8.21768" transform="rotate(90 49.9043 32.917)" fill="#4C5153"/>
<rect x="58.1219" y="16.4817" width="8.21768" height="8.21768" transform="rotate(90 58.1219 16.4817)" fill="#4C5153"/>
<rect x="58.1219" y="24.6992" width="8.21768" height="8.21768" transform="rotate(90 58.1219 24.6992)" fill="#4C5153"/>
<rect x="41.6865" y="16.4817" width="8.21768" height="8.21768" transform="rotate(90 41.6865 16.4817)" fill="#4C5153"/>
<rect x="41.6865" y="24.6992" width="8.21768" height="8.21768" transform="rotate(90 41.6865 24.6992)" fill="#4C5153"/>
<rect x="41.6865" y="32.917" width="8.21768" height="8.21768" transform="rotate(90 41.6865 32.917)" fill="#4C5153"/>
<rect x="41.6865" y="41.1348" width="8.21768" height="8.21768" transform="rotate(90 41.6865 41.1348)" fill="#4C5153"/>
<rect x="25.2512" y="41.1348" width="8.21768" height="8.21768" transform="rotate(90 25.2512 41.1348)" fill="#4C5153"/>
<rect x="25.2512" y="49.3523" width="8.21768" height="8.21768" transform="rotate(90 25.2512 49.3523)" fill="#4C5153"/>
<rect x="90.9927" y="8.26392" width="8.21768" height="8.21768" transform="rotate(90 90.9927 8.26392)" fill="#4C5153"/>
<rect x="90.9927" y="16.4817" width="8.21768" height="8.21768" transform="rotate(90 90.9927 16.4817)" fill="#4C5153"/>
<rect x="90.9927" y="24.6992" width="8.21768" height="8.21768" transform="rotate(90 90.9927 24.6992)" fill="#4C5153"/>
<rect x="99.2102" y="16.4817" width="8.21768" height="8.21768" transform="rotate(90 99.2102 16.4817)" fill="#4C5153"/>
<rect x="99.2102" y="24.6992" width="8.21768" height="8.21768" transform="rotate(90 99.2102 24.6992)" fill="#4C5153"/>
<rect x="99.2102" y="32.917" width="8.21768" height="8.21768" transform="rotate(90 99.2102 32.917)" fill="#4C5153"/>
<rect x="107.428" y="24.6992" width="8.21768" height="8.21768" transform="rotate(90 107.428 24.6992)" fill="#4C5153"/>
<rect x="90.9927" y="49.3523" width="8.21768" height="8.21768" transform="rotate(90 90.9927 49.3523)" fill="#4C5153"/>
<rect x="99.2102" y="49.3523" width="8.21768" height="8.21768" transform="rotate(90 99.2102 49.3523)" fill="#4C5153"/>
<rect x="90.9927" y="41.1348" width="8.21768" height="8.21768" transform="rotate(90 90.9927 41.1348)" fill="#4C5153"/>
<rect x="99.2102" y="41.1348" width="8.21768" height="8.21768" transform="rotate(90 99.2102 41.1348)" fill="#4C5153"/>
<rect x="107.428" y="49.3523" width="8.21768" height="8.21768" transform="rotate(90 107.428 49.3523)" fill="#4C5153"/>
<rect x="74.5573" y="32.917" width="8.21768" height="8.21768" transform="rotate(90 74.5573 32.917)" fill="#4C5153"/>
<rect x="74.5573" y="41.1348" width="8.21768" height="8.21768" transform="rotate(90 74.5573 41.1348)" fill="#4C5153"/>
<rect x="82.7749" y="32.917" width="8.21768" height="8.21768" transform="rotate(90 82.7749 32.917)" fill="#4C5153"/>
<rect x="90.9927" y="32.917" width="8.21768" height="8.21768" transform="rotate(90 90.9927 32.917)" fill="#4C5153"/>
<rect x="74.5573" y="16.4817" width="8.21768" height="8.21768" transform="rotate(90 74.5573 16.4817)" fill="#4C5153"/>
<rect x="82.7749" y="16.4817" width="8.21768" height="8.21768" transform="rotate(90 82.7749 16.4817)" fill="#4C5153"/>
<rect x="82.7749" y="24.6992" width="8.21768" height="8.21768" transform="rotate(90 82.7749 24.6992)" fill="#4C5153"/>
<rect x="74.5573" y="24.6992" width="8.21768" height="8.21768" transform="rotate(90 74.5573 24.6992)" fill="#4C5153"/>
<rect x="107.428" y="32.917" width="8.21768" height="8.21768" transform="rotate(90 107.428 32.917)" fill="#4C5153"/>
<rect x="107.428" y="41.1348" width="8.21768" height="8.21768" transform="rotate(90 107.428 41.1348)" fill="#4C5153"/>
<rect x="115.646" y="41.1348" width="8.21768" height="8.21768" transform="rotate(90 115.646 41.1348)" fill="#4C5153"/>
<rect x="115.646" y="49.3523" width="8.21768" height="8.21768" transform="rotate(90 115.646 49.3523)" fill="#4C5153"/>
<rect x="115.646" y="74.0054" width="8.21768" height="8.21768" transform="rotate(90 115.646 74.0054)" fill="#4C5153"/>
<rect x="107.428" y="82.2231" width="8.21768" height="8.21768" transform="rotate(90 107.428 82.2231)" fill="#4C5153"/>
<rect x="107.428" y="90.4407" width="8.21768" height="8.21768" transform="rotate(90 107.428 90.4407)" fill="#4C5153"/>
<rect x="33.4689" y="82.2231" width="8.21768" height="8.21768" transform="rotate(90 33.4689 82.2231)" fill="#4C5153"/>
<rect x="25.2512" y="74.0054" width="8.21768" height="8.21768" transform="rotate(90 25.2512 74.0054)" fill="#4C5153"/>
<rect x="33.4689" y="90.4407" width="8.21768" height="8.21768" transform="rotate(90 33.4689 90.4407)" fill="#4C5153"/>
<rect x="17.0336" y="57.5701" width="8.21768" height="8.21768" fill="#FEF6D8"/>
<rect x="25.2512" y="57.5701" width="8.21768" height="8.21768" fill="#FEF6D8"/>
<rect x="33.4689" y="57.5701" width="8.21768" height="8.21768" fill="#FEF6D8"/>
<rect x="25.2512" y="49.3523" width="8.21768" height="8.21768" fill="#FEF6D8"/>
<rect x="33.4689" y="49.3523" width="8.21768" height="8.21768" fill="#FEF6D8"/>
<rect x="49.9043" y="32.917" width="8.21768" height="8.21768" fill="#FEF6D8"/>
<rect x="58.1219" y="32.917" width="8.21768" height="8.21768" fill="#FEF6D8"/>
<rect x="66.3396" y="16.4817" width="8.21768" height="8.21768" transform="rotate(90 66.3396 16.4817)" fill="#FEF6D8"/>
<rect x="66.3396" y="24.6992" width="8.21768" height="8.21768" transform="rotate(90 66.3396 24.6992)" fill="#FEF6D8"/>
<rect x="66.3396" y="41.1348" width="8.21768" height="8.21768" transform="rotate(90 66.3396 41.1348)" fill="#FEF6D8"/>
<rect x="74.5573" y="49.3523" width="8.21768" height="8.21768" transform="rotate(90 74.5573 49.3523)" fill="#FEF6D8"/>
<rect x="58.1219" y="41.1348" width="8.21768" height="8.21768" transform="rotate(90 58.1219 41.1348)" fill="#FEF6D8"/>
<rect x="58.1219" y="49.3523" width="8.21768" height="8.21768" transform="rotate(90 58.1219 49.3523)" fill="#FEF6D8"/>
<rect x="41.6865" y="57.5701" width="8.21768" height="8.21768" fill="#FEF6D8"/>
<rect x="49.9043" y="57.5701" width="8.21768" height="8.21768" fill="#FEF6D8"/>
<rect x="58.1219" y="57.5701" width="8.21768" height="8.21768" fill="#FEF6D8"/>
<rect x="66.3396" y="57.5701" width="8.21768" height="8.21768" fill="#FEF6D8"/>
<rect x="74.5573" y="57.5701" width="8.21768" height="8.21768" fill="#FEF6D8"/>
<rect x="82.7749" y="57.5701" width="8.21768" height="8.21768" fill="#FEF6D8"/>
<rect x="33.4689" y="65.7876" width="8.21768" height="8.21768" fill="#FEF6D8"/>
<rect x="41.6865" y="65.7876" width="8.21768" height="8.21768" fill="#FEF6D8"/>
<rect x="49.9043" y="65.7876" width="8.21768" height="8.21768" fill="#FEF6D8"/>
<rect x="58.1219" y="65.7876" width="8.21768" height="8.21768" fill="#FEF6D8"/>
<rect x="66.3396" y="65.7876" width="8.21768" height="8.21768" fill="#FEF6D8"/>
<rect x="74.5573" y="65.7876" width="8.21768" height="8.21768" fill="#FEF6D8"/>
<rect x="82.7749" y="65.7876" width="8.21768" height="8.21768" fill="#FEF6D8"/>
<rect x="90.9927" y="65.7876" width="8.21768" height="8.21768" fill="#FEF6D8"/>
<rect x="33.4689" y="74.0054" width="8.21768" height="8.21768" fill="#FEF6D8"/>
<rect x="41.6865" y="74.0054" width="8.21768" height="8.21768" fill="#FEF6D8"/>
<rect x="49.9043" y="74.0054" width="8.21768" height="8.21768" fill="#FEF6D8"/>
<rect x="58.1219" y="74.0054" width="8.21768" height="8.21768" fill="#FEF6D8"/>
<rect x="66.3396" y="74.0054" width="8.21768" height="8.21768" fill="#FEF6D8"/>
<rect x="74.5573" y="74.0054" width="8.21768" height="8.21768" fill="#FEF6D8"/>
<rect x="82.7749" y="74.0054" width="8.21768" height="8.21768" fill="#FEF6D8"/>
<rect x="33.4689" y="82.2231" width="8.21768" height="8.21768" fill="#FEF6D8"/>
<rect x="41.6865" y="82.2231" width="8.21768" height="8.21768" fill="#FEF6D8"/>
<rect x="49.9043" y="82.2231" width="8.21768" height="8.21768" fill="#FEF6D8"/>
<rect x="58.1219" y="82.2231" width="8.21768" height="8.21768" fill="#FEF6D8"/>
<rect x="66.3396" y="82.2231" width="8.21768" height="8.21768" fill="#FEF6D8"/>
<rect x="74.5573" y="82.2231" width="8.21768" height="8.21768" fill="#FEF6D8"/>
<rect x="82.7749" y="82.2231" width="8.21768" height="8.21768" fill="#FEF6D8"/>
<rect x="33.4689" y="90.4407" width="8.21768" height="8.21768" fill="#FEF6D8"/>
<rect x="41.6865" y="90.4407" width="8.21768" height="8.21768" fill="#FEF6D8"/>
<rect x="49.9043" y="90.4407" width="8.21768" height="8.21768" fill="#FEF6D8"/>
<rect x="58.1219" y="90.4407" width="8.21768" height="8.21768" fill="#FEF6D8"/>
<rect x="66.3396" y="90.4407" width="8.21768" height="8.21768" fill="#FEF6D8"/>
<rect x="74.5573" y="90.4407" width="8.21768" height="8.21768" fill="#FEF6D8"/>
<rect x="82.7749" y="90.4407" width="8.21768" height="8.21768" fill="#FEF6D8"/>
<rect x="33.4689" y="98.6584" width="8.21768" height="8.21768" fill="#FEF6D8"/>
<rect x="41.6865" y="98.6584" width="8.21768" height="8.21768" fill="#FEF6D8"/>
<rect x="49.9043" y="98.6584" width="8.21768" height="8.21768" fill="#FEF6D8"/>
<rect x="58.1219" y="98.6584" width="8.21768" height="8.21768" fill="#FEF6D8"/>
<rect x="66.3396" y="98.6584" width="8.21768" height="8.21768" fill="#FEF6D8"/>
<rect x="74.5573" y="98.6584" width="8.21768" height="8.21768" fill="#FEF6D8"/>
<rect x="82.7749" y="98.6584" width="8.21768" height="8.21768" fill="#FEF6D8"/>
<rect x="33.4689" y="106.876" width="8.21768" height="8.21768" fill="#FEF6D8"/>
<rect x="41.6865" y="106.876" width="8.21768" height="8.21768" fill="#FEF6D8"/>
<rect x="49.9043" y="106.876" width="8.21768" height="8.21768" fill="#FEF6D8"/>
<rect x="58.1219" y="106.876" width="8.21768" height="8.21768" fill="#FEF6D8"/>
<rect x="66.3396" y="106.876" width="8.21768" height="8.21768" fill="#FEF6D8"/>
<rect x="90.9927" y="98.6584" width="8.21768" height="8.21768" fill="#FEF6D8"/>
<rect x="90.9927" y="106.876" width="8.21768" height="8.21768" fill="#FEF6D8"/>
<rect x="90.9927" y="115.094" width="8.21768" height="8.21768" fill="#FEF6D8"/>
<rect x="74.5573" y="106.876" width="8.21768" height="8.21768" fill="#FEF6D8"/>
<rect x="82.7749" y="106.876" width="8.21768" height="8.21768" fill="#FEF6D8"/>
<rect x="33.4689" y="115.094" width="8.21768" height="8.21768" fill="#FEF6D8"/>
<rect x="41.6865" y="115.094" width="8.21768" height="8.21768" fill="#FEF6D8"/>
<rect x="49.9043" y="115.094" width="8.21768" height="8.21768" fill="#FEF6D8"/>
<rect x="25.2512" y="115.094" width="8.21768" height="8.21768" fill="#FEF6D8"/>
<rect x="25.2512" y="123.312" width="8.21768" height="8.21768" fill="#FEF6D8"/>
<rect x="33.4689" y="123.312" width="8.21768" height="8.21768" fill="#FEF6D8"/>
<rect x="41.6865" y="123.312" width="8.21768" height="8.21768" fill="#FEF6D8"/>
<rect x="58.1219" y="115.094" width="8.21768" height="8.21768" fill="#FEF6D8"/>
<rect x="66.3396" y="115.094" width="8.21768" height="8.21768" fill="#FEF6D8"/>
<rect x="74.5573" y="115.094" width="8.21768" height="8.21768" fill="#FEF6D8"/>
<rect x="82.7749" y="115.094" width="8.21768" height="8.21768" fill="#FEF6D8"/>
<rect x="99.2102" y="115.094" width="8.21768" height="8.21768" fill="#FEF6D8"/>
<rect x="82.7749" y="123.312" width="8.21768" height="8.21768" fill="#FEF6D8"/>
<rect x="90.9927" y="123.312" width="8.21768" height="8.21768" fill="#FEF6D8"/>
<rect x="99.2102" y="123.312" width="8.21768" height="8.21768" fill="#FEF6D8"/>
<rect x="90.9927" y="57.5701" width="8.21768" height="8.21768" fill="#FEF6D8"/>
<rect x="99.2102" y="57.5701" width="8.21768" height="8.21768" fill="#FEF6D8"/>
<rect x="107.428" y="57.5701" width="8.21768" height="8.21768" fill="#FEF6D8"/>
<rect x="8.81592" y="82.2231" width="8.21768" height="8.21768" fill="#FEF6D8"/>
<rect x="17.0336" y="82.2231" width="8.21768" height="8.21768" fill="#FEF6D8"/>
<rect x="8.81592" y="90.4407" width="8.21768" height="8.21768" fill="#FEF6D8"/>
<rect x="17.0336" y="90.4407" width="8.21768" height="8.21768" fill="#FEF6D8"/>
<rect x="33.4689" y="74.0054" width="8.21768" height="8.21768" transform="rotate(90 33.4689 74.0054)" fill="#FEF6D8"/>
<rect x="107.428" y="82.2231" width="8.21768" height="8.21768" fill="#A4A091"/>
<rect x="115.646" y="82.2231" width="8.21768" height="8.21768" fill="#A4A091"/>
<rect x="107.428" y="90.4407" width="8.21768" height="8.21768" fill="#A4A091"/>
<rect x="115.646" y="90.4407" width="8.21768" height="8.21768" fill="#A4A091"/>
<rect x="90.9927" y="74.0054" width="8.21768" height="8.21768" fill="#A4A091"/>
<rect x="99.2102" y="74.0054" width="8.21768" height="8.21768" fill="#A4A091"/>
<rect x="99.2102" y="106.876" width="8.21768" height="8.21768" fill="#A4A091"/>
<rect x="107.428" y="106.876" width="8.21768" height="8.21768" fill="#A4A091"/>
<rect x="33.4689" y="98.6584" width="8.21768" height="8.21768" transform="rotate(90 33.4689 98.6584)" fill="#A4A091"/>
<rect x="33.4689" y="106.876" width="8.21768" height="8.21768" transform="rotate(90 33.4689 106.876)" fill="#A4A091"/>
<rect x="99.2102" y="82.2231" width="8.21768" height="8.21768" transform="rotate(90 99.2102 82.2231)" fill="#A4A091"/>
<rect x="99.2102" y="90.4407" width="8.21768" height="8.21768" transform="rotate(90 99.2102 90.4407)" fill="#A4A091"/>
<rect x="115.646" y="115.094" width="8.21768" height="8.21768" transform="rotate(90 115.646 115.094)" fill="#A4A091"/>
<rect x="107.428" y="98.6584" width="8.21768" height="8.21768" transform="rotate(90 107.428 98.6584)" fill="#A4A091"/>
<rect x="33.4689" y="8.26392" width="8.21768" height="8.21768" fill="#DA806E"/>
<rect x="90.9927" y="8.26392" width="8.21768" height="8.21768" fill="#DA806E"/>
<rect x="33.4689" y="0.0463867" width="8.21768" height="8.21768" fill="#1C1C1C"/>
<rect x="107.428" y="123.312" width="8.21768" height="8.21768" fill="#1C1C1C"/>
<rect x="8.81592" y="74.0054" width="8.21768" height="8.21768" fill="#1C1C1C"/>
<rect x="41.6865" y="0.0463867" width="8.21768" height="8.21768" fill="#1C1C1C"/>
<rect x="49.9043" y="8.26392" width="8.21768" height="8.21768" fill="#1C1C1C"/>
<rect x="58.1219" y="8.26392" width="8.21768" height="8.21768" fill="#1C1C1C"/>
<rect x="17.0336" y="65.7876" width="8.21768" height="8.21768" fill="#1C1C1C"/>
<rect x="25.2512" y="65.7876" width="8.21768" height="8.21768" fill="#1C1C1C"/>
<rect x="8.81592" y="98.6584" width="8.21768" height="8.21768" fill="#1C1C1C"/>
<rect x="17.0336" y="98.6584" width="8.21768" height="8.21768" fill="#1C1C1C"/>
<rect x="107.428" y="98.6584" width="8.21768" height="8.21768" fill="#1C1C1C"/>
<rect x="115.646" y="98.6584" width="8.21768" height="8.21768" fill="#1C1C1C"/>
<rect x="99.2102" y="65.7876" width="8.21768" height="8.21768" fill="#1C1C1C"/>
<rect x="107.428" y="65.7876" width="8.21768" height="8.21768" fill="#1C1C1C"/>
<rect x="66.3396" y="8.26392" width="8.21768" height="8.21768" fill="#1C1C1C"/>
<rect x="74.5573" y="8.26392" width="8.21768" height="8.21768" fill="#1C1C1C"/>
<rect x="82.7749" y="0.0463867" width="8.21768" height="8.21768" fill="#1C1C1C"/>
<rect x="90.9927" y="0.0463867" width="8.21768" height="8.21768" fill="#1C1C1C"/>
<rect x="107.428" y="8.26392" width="8.21768" height="8.21768" transform="rotate(90 107.428 8.26392)" fill="#1C1C1C"/>
<rect x="107.428" y="16.4817" width="8.21768" height="8.21768" transform="rotate(90 107.428 16.4817)" fill="#1C1C1C"/>
<rect x="49.9043" y="41.1348" width="8.21768" height="8.21768" transform="rotate(90 49.9043 41.1348)" fill="#1C1C1C"/>
<rect x="49.9043" y="49.3523" width="8.21768" height="8.21768" transform="rotate(90 49.9043 49.3523)" fill="#1C1C1C"/>
<rect x="82.7749" y="41.1348" width="8.21768" height="8.21768" transform="rotate(90 82.7749 41.1348)" fill="#1C1C1C"/>
<rect x="82.7749" y="49.3523" width="8.21768" height="8.21768" transform="rotate(90 82.7749 49.3523)" fill="#1C1C1C"/>
<rect x="66.3396" y="49.3523" width="8.21768" height="8.21768" transform="rotate(90 66.3396 49.3523)" fill="#1C1C1C"/>
<rect x="33.4689" y="8.26392" width="8.21768" height="8.21768" transform="rotate(90 33.4689 8.26392)" fill="#1C1C1C"/>
<rect x="33.4689" y="16.4817" width="8.21768" height="8.21768" transform="rotate(90 33.4689 16.4817)" fill="#1C1C1C"/>
<rect x="8.81592" y="82.2231" width="8.21768" height="8.21768" transform="rotate(90 8.81592 82.2231)" fill="#1C1C1C"/>
<rect x="8.81592" y="90.4407" width="8.21768" height="8.21768" transform="rotate(90 8.81592 90.4407)" fill="#1C1C1C"/>
<rect width="8.21768" height="8.21768" transform="matrix(-1 0 0 1 123.863 74.0054)" fill="#1C1C1C"/>
<rect width="8.21768" height="8.21768" transform="matrix(0 1 1 0 123.863 82.2231)" fill="#1C1C1C"/>
<rect width="8.21768" height="8.21768" transform="matrix(0 1 1 0 123.863 90.4407)" fill="#1C1C1C"/>
<rect x="25.2512" y="24.6992" width="8.21768" height="8.21768" transform="rotate(90 25.2512 24.6992)" fill="#1C1C1C"/>
<rect x="25.2512" y="32.917" width="8.21768" height="8.21768" transform="rotate(90 25.2512 32.917)" fill="#1C1C1C"/>
<rect x="115.646" y="24.6992" width="8.21768" height="8.21768" transform="rotate(90 115.646 24.6992)" fill="#1C1C1C"/>
<rect x="115.646" y="32.917" width="8.21768" height="8.21768" transform="rotate(90 115.646 32.917)" fill="#1C1C1C"/>
<rect x="123.863" y="57.5701" width="8.21768" height="8.21768" transform="rotate(90 123.863 57.5701)" fill="#1C1C1C"/>
<rect x="123.863" y="41.1348" width="8.21768" height="8.21768" transform="rotate(90 123.863 41.1348)" fill="#1C1C1C"/>
<rect x="123.863" y="49.3523" width="8.21768" height="8.21768" transform="rotate(90 123.863 49.3523)" fill="#1C1C1C"/>
<rect x="123.863" y="115.094" width="8.21768" height="8.21768" transform="rotate(90 123.863 115.094)" fill="#1C1C1C"/>
<rect x="123.863" y="106.876" width="8.21768" height="8.21768" transform="rotate(90 123.863 106.876)" fill="#1C1C1C"/>
<rect x="17.0336" y="57.5701" width="8.21768" height="8.21768" transform="rotate(90 17.0336 57.5701)" fill="#1C1C1C"/>
<rect x="17.0336" y="41.1348" width="8.21768" height="8.21768" transform="rotate(90 17.0336 41.1348)" fill="#1C1C1C"/>
<rect x="17.0336" y="49.3523" width="8.21768" height="8.21768" transform="rotate(90 17.0336 49.3523)" fill="#1C1C1C"/>
<rect x="90.9927" y="139.747" width="8.21768" height="8.21768" transform="rotate(180 90.9927 139.747)" fill="#1C1C1C"/>
<rect x="107.428" y="139.747" width="8.21768" height="8.21768" transform="rotate(180 107.428 139.747)" fill="#1C1C1C"/>
<rect x="99.2102" y="139.747" width="8.21768" height="8.21768" transform="rotate(180 99.2102 139.747)" fill="#1C1C1C"/>
<rect x="33.4689" y="139.747" width="8.21768" height="8.21768" transform="rotate(180 33.4689 139.747)" fill="#1C1C1C"/>
<rect x="49.9043" y="139.747" width="8.21768" height="8.21768" transform="rotate(180 49.9043 139.747)" fill="#1C1C1C"/>
<rect x="41.6865" y="139.747" width="8.21768" height="8.21768" transform="rotate(180 41.6865 139.747)" fill="#1C1C1C"/>
<rect x="66.3396" y="131.529" width="8.21768" height="8.21768" transform="rotate(180 66.3396 131.529)" fill="#1C1C1C"/>
<rect x="58.1219" y="131.529" width="8.21768" height="8.21768" transform="rotate(180 58.1219 131.529)" fill="#1C1C1C"/>
<rect x="82.7749" y="131.529" width="8.21768" height="8.21768" transform="rotate(180 82.7749 131.529)" fill="#1C1C1C"/>
<rect x="74.5573" y="131.529" width="8.21768" height="8.21768" transform="rotate(180 74.5573 131.529)" fill="#1C1C1C"/>
<rect x="17.0336" y="123.312" width="8.21768" height="8.21768" transform="rotate(-90 17.0336 123.312)" fill="#1C1C1C"/>
<rect x="17.0336" y="115.094" width="8.21768" height="8.21768" transform="rotate(-90 17.0336 115.094)" fill="#1C1C1C"/>
<rect x="17.0336" y="131.529" width="8.21768" height="8.21768" transform="rotate(-90 17.0336 131.529)" fill="#1C1C1C"/>
</svg>
