<svg width="64" height="68" viewBox="0 0 64 68" fill="none" xmlns="http://www.w3.org/2000/svg">
<rect x="8" y="28" width="4" height="4" fill="#FEA975"/>
<rect x="8" y="36" width="4" height="4" fill="#FEA975"/>
<rect x="8" y="40" width="4" height="4" fill="#FEA975"/>
<rect x="4" y="40" width="4" height="4" fill="#FEA975"/>
<rect x="48" y="60" width="4" height="4" fill="#FEA975"/>
<rect x="44" y="60" width="4" height="4" fill="#FEA975"/>
<rect x="12" y="28" width="4" height="4" fill="#E2F8FF"/>
<rect x="16" y="28" width="4" height="4" fill="#E2F8FF"/>
<rect x="20" y="28" width="4" height="4" fill="#E2F8FF"/>
<rect x="24" y="28" width="4" height="4" fill="#E2F8FF"/>
<rect x="28" y="28" width="4" height="4" fill="#E2F8FF"/>
<rect x="32" y="28" width="4" height="4" fill="#E2F8FF"/>
<rect x="36" y="28" width="4" height="4" fill="#E2F8FF"/>
<rect x="40" y="28" width="4" height="4" fill="#E2F8FF"/>
<rect x="44" y="28" width="4" height="4" fill="#E2F8FF"/>
<rect x="36" y="32" width="4" height="4" fill="#E2F8FF"/>
<rect x="40" y="32" width="4" height="4" fill="#E2F8FF"/>
<rect x="44" y="32" width="4" height="4" fill="#E2F8FF"/>
<rect x="24" y="32" width="4" height="4" fill="#E2F8FF"/>
<rect x="28" y="32" width="4" height="4" fill="#E2F8FF"/>
<rect x="32" y="32" width="4" height="4" fill="#E2F8FF"/>
<rect x="16" y="36" width="4" height="4" fill="#E2F8FF"/>
<rect x="20" y="36" width="4" height="4" fill="#E2F8FF"/>
<rect x="24" y="36" width="4" height="4" fill="#E2F8FF"/>
<rect x="28" y="36" width="4" height="4" fill="#E2F8FF"/>
<rect x="32" y="36" width="4" height="4" fill="#E2F8FF"/>
<rect x="36" y="36" width="4" height="4" fill="#E2F8FF"/>
<rect x="44" y="36" width="4" height="4" transform="rotate(90 44 36)" fill="#E2F8FF"/>
<rect x="44" y="40" width="4" height="4" transform="rotate(90 44 40)" fill="#E2F8FF"/>
<rect x="44" y="44" width="4" height="4" transform="rotate(90 44 44)" fill="#E2F8FF"/>
<rect x="56" y="36" width="4" height="4" transform="rotate(90 56 36)" fill="#E2F8FF"/>
<rect x="56" y="40" width="4" height="4" transform="rotate(90 56 40)" fill="#E2F8FF"/>
<rect x="56" y="44" width="4" height="4" transform="rotate(90 56 44)" fill="#E2F8FF"/>
<rect x="36" y="16" width="4" height="4" transform="rotate(90 36 16)" fill="#E2F8FF"/>
<rect x="36" y="20" width="4" height="4" transform="rotate(90 36 20)" fill="#E2F8FF"/>
<rect x="36" y="24" width="4" height="4" transform="rotate(90 36 24)" fill="#E2F8FF"/>
<rect x="28" y="16" width="4" height="4" transform="rotate(90 28 16)" fill="#E2F8FF"/>
<rect x="28" y="20" width="4" height="4" transform="rotate(90 28 20)" fill="#E2F8FF"/>
<rect x="28" y="24" width="4" height="4" transform="rotate(90 28 24)" fill="#E2F8FF"/>
<rect x="32" y="12" width="4" height="4" transform="rotate(90 32 12)" fill="#E2F8FF"/>
<rect x="32" y="16" width="4" height="4" transform="rotate(90 32 16)" fill="#E2F8FF"/>
<rect x="32" y="20" width="4" height="4" transform="rotate(90 32 20)" fill="#E2F8FF"/>
<rect x="16" y="40" width="4" height="4" transform="rotate(90 16 40)" fill="#E2F8FF"/>
<rect x="16" y="44" width="4" height="4" transform="rotate(90 16 44)" fill="#E2F8FF"/>
<rect x="16" y="48" width="4" height="4" transform="rotate(90 16 48)" fill="#E2F8FF"/>
<rect x="20" y="40" width="4" height="4" transform="rotate(90 20 40)" fill="#E2F8FF"/>
<rect x="20" y="44" width="4" height="4" transform="rotate(90 20 44)" fill="#E2F8FF"/>
<rect x="20" y="48" width="4" height="4" transform="rotate(90 20 48)" fill="#E2F8FF"/>
<rect x="24" y="40" width="4" height="4" transform="rotate(90 24 40)" fill="#E2F8FF"/>
<rect x="24" y="44" width="4" height="4" transform="rotate(90 24 44)" fill="#E2F8FF"/>
<rect x="24" y="48" width="4" height="4" transform="rotate(90 24 48)" fill="#E2F8FF"/>
<rect x="28" y="40" width="4" height="4" transform="rotate(90 28 40)" fill="#E2F8FF"/>
<rect x="28" y="44" width="4" height="4" transform="rotate(90 28 44)" fill="#E2F8FF"/>
<rect x="28" y="48" width="4" height="4" transform="rotate(90 28 48)" fill="#E2F8FF"/>
<rect x="32" y="40" width="4" height="4" transform="rotate(90 32 40)" fill="#E2F8FF"/>
<rect x="32" y="44" width="4" height="4" transform="rotate(90 32 44)" fill="#E2F8FF"/>
<rect x="32" y="48" width="4" height="4" transform="rotate(90 32 48)" fill="#E2F8FF"/>
<rect x="36" y="40" width="4" height="4" transform="rotate(90 36 40)" fill="#E2F8FF"/>
<rect x="36" y="44" width="4" height="4" transform="rotate(90 36 44)" fill="#E2F8FF"/>
<rect x="36" y="48" width="4" height="4" transform="rotate(90 36 48)" fill="#E2F8FF"/>
<rect x="40" y="48" width="4" height="4" transform="rotate(90 40 48)" fill="#E2F8FF"/>
<rect x="40" y="52" width="4" height="4" transform="rotate(90 40 52)" fill="#E2F8FF"/>
<rect x="40" y="56" width="4" height="4" transform="rotate(90 40 56)" fill="#E2F8FF"/>
<rect x="44" y="48" width="4" height="4" transform="rotate(90 44 48)" fill="#E2F8FF"/>
<rect x="44" y="52" width="4" height="4" transform="rotate(90 44 52)" fill="#E2F8FF"/>
<rect x="44" y="56" width="4" height="4" transform="rotate(90 44 56)" fill="#E2F8FF"/>
<rect x="48" y="48" width="4" height="4" transform="rotate(90 48 48)" fill="#E2F8FF"/>
<rect x="48" y="52" width="4" height="4" transform="rotate(90 48 52)" fill="#E2F8FF"/>
<rect x="48" y="56" width="4" height="4" transform="rotate(90 48 56)" fill="#E2F8FF"/>
<rect x="28" y="52" width="4" height="4" transform="rotate(90 28 52)" fill="#E2F8FF"/>
<rect x="28" y="56" width="4" height="4" transform="rotate(90 28 56)" fill="#E2F8FF"/>
<rect x="32" y="52" width="4" height="4" transform="rotate(90 32 52)" fill="#E2F8FF"/>
<rect x="32" y="56" width="4" height="4" transform="rotate(90 32 56)" fill="#E2F8FF"/>
<rect x="36" y="52" width="4" height="4" transform="rotate(90 36 52)" fill="#E2F8FF"/>
<rect x="36" y="56" width="4" height="4" transform="rotate(90 36 56)" fill="#E2F8FF"/>
<rect x="40" y="40" width="4" height="4" transform="rotate(90 40 40)" fill="#E2F8FF"/>
<rect x="40" y="44" width="4" height="4" transform="rotate(90 40 44)" fill="#E2F8FF"/>
<rect x="56" y="32" width="4" height="4" transform="rotate(180 56 32)" fill="#E2F8FF"/>
<rect x="52" y="32" width="4" height="4" transform="rotate(180 52 32)" fill="#E2F8FF"/>
<rect x="24" y="36" width="4" height="4" transform="rotate(180 24 36)" fill="#E2F8FF"/>
<rect x="20" y="36" width="4" height="4" transform="rotate(180 20 36)" fill="#E2F8FF"/>
<rect x="12" y="48" width="4" height="4" transform="rotate(180 12 48)" fill="#E2F8FF"/>
<rect x="8" y="48" width="4" height="4" transform="rotate(180 8 48)" fill="#E2F8FF"/>
<rect x="24" y="64" width="4" height="4" transform="rotate(180 24 64)" fill="#E2F8FF"/>
<rect x="20" y="64" width="4" height="4" transform="rotate(180 20 64)" fill="#E2F8FF"/>
<rect x="36" y="12" width="4" height="4" transform="rotate(180 36 12)" fill="#E2F8FF"/>
<rect x="36" y="16" width="4" height="4" transform="rotate(180 36 16)" fill="#E2F8FF"/>
<rect x="48" y="48" width="4" height="4" transform="rotate(180 48 48)" fill="#E2F8FF"/>
<rect x="60" y="44" width="4" height="4" transform="rotate(180 60 44)" fill="#E2F8FF"/>
<rect x="60" y="48" width="4" height="4" transform="rotate(180 60 48)" fill="#E2F8FF"/>
<rect x="52" y="60" width="4" height="4" transform="rotate(180 52 60)" fill="#E2F8FF"/>
<rect x="44" y="64" width="4" height="4" transform="rotate(180 44 64)" fill="#E2F8FF"/>
<rect x="32" y="12" width="4" height="4" transform="rotate(180 32 12)" fill="#E2F8FF"/>
<rect x="16" y="52" width="4" height="4" transform="rotate(90 16 52)" fill="#E2F8FF"/>
<rect x="16" y="56" width="4" height="4" transform="rotate(90 16 56)" fill="#E2F8FF"/>
<rect x="20" y="52" width="4" height="4" transform="rotate(90 20 52)" fill="#E2F8FF"/>
<rect x="20" y="56" width="4" height="4" transform="rotate(90 20 56)" fill="#E2F8FF"/>
<rect x="24" y="52" width="4" height="4" transform="rotate(90 24 52)" fill="#E2F8FF"/>
<rect x="24" y="56" width="4" height="4" transform="rotate(90 24 56)" fill="#E2F8FF"/>
<rect x="12" y="12" width="4" height="4" fill="#0193C6"/>
<rect x="16" y="12" width="4" height="4" fill="#0193C6"/>
<rect x="20" y="12" width="4" height="4" fill="#0193C6"/>
<rect x="12" y="16" width="4" height="4" fill="#0193C6"/>
<rect x="16" y="16" width="4" height="4" fill="#0193C6"/>
<rect x="20" y="16" width="4" height="4" fill="#0193C6"/>
<rect x="24" y="12" width="4" height="4" fill="#0193C6"/>
<rect x="20" y="4" width="4" height="4" fill="#0193C6"/>
<rect x="16" y="8" width="4" height="4" fill="#0193C6"/>
<rect x="20" y="8" width="4" height="4" fill="#0193C6"/>
<rect x="24" y="8" width="4" height="4" fill="#0193C6"/>
<rect x="44" y="40" width="4" height="4" fill="#0193C6"/>
<rect x="48" y="40" width="4" height="4" fill="#0193C6"/>
<rect x="48" y="44" width="4" height="4" fill="#0193C6"/>
<rect x="44" y="36" width="4" height="4" fill="#0193C6"/>
<rect x="12" y="60" width="4" height="4" fill="#0193C6"/>
<rect x="48" y="36" width="4" height="4" fill="#0193C6"/>
<rect x="8" y="20" width="4" height="4" fill="#0193C6"/>
<rect x="12" y="20" width="4" height="4" fill="#0193C6"/>
<rect x="16" y="20" width="4" height="4" fill="#0193C6"/>
<rect x="8" y="24" width="4" height="4" fill="#0193C6"/>
<rect x="12" y="24" width="4" height="4" fill="#0193C6"/>
<rect x="16" y="24" width="4" height="4" fill="#0193C6"/>
<rect x="36" y="8" width="4" height="4" fill="#D33901"/>
<rect x="40" y="8" width="4" height="4" fill="#D33901"/>
<rect x="36" y="12" width="4" height="4" fill="#D33901"/>
<rect x="40" y="12" width="4" height="4" fill="#D33901"/>
<rect x="36" y="16" width="4" height="4" fill="#D33901"/>
<rect x="40" y="16" width="4" height="4" fill="#D33901"/>
<rect x="40" y="20" width="4" height="4" fill="#D33901"/>
<rect x="44" y="20" width="4" height="4" fill="#D33901"/>
<rect x="48" y="20" width="4" height="4" fill="#D33901"/>
<rect x="52" y="20" width="4" height="4" fill="#D33901"/>
<rect x="48" y="24" width="4" height="4" fill="#D33901"/>
<rect x="12" y="36" width="4" height="4" fill="#D33901"/>
<rect x="52" y="52" width="4" height="4" fill="#D33901"/>
<rect x="52" y="56" width="4" height="4" fill="#D33901"/>
<rect x="48" y="48" width="4" height="4" fill="#D33901"/>
<rect x="48" y="52" width="4" height="4" fill="#D33901"/>
<rect x="52" y="24" width="4" height="4" fill="#D33901"/>
<rect x="40" y="24" width="4" height="4" fill="#D33901"/>
<rect x="44" y="24" width="4" height="4" fill="#D33901"/>
<rect x="44" y="12" width="4" height="4" fill="#D33901"/>
<rect x="48" y="12" width="4" height="4" fill="#D33901"/>
<rect x="44" y="16" width="4" height="4" fill="#D33901"/>
<rect x="48" y="16" width="4" height="4" fill="#D33901"/>
<rect x="40" y="4" width="4" height="4" fill="#D33901"/>
<rect x="44" y="8" width="4" height="4" fill="#D33901"/>
<rect x="16" y="4" width="4" height="4" fill="#DA806E"/>
<rect x="44" y="4" width="4" height="4" fill="#DA806E"/>
<rect x="16" width="4" height="4" fill="#1C1C1C"/>
<rect x="52" y="60" width="4" height="4" fill="#1C1C1C"/>
<rect x="4" y="36" width="4" height="4" fill="#1C1C1C"/>
<rect x="20" width="4" height="4" fill="#1C1C1C"/>
<rect x="24" y="4" width="4" height="4" fill="#1C1C1C"/>
<rect x="28" y="4" width="4" height="4" fill="#1C1C1C"/>
<rect x="8" y="32" width="4" height="4" fill="#1C1C1C"/>
<rect x="12" y="32" width="4" height="4" fill="#1C1C1C"/>
<rect x="4" y="48" width="4" height="4" fill="#1C1C1C"/>
<rect x="8" y="48" width="4" height="4" fill="#1C1C1C"/>
<rect x="52" y="48" width="4" height="4" fill="#1C1C1C"/>
<rect x="56" y="48" width="4" height="4" fill="#1C1C1C"/>
<rect x="48" y="32" width="4" height="4" fill="#1C1C1C"/>
<rect x="52" y="32" width="4" height="4" fill="#1C1C1C"/>
<rect x="32" y="4" width="4" height="4" fill="#1C1C1C"/>
<rect x="36" y="4" width="4" height="4" fill="#1C1C1C"/>
<rect x="40" width="4" height="4" fill="#1C1C1C"/>
<rect x="44" width="4" height="4" fill="#1C1C1C"/>
<rect x="52" y="4" width="4" height="4" transform="rotate(90 52 4)" fill="#1C1C1C"/>
<rect x="52" y="8" width="4" height="4" transform="rotate(90 52 8)" fill="#1C1C1C"/>
<rect x="24" y="20" width="4" height="4" transform="rotate(90 24 20)" fill="#1C1C1C"/>
<rect x="24" y="24" width="4" height="4" transform="rotate(90 24 24)" fill="#1C1C1C"/>
<rect x="40" y="20" width="4" height="4" transform="rotate(90 40 20)" fill="#1C1C1C"/>
<rect x="40" y="24" width="4" height="4" transform="rotate(90 40 24)" fill="#1C1C1C"/>
<rect x="32" y="24" width="4" height="4" transform="rotate(90 32 24)" fill="#1C1C1C"/>
<rect x="16" y="4" width="4" height="4" transform="rotate(90 16 4)" fill="#1C1C1C"/>
<rect x="16" y="8" width="4" height="4" transform="rotate(90 16 8)" fill="#1C1C1C"/>
<rect x="4" y="40" width="4" height="4" transform="rotate(90 4 40)" fill="#1C1C1C"/>
<rect x="4" y="44" width="4" height="4" transform="rotate(90 4 44)" fill="#1C1C1C"/>
<rect width="4" height="4" transform="matrix(-1 0 0 1 60 36)" fill="#1C1C1C"/>
<rect width="4" height="4" transform="matrix(0 1 1 0 60 40)" fill="#1C1C1C"/>
<rect width="4" height="4" transform="matrix(0 1 1 0 60 44)" fill="#1C1C1C"/>
<rect x="12" y="12" width="4" height="4" transform="rotate(90 12 12)" fill="#1C1C1C"/>
<rect x="12" y="16" width="4" height="4" transform="rotate(90 12 16)" fill="#1C1C1C"/>
<rect x="56" y="12" width="4" height="4" transform="rotate(90 56 12)" fill="#1C1C1C"/>
<rect x="56" y="16" width="4" height="4" transform="rotate(90 56 16)" fill="#1C1C1C"/>
<rect x="60" y="28" width="4" height="4" transform="rotate(90 60 28)" fill="#1C1C1C"/>
<rect x="60" y="20" width="4" height="4" transform="rotate(90 60 20)" fill="#1C1C1C"/>
<rect x="60" y="24" width="4" height="4" transform="rotate(90 60 24)" fill="#1C1C1C"/>
<rect x="60" y="56" width="4" height="4" transform="rotate(90 60 56)" fill="#1C1C1C"/>
<rect x="60" y="52" width="4" height="4" transform="rotate(90 60 52)" fill="#1C1C1C"/>
<rect x="8" y="28" width="4" height="4" transform="rotate(90 8 28)" fill="#1C1C1C"/>
<rect x="8" y="20" width="4" height="4" transform="rotate(90 8 20)" fill="#1C1C1C"/>
<rect x="8" y="24" width="4" height="4" transform="rotate(90 8 24)" fill="#1C1C1C"/>
<rect x="44" y="68" width="4" height="4" transform="rotate(180 44 68)" fill="#1C1C1C"/>
<rect x="52" y="68" width="4" height="4" transform="rotate(180 52 68)" fill="#1C1C1C"/>
<rect x="48" y="68" width="4" height="4" transform="rotate(180 48 68)" fill="#1C1C1C"/>
<rect x="16" y="68" width="4" height="4" transform="rotate(180 16 68)" fill="#1C1C1C"/>
<rect x="24" y="68" width="4" height="4" transform="rotate(180 24 68)" fill="#1C1C1C"/>
<rect x="20" y="68" width="4" height="4" transform="rotate(180 20 68)" fill="#1C1C1C"/>
<rect x="32" y="64" width="4" height="4" transform="rotate(180 32 64)" fill="#1C1C1C"/>
<rect x="28" y="64" width="4" height="4" transform="rotate(180 28 64)" fill="#1C1C1C"/>
<rect x="40" y="64" width="4" height="4" transform="rotate(180 40 64)" fill="#1C1C1C"/>
<rect x="36" y="64" width="4" height="4" transform="rotate(180 36 64)" fill="#1C1C1C"/>
<rect x="8" y="60" width="4" height="4" transform="rotate(-90 8 60)" fill="#1C1C1C"/>
<rect x="8" y="56" width="4" height="4" transform="rotate(-90 8 56)" fill="#1C1C1C"/>
<rect x="8" y="64" width="4" height="4" transform="rotate(-90 8 64)" fill="#1C1C1C"/>
</svg>
