<svg width="133" height="141" viewBox="0 0 133 141" fill="none" xmlns="http://www.w3.org/2000/svg">
<rect x="33.4689" y="25.4924" width="8.21768" height="8.21768" transform="rotate(90 33.4689 25.4924)" fill="#BB5711"/>
<rect x="33.4689" y="33.7102" width="8.21768" height="8.21768" transform="rotate(90 33.4689 33.7102)" fill="#BB5711"/>
<rect x="33.4689" y="41.9277" width="8.21768" height="8.21768" transform="rotate(90 33.4689 41.9277)" fill="#BB5711"/>
<rect x="49.9043" y="9.05713" width="8.21768" height="8.21768" transform="rotate(90 49.9043 9.05713)" fill="#BB5711"/>
<rect x="49.9043" y="17.2747" width="8.21768" height="8.21768" transform="rotate(90 49.9043 17.2747)" fill="#BB5711"/>
<rect x="49.9043" y="25.4924" width="8.21768" height="8.21768" transform="rotate(90 49.9043 25.4924)" fill="#BB5711"/>
<rect x="49.9043" y="33.7102" width="8.21768" height="8.21768" transform="rotate(90 49.9043 33.7102)" fill="#BB5711"/>
<rect x="58.1219" y="17.2747" width="8.21768" height="8.21768" transform="rotate(90 58.1219 17.2747)" fill="#BB5711"/>
<rect x="58.1219" y="25.4924" width="8.21768" height="8.21768" transform="rotate(90 58.1219 25.4924)" fill="#BB5711"/>
<rect x="41.6865" y="17.2747" width="8.21768" height="8.21768" transform="rotate(90 41.6865 17.2747)" fill="#BB5711"/>
<rect x="41.6865" y="25.4924" width="8.21768" height="8.21768" transform="rotate(90 41.6865 25.4924)" fill="#BB5711"/>
<rect x="41.6865" y="33.7102" width="8.21768" height="8.21768" transform="rotate(90 41.6865 33.7102)" fill="#BB5711"/>
<rect x="41.6865" y="41.9277" width="8.21768" height="8.21768" transform="rotate(90 41.6865 41.9277)" fill="#BB5711"/>
<rect x="25.2512" y="41.9277" width="8.21768" height="8.21768" transform="rotate(90 25.2512 41.9277)" fill="#BB5711"/>
<rect x="25.2512" y="50.1455" width="8.21768" height="8.21768" transform="rotate(90 25.2512 50.1455)" fill="#BB5711"/>
<rect x="90.9927" y="9.05713" width="8.21768" height="8.21768" transform="rotate(90 90.9927 9.05713)" fill="#BB5711"/>
<rect x="90.9927" y="17.2747" width="8.21768" height="8.21768" transform="rotate(90 90.9927 17.2747)" fill="#BB5711"/>
<rect x="90.9927" y="25.4924" width="8.21768" height="8.21768" transform="rotate(90 90.9927 25.4924)" fill="#BB5711"/>
<rect x="99.2102" y="17.2747" width="8.21768" height="8.21768" transform="rotate(90 99.2102 17.2747)" fill="#BB5711"/>
<rect x="99.2102" y="25.4924" width="8.21768" height="8.21768" transform="rotate(90 99.2102 25.4924)" fill="#BB5711"/>
<rect x="99.2102" y="33.7102" width="8.21768" height="8.21768" transform="rotate(90 99.2102 33.7102)" fill="#BB5711"/>
<rect x="107.428" y="25.4924" width="8.21768" height="8.21768" transform="rotate(90 107.428 25.4924)" fill="#BB5711"/>
<rect x="90.9927" y="50.1455" width="8.21768" height="8.21768" transform="rotate(90 90.9927 50.1455)" fill="#BB5711"/>
<rect x="99.2102" y="50.1455" width="8.21768" height="8.21768" transform="rotate(90 99.2102 50.1455)" fill="#BB5711"/>
<rect x="90.9927" y="41.9277" width="8.21768" height="8.21768" transform="rotate(90 90.9927 41.9277)" fill="#BB5711"/>
<rect x="99.2102" y="41.9277" width="8.21768" height="8.21768" transform="rotate(90 99.2102 41.9277)" fill="#BB5711"/>
<rect x="107.428" y="50.1455" width="8.21768" height="8.21768" transform="rotate(90 107.428 50.1455)" fill="#BB5711"/>
<rect x="74.5573" y="33.7102" width="8.21768" height="8.21768" transform="rotate(90 74.5573 33.7102)" fill="#BB5711"/>
<rect x="74.5573" y="41.9277" width="8.21768" height="8.21768" transform="rotate(90 74.5573 41.9277)" fill="#BB5711"/>
<rect x="82.7749" y="33.7102" width="8.21768" height="8.21768" transform="rotate(90 82.7749 33.7102)" fill="#BB5711"/>
<rect x="90.9927" y="33.7102" width="8.21768" height="8.21768" transform="rotate(90 90.9927 33.7102)" fill="#BB5711"/>
<rect x="74.5573" y="17.2747" width="8.21768" height="8.21768" transform="rotate(90 74.5573 17.2747)" fill="#BB5711"/>
<rect x="82.7749" y="17.2747" width="8.21768" height="8.21768" transform="rotate(90 82.7749 17.2747)" fill="#BB5711"/>
<rect x="82.7749" y="25.4924" width="8.21768" height="8.21768" transform="rotate(90 82.7749 25.4924)" fill="#BB5711"/>
<rect x="74.5573" y="25.4924" width="8.21768" height="8.21768" transform="rotate(90 74.5573 25.4924)" fill="#BB5711"/>
<rect x="107.428" y="33.7102" width="8.21768" height="8.21768" transform="rotate(90 107.428 33.7102)" fill="#BB5711"/>
<rect x="107.428" y="41.9277" width="8.21768" height="8.21768" transform="rotate(90 107.428 41.9277)" fill="#BB5711"/>
<rect x="115.646" y="41.9277" width="8.21768" height="8.21768" transform="rotate(90 115.646 41.9277)" fill="#BB5711"/>
<rect x="115.646" y="50.1455" width="8.21768" height="8.21768" transform="rotate(90 115.646 50.1455)" fill="#BB5711"/>
<rect x="115.646" y="74.7986" width="8.21768" height="8.21768" transform="rotate(90 115.646 74.7986)" fill="#BB5711"/>
<rect x="107.428" y="83.0161" width="8.21768" height="8.21768" transform="rotate(90 107.428 83.0161)" fill="#BB5711"/>
<rect x="107.428" y="91.2339" width="8.21768" height="8.21768" transform="rotate(90 107.428 91.2339)" fill="#BB5711"/>
<rect x="33.4689" y="83.0161" width="8.21768" height="8.21768" transform="rotate(90 33.4689 83.0161)" fill="#BB5711"/>
<rect x="25.2512" y="74.7986" width="8.21768" height="8.21768" transform="rotate(90 25.2512 74.7986)" fill="#BB5711"/>
<rect x="33.4689" y="91.2339" width="8.21768" height="8.21768" transform="rotate(90 33.4689 91.2339)" fill="#BB5711"/>
<rect x="17.0336" y="58.363" width="8.21768" height="8.21768" fill="#FEF5D6"/>
<rect x="25.2512" y="58.363" width="8.21768" height="8.21768" fill="#FEF5D6"/>
<rect x="33.4689" y="58.363" width="8.21768" height="8.21768" fill="#FEF5D6"/>
<rect x="25.2512" y="50.1455" width="8.21768" height="8.21768" fill="#FEF5D6"/>
<rect x="33.4689" y="50.1455" width="8.21768" height="8.21768" fill="#FEF5D6"/>
<rect x="49.9043" y="33.7102" width="8.21768" height="8.21768" fill="#FEF5D6"/>
<rect x="58.1219" y="33.7102" width="8.21768" height="8.21768" fill="#FEF5D6"/>
<rect x="66.3396" y="17.2747" width="8.21768" height="8.21768" transform="rotate(90 66.3396 17.2747)" fill="#FEF5D6"/>
<rect x="66.3396" y="25.4924" width="8.21768" height="8.21768" transform="rotate(90 66.3396 25.4924)" fill="#FEF5D6"/>
<rect x="66.3396" y="41.9277" width="8.21768" height="8.21768" transform="rotate(90 66.3396 41.9277)" fill="#FEF5D6"/>
<rect x="74.5573" y="50.1455" width="8.21768" height="8.21768" transform="rotate(90 74.5573 50.1455)" fill="#FEF5D6"/>
<rect x="58.1219" y="41.9277" width="8.21768" height="8.21768" transform="rotate(90 58.1219 41.9277)" fill="#FEF5D6"/>
<rect x="58.1219" y="50.1455" width="8.21768" height="8.21768" transform="rotate(90 58.1219 50.1455)" fill="#FEF5D6"/>
<rect x="41.6865" y="58.363" width="8.21768" height="8.21768" fill="#FEF5D6"/>
<rect x="49.9043" y="58.363" width="8.21768" height="8.21768" fill="#FEF5D6"/>
<rect x="58.1219" y="58.363" width="8.21768" height="8.21768" fill="#FEF5D6"/>
<rect x="66.3396" y="58.363" width="8.21768" height="8.21768" fill="#FEF5D6"/>
<rect x="74.5573" y="58.363" width="8.21768" height="8.21768" fill="#FEF5D6"/>
<rect x="82.7749" y="58.363" width="8.21768" height="8.21768" fill="#FEF5D6"/>
<rect x="33.4689" y="66.5808" width="8.21768" height="8.21768" fill="#FEF5D6"/>
<rect x="41.6865" y="66.5808" width="8.21768" height="8.21768" fill="#FEF5D6"/>
<rect x="49.9043" y="66.5808" width="8.21768" height="8.21768" fill="#FEF5D6"/>
<rect x="58.1219" y="66.5808" width="8.21768" height="8.21768" fill="#FEF5D6"/>
<rect x="66.3396" y="66.5808" width="8.21768" height="8.21768" fill="#FEF5D6"/>
<rect x="74.5573" y="66.5808" width="8.21768" height="8.21768" fill="#FEF5D6"/>
<rect x="82.7749" y="66.5808" width="8.21768" height="8.21768" fill="#FEF5D6"/>
<rect x="90.9927" y="66.5808" width="8.21768" height="8.21768" fill="#FEF5D6"/>
<rect x="33.4689" y="74.7986" width="8.21768" height="8.21768" fill="#FEF5D6"/>
<rect x="41.6865" y="74.7986" width="8.21768" height="8.21768" fill="#FEF5D6"/>
<rect x="49.9043" y="74.7986" width="8.21768" height="8.21768" fill="#FEF5D6"/>
<rect x="58.1219" y="74.7986" width="8.21768" height="8.21768" fill="#FEF5D6"/>
<rect x="66.3396" y="74.7986" width="8.21768" height="8.21768" fill="#FEF5D6"/>
<rect x="74.5573" y="74.7986" width="8.21768" height="8.21768" fill="#FEF5D6"/>
<rect x="82.7749" y="74.7986" width="8.21768" height="8.21768" fill="#FEF5D6"/>
<rect x="33.4689" y="83.0161" width="8.21768" height="8.21768" fill="#FEF5D6"/>
<rect x="41.6865" y="83.0161" width="8.21768" height="8.21768" fill="#FEF5D6"/>
<rect x="49.9043" y="83.0161" width="8.21768" height="8.21768" fill="#FEF5D6"/>
<rect x="58.1219" y="83.0161" width="8.21768" height="8.21768" fill="#FEF5D6"/>
<rect x="66.3396" y="83.0161" width="8.21768" height="8.21768" fill="#FEF5D6"/>
<rect x="74.5573" y="83.0161" width="8.21768" height="8.21768" fill="#FEF5D6"/>
<rect x="82.7749" y="83.0161" width="8.21768" height="8.21768" fill="#FEF5D6"/>
<rect x="33.4689" y="91.2339" width="8.21768" height="8.21768" fill="#FEF5D6"/>
<rect x="41.6865" y="91.2339" width="8.21768" height="8.21768" fill="#FEF5D6"/>
<rect x="49.9043" y="91.2339" width="8.21768" height="8.21768" fill="#FEF5D6"/>
<rect x="58.1219" y="91.2339" width="8.21768" height="8.21768" fill="#FEF5D6"/>
<rect x="66.3396" y="91.2339" width="8.21768" height="8.21768" fill="#FEF5D6"/>
<rect x="74.5573" y="91.2339" width="8.21768" height="8.21768" fill="#FEF5D6"/>
<rect x="82.7749" y="91.2339" width="8.21768" height="8.21768" fill="#FEF5D6"/>
<rect x="33.4689" y="99.4514" width="8.21768" height="8.21768" fill="#FEF5D6"/>
<rect x="41.6865" y="99.4514" width="8.21768" height="8.21768" fill="#FEF5D6"/>
<rect x="49.9043" y="99.4514" width="8.21768" height="8.21768" fill="#FEF5D6"/>
<rect x="58.1219" y="99.4514" width="8.21768" height="8.21768" fill="#FEF5D6"/>
<rect x="66.3396" y="99.4514" width="8.21768" height="8.21768" fill="#FEF5D6"/>
<rect x="74.5573" y="99.4514" width="8.21768" height="8.21768" fill="#FEF5D6"/>
<rect x="82.7749" y="99.4514" width="8.21768" height="8.21768" fill="#FEF5D6"/>
<rect x="33.4689" y="107.669" width="8.21768" height="8.21768" fill="#FEF5D6"/>
<rect x="41.6865" y="107.669" width="8.21768" height="8.21768" fill="#FEF5D6"/>
<rect x="49.9043" y="107.669" width="8.21768" height="8.21768" fill="#FEF5D6"/>
<rect x="58.1219" y="107.669" width="8.21768" height="8.21768" fill="#FEF5D6"/>
<rect x="66.3396" y="107.669" width="8.21768" height="8.21768" fill="#FEF5D6"/>
<rect x="90.9927" y="99.4514" width="8.21768" height="8.21768" fill="#FEF5D6"/>
<rect x="90.9927" y="107.669" width="8.21768" height="8.21768" fill="#FEF5D6"/>
<rect x="90.9927" y="115.887" width="8.21768" height="8.21768" fill="#FEF5D6"/>
<rect x="74.5573" y="107.669" width="8.21768" height="8.21768" fill="#FEF5D6"/>
<rect x="82.7749" y="107.669" width="8.21768" height="8.21768" fill="#FEF5D6"/>
<rect x="33.4689" y="115.887" width="8.21768" height="8.21768" fill="#FEF5D6"/>
<rect x="41.6865" y="115.887" width="8.21768" height="8.21768" fill="#FEF5D6"/>
<rect x="49.9043" y="115.887" width="8.21768" height="8.21768" fill="#FEF5D6"/>
<rect x="25.2512" y="115.887" width="8.21768" height="8.21768" fill="#FEF5D6"/>
<rect x="25.2512" y="124.104" width="8.21768" height="8.21768" fill="#FEF5D6"/>
<rect x="33.4689" y="124.104" width="8.21768" height="8.21768" fill="#FEF5D6"/>
<rect x="41.6865" y="124.104" width="8.21768" height="8.21768" fill="#FEF5D6"/>
<rect x="58.1219" y="115.887" width="8.21768" height="8.21768" fill="#FEF5D6"/>
<rect x="66.3396" y="115.887" width="8.21768" height="8.21768" fill="#FEF5D6"/>
<rect x="74.5573" y="115.887" width="8.21768" height="8.21768" fill="#FEF5D6"/>
<rect x="82.7749" y="115.887" width="8.21768" height="8.21768" fill="#FEF5D6"/>
<rect x="99.2102" y="115.887" width="8.21768" height="8.21768" fill="#FEF5D6"/>
<rect x="82.7749" y="124.104" width="8.21768" height="8.21768" fill="#FEF5D6"/>
<rect x="90.9927" y="124.104" width="8.21768" height="8.21768" fill="#FEF5D6"/>
<rect x="99.2102" y="124.104" width="8.21768" height="8.21768" fill="#FEF5D6"/>
<rect x="90.9927" y="58.363" width="8.21768" height="8.21768" fill="#FEF5D6"/>
<rect x="99.2102" y="58.363" width="8.21768" height="8.21768" fill="#FEF5D6"/>
<rect x="107.428" y="58.363" width="8.21768" height="8.21768" fill="#FEF5D6"/>
<rect x="8.81592" y="83.0161" width="8.21768" height="8.21768" fill="#FEF5D6"/>
<rect x="17.0336" y="83.0161" width="8.21768" height="8.21768" fill="#FEF5D6"/>
<rect x="8.81592" y="91.2339" width="8.21768" height="8.21768" fill="#FEF5D6"/>
<rect x="17.0336" y="91.2339" width="8.21768" height="8.21768" fill="#FEF5D6"/>
<rect x="33.4689" y="74.7986" width="8.21768" height="8.21768" transform="rotate(90 33.4689 74.7986)" fill="#FEF5D6"/>
<rect x="107.428" y="83.0161" width="8.21768" height="8.21768" fill="#FBC87E"/>
<rect x="115.646" y="83.0161" width="8.21768" height="8.21768" fill="#FBC87E"/>
<rect x="107.428" y="91.2339" width="8.21768" height="8.21768" fill="#FBC87E"/>
<rect x="115.646" y="91.2339" width="8.21768" height="8.21768" fill="#FBC87E"/>
<rect x="90.9927" y="74.7986" width="8.21768" height="8.21768" fill="#FBC87E"/>
<rect x="99.2102" y="74.7986" width="8.21768" height="8.21768" fill="#FBC87E"/>
<rect x="99.2102" y="107.669" width="8.21768" height="8.21768" fill="#FBC87E"/>
<rect x="107.428" y="107.669" width="8.21768" height="8.21768" fill="#FBC87E"/>
<rect x="33.4689" y="99.4514" width="8.21768" height="8.21768" transform="rotate(90 33.4689 99.4514)" fill="#FBC87E"/>
<rect x="33.4689" y="107.669" width="8.21768" height="8.21768" transform="rotate(90 33.4689 107.669)" fill="#FBC87E"/>
<rect x="99.2102" y="83.0161" width="8.21768" height="8.21768" transform="rotate(90 99.2102 83.0161)" fill="#FBC87E"/>
<rect x="99.2102" y="91.2339" width="8.21768" height="8.21768" transform="rotate(90 99.2102 91.2339)" fill="#FBC87E"/>
<rect x="115.646" y="115.887" width="8.21768" height="8.21768" transform="rotate(90 115.646 115.887)" fill="#FBC87E"/>
<rect x="107.428" y="99.4514" width="8.21768" height="8.21768" transform="rotate(90 107.428 99.4514)" fill="#FBC87E"/>
<rect x="33.4689" y="9.05713" width="8.21768" height="8.21768" fill="#DA806E"/>
<rect x="90.9927" y="9.05713" width="8.21768" height="8.21768" fill="#DA806E"/>
<rect x="33.4689" y="0.839355" width="8.21768" height="8.21768" fill="#1C1C1C"/>
<rect x="107.428" y="124.104" width="8.21768" height="8.21768" fill="#1C1C1C"/>
<rect x="8.81592" y="74.7986" width="8.21768" height="8.21768" fill="#1C1C1C"/>
<rect x="41.6865" y="0.839355" width="8.21768" height="8.21768" fill="#1C1C1C"/>
<rect x="49.9043" y="9.05713" width="8.21768" height="8.21768" fill="#1C1C1C"/>
<rect x="58.1219" y="9.05713" width="8.21768" height="8.21768" fill="#1C1C1C"/>
<rect x="17.0336" y="66.5808" width="8.21768" height="8.21768" fill="#1C1C1C"/>
<rect x="25.2512" y="66.5808" width="8.21768" height="8.21768" fill="#1C1C1C"/>
<rect x="8.81592" y="99.4514" width="8.21768" height="8.21768" fill="#1C1C1C"/>
<rect x="17.0336" y="99.4514" width="8.21768" height="8.21768" fill="#1C1C1C"/>
<rect x="107.428" y="99.4514" width="8.21768" height="8.21768" fill="#1C1C1C"/>
<rect x="115.646" y="99.4514" width="8.21768" height="8.21768" fill="#1C1C1C"/>
<rect x="99.2102" y="66.5808" width="8.21768" height="8.21768" fill="#1C1C1C"/>
<rect x="107.428" y="66.5808" width="8.21768" height="8.21768" fill="#1C1C1C"/>
<rect x="66.3396" y="9.05713" width="8.21768" height="8.21768" fill="#1C1C1C"/>
<rect x="74.5573" y="9.05713" width="8.21768" height="8.21768" fill="#1C1C1C"/>
<rect x="82.7749" y="0.839355" width="8.21768" height="8.21768" fill="#1C1C1C"/>
<rect x="90.9927" y="0.839355" width="8.21768" height="8.21768" fill="#1C1C1C"/>
<rect x="107.428" y="9.05713" width="8.21768" height="8.21768" transform="rotate(90 107.428 9.05713)" fill="#1C1C1C"/>
<rect x="107.428" y="17.2747" width="8.21768" height="8.21768" transform="rotate(90 107.428 17.2747)" fill="#1C1C1C"/>
<rect x="49.9043" y="41.9277" width="8.21768" height="8.21768" transform="rotate(90 49.9043 41.9277)" fill="#1C1C1C"/>
<rect x="49.9043" y="50.1455" width="8.21768" height="8.21768" transform="rotate(90 49.9043 50.1455)" fill="#1C1C1C"/>
<rect x="82.7749" y="41.9277" width="8.21768" height="8.21768" transform="rotate(90 82.7749 41.9277)" fill="#1C1C1C"/>
<rect x="82.7749" y="50.1455" width="8.21768" height="8.21768" transform="rotate(90 82.7749 50.1455)" fill="#1C1C1C"/>
<rect x="66.3396" y="50.1455" width="8.21768" height="8.21768" transform="rotate(90 66.3396 50.1455)" fill="#1C1C1C"/>
<rect x="33.4689" y="9.05713" width="8.21768" height="8.21768" transform="rotate(90 33.4689 9.05713)" fill="#1C1C1C"/>
<rect x="33.4689" y="17.2747" width="8.21768" height="8.21768" transform="rotate(90 33.4689 17.2747)" fill="#1C1C1C"/>
<rect x="8.81592" y="83.0161" width="8.21768" height="8.21768" transform="rotate(90 8.81592 83.0161)" fill="#1C1C1C"/>
<rect x="8.81592" y="91.2339" width="8.21768" height="8.21768" transform="rotate(90 8.81592 91.2339)" fill="#1C1C1C"/>
<rect width="8.21768" height="8.21768" transform="matrix(-1 0 0 1 123.863 74.7986)" fill="#1C1C1C"/>
<rect width="8.21768" height="8.21768" transform="matrix(0 1 1 0 123.863 83.0161)" fill="#1C1C1C"/>
<rect width="8.21768" height="8.21768" transform="matrix(0 1 1 0 123.863 91.2339)" fill="#1C1C1C"/>
<rect x="25.2512" y="25.4924" width="8.21768" height="8.21768" transform="rotate(90 25.2512 25.4924)" fill="#1C1C1C"/>
<rect x="25.2512" y="33.7102" width="8.21768" height="8.21768" transform="rotate(90 25.2512 33.7102)" fill="#1C1C1C"/>
<rect x="115.646" y="25.4924" width="8.21768" height="8.21768" transform="rotate(90 115.646 25.4924)" fill="#1C1C1C"/>
<rect x="115.646" y="33.7102" width="8.21768" height="8.21768" transform="rotate(90 115.646 33.7102)" fill="#1C1C1C"/>
<rect x="123.863" y="58.363" width="8.21768" height="8.21768" transform="rotate(90 123.863 58.363)" fill="#1C1C1C"/>
<rect x="123.863" y="41.9277" width="8.21768" height="8.21768" transform="rotate(90 123.863 41.9277)" fill="#1C1C1C"/>
<rect x="123.863" y="50.1455" width="8.21768" height="8.21768" transform="rotate(90 123.863 50.1455)" fill="#1C1C1C"/>
<rect x="123.863" y="115.887" width="8.21768" height="8.21768" transform="rotate(90 123.863 115.887)" fill="#1C1C1C"/>
<rect x="123.863" y="107.669" width="8.21768" height="8.21768" transform="rotate(90 123.863 107.669)" fill="#1C1C1C"/>
<rect x="17.0336" y="58.363" width="8.21768" height="8.21768" transform="rotate(90 17.0336 58.363)" fill="#1C1C1C"/>
<rect x="17.0336" y="41.9277" width="8.21768" height="8.21768" transform="rotate(90 17.0336 41.9277)" fill="#1C1C1C"/>
<rect x="17.0336" y="50.1455" width="8.21768" height="8.21768" transform="rotate(90 17.0336 50.1455)" fill="#1C1C1C"/>
<rect x="90.9927" y="140.54" width="8.21768" height="8.21768" transform="rotate(180 90.9927 140.54)" fill="#1C1C1C"/>
<rect x="107.428" y="140.54" width="8.21768" height="8.21768" transform="rotate(180 107.428 140.54)" fill="#1C1C1C"/>
<rect x="99.2102" y="140.54" width="8.21768" height="8.21768" transform="rotate(180 99.2102 140.54)" fill="#1C1C1C"/>
<rect x="33.4689" y="140.54" width="8.21768" height="8.21768" transform="rotate(180 33.4689 140.54)" fill="#1C1C1C"/>
<rect x="49.9043" y="140.54" width="8.21768" height="8.21768" transform="rotate(180 49.9043 140.54)" fill="#1C1C1C"/>
<rect x="41.6865" y="140.54" width="8.21768" height="8.21768" transform="rotate(180 41.6865 140.54)" fill="#1C1C1C"/>
<rect x="66.3396" y="132.322" width="8.21768" height="8.21768" transform="rotate(180 66.3396 132.322)" fill="#1C1C1C"/>
<rect x="58.1219" y="132.322" width="8.21768" height="8.21768" transform="rotate(180 58.1219 132.322)" fill="#1C1C1C"/>
<rect x="82.7749" y="132.322" width="8.21768" height="8.21768" transform="rotate(180 82.7749 132.322)" fill="#1C1C1C"/>
<rect x="74.5573" y="132.322" width="8.21768" height="8.21768" transform="rotate(180 74.5573 132.322)" fill="#1C1C1C"/>
<rect x="17.0336" y="124.104" width="8.21768" height="8.21768" transform="rotate(-90 17.0336 124.104)" fill="#1C1C1C"/>
<rect x="17.0336" y="115.887" width="8.21768" height="8.21768" transform="rotate(-90 17.0336 115.887)" fill="#1C1C1C"/>
<rect x="17.0336" y="132.322" width="8.21768" height="8.21768" transform="rotate(-90 17.0336 132.322)" fill="#1C1C1C"/>
</svg>
