<svg width="470" height="320" viewBox="0 0 470 320" fill="none" xmlns="http://www.w3.org/2000/svg">
<rect x="10" y="290" width="450" height="30" fill="#FFE48C"/>
<rect x="205" y="280" width="60" height="40" fill="#A54342"/>
<rect x="200" y="280" width="10" height="40" fill="#543136"/>
<rect x="260" y="280" width="10" height="40" fill="#543136"/>
<rect x="120" y="310" width="230" height="10" fill="#543136"/>
<rect x="20" width="430" height="20" fill="#502F32"/>
<rect x="10" y="270" width="450" height="20" fill="#502F32"/>
<rect x="450" y="20" width="20" height="260" fill="#502F32"/>
<rect x="10" y="10" width="20" height="20" fill="#502F32"/>
<rect x="440" y="10" width="20" height="20" fill="#502F32"/>
<rect y="20" width="20" height="260" fill="#502F32"/>
<rect x="20" y="10" width="430" height="20" fill="#A54342"/>
<rect x="10" y="260" width="450" height="20" fill="#A54342"/>
<rect x="440" y="20" width="20" height="260" fill="#A54342"/>
<rect x="10" y="20" width="20" height="260" fill="#A54342"/>
<rect x="20" y="20" width="20" height="250" fill="#DE806C"/>
<rect x="430" y="20" width="20" height="250" fill="#DE806C"/>
<rect x="20" y="240" width="430" height="30" fill="#DE806C"/>
<rect x="20" y="20" width="430" height="20" fill="#DE806C"/>
<rect x="30" y="240" width="410" height="10" fill="#502F32"/>
<rect x="30" y="30" width="410" height="10" fill="#502F32"/>
<rect x="30" y="30" width="10" height="220" fill="#502F32"/>
<rect x="430" y="30" width="10" height="220" fill="#502F32"/>
</svg>
