<svg width="450" height="310" viewBox="0 0 450 310" fill="none" xmlns="http://www.w3.org/2000/svg">
<rect width="450" height="270" fill="#FFE1DA"/>
<rect x="43" width="3" height="270" fill="#8C2515" fill-opacity="0.3"/>
<rect x="33" width="3" height="270" fill="#8C2515" fill-opacity="0.3"/>
<rect x="39" width="1" height="270" fill="#8C2515" fill-opacity="0.3"/>
<rect x="96" width="3" height="270" fill="#8C2515" fill-opacity="0.3"/>
<rect x="86" width="3" height="270" fill="#8C2515" fill-opacity="0.3"/>
<rect x="92" width="1" height="270" fill="#8C2515" fill-opacity="0.3"/>
<rect x="149" width="3" height="270" fill="#8C2515" fill-opacity="0.3"/>
<rect x="139" width="3" height="270" fill="#8C2515" fill-opacity="0.3"/>
<rect x="145" width="1" height="270" fill="#8C2515" fill-opacity="0.3"/>
<rect x="202" width="3" height="270" fill="#8C2515" fill-opacity="0.3"/>
<rect x="192" width="3" height="270" fill="#8C2515" fill-opacity="0.3"/>
<rect x="198" width="1" height="270" fill="#8C2515" fill-opacity="0.3"/>
<rect x="255" width="3" height="270" fill="#8C2515" fill-opacity="0.3"/>
<rect x="245" width="3" height="270" fill="#8C2515" fill-opacity="0.3"/>
<rect x="251" width="1" height="270" fill="#8C2515" fill-opacity="0.3"/>
<rect x="308" width="3" height="270" fill="#8C2515" fill-opacity="0.3"/>
<rect x="298" width="3" height="270" fill="#8C2515" fill-opacity="0.3"/>
<rect x="304" width="1" height="270" fill="#8C2515" fill-opacity="0.3"/>
<rect x="361" width="3" height="270" fill="#8C2515" fill-opacity="0.3"/>
<rect x="351" width="3" height="270" fill="#8C2515" fill-opacity="0.3"/>
<rect x="357" width="1" height="270" fill="#8C2515" fill-opacity="0.3"/>
<rect x="414" width="3" height="270" fill="#8C2515" fill-opacity="0.3"/>
<rect x="404" width="3" height="270" fill="#8C2515" fill-opacity="0.3"/>
<rect x="410" width="1" height="270" fill="#8C2515" fill-opacity="0.3"/>
<rect x="180.947" y="41" width="22.1053" height="4.19118" fill="#472125"/>
<rect x="174.632" y="44.353" width="34.7368" height="4.19118" fill="#472125"/>
<rect x="171.474" y="47.7058" width="41.0526" height="4.19118" fill="#472125"/>
<rect x="168.316" y="51.0586" width="47.3684" height="4.19118" fill="#472125"/>
<rect width="22.1053" height="4.19118" transform="matrix(1 0 0 -1 180.947 98)" fill="#472125"/>
<rect width="34.7368" height="4.19118" transform="matrix(1 0 0 -1 174.632 94.6472)" fill="#472125"/>
<rect width="41.0526" height="4.19118" transform="matrix(1 0 0 -1 171.474 91.2942)" fill="#472125"/>
<rect width="47.3684" height="4.19118" transform="matrix(1 0 0 -1 168.316 87.9412)" fill="#472125"/>
<rect x="165.158" y="54.4116" width="53.6842" height="30.1765" fill="#472125"/>
<rect x="162" y="61.1177" width="60" height="16.7647" fill="#472125"/>
<rect x="184.105" y="44.353" width="15.7895" height="4.19118" fill="#FDD8A2"/>
<rect x="177.789" y="47.7061" width="28.4211" height="4.19118" fill="#FDD8A2"/>
<rect x="174.632" y="51.0588" width="34.7368" height="4.19118" fill="#FDD8A2"/>
<rect x="171.474" y="54.4119" width="41.0526" height="4.19118" fill="#FDD8A2"/>
<rect width="15.7895" height="4.19118" transform="matrix(1 0 0 -1 184.105 94.6475)" fill="#FDD8A2"/>
<rect width="28.4211" height="4.19118" transform="matrix(1 0 0 -1 177.789 91.2944)" fill="#FDD8A2"/>
<rect width="34.7368" height="4.19118" transform="matrix(1 0 0 -1 174.632 87.9414)" fill="#FDD8A2"/>
<rect width="41.0526" height="4.19118" transform="matrix(1 0 0 -1 171.474 84.5884)" fill="#FDD8A2"/>
<rect x="168.316" y="57.7646" width="47.3684" height="23.4706" fill="#FDD8A2"/>
<rect x="190.421" y="47.7058" width="3.15789" height="6.70588" fill="#472125"/>
<rect x="206.211" y="67.8237" width="6.31579" height="3.35294" fill="#472125"/>
<rect x="171.474" y="67.8237" width="6.31579" height="3.35294" fill="#472125"/>
<rect x="190.421" y="67.8237" width="9.47368" height="3.35294" fill="#472125"/>
<rect x="190.421" y="57.7646" width="3.15789" height="13.4118" fill="#472125"/>
<rect x="190.421" y="84.5884" width="3.15789" height="6.70588" fill="#472125"/>
<rect y="270" width="450" height="40" fill="#FFE48C"/>
</svg>
