<svg width="180" height="148" viewBox="0 0 180 148" fill="none" xmlns="http://www.w3.org/2000/svg">
<rect x="80" width="20" height="20" fill="#1C1C1C"/>
<rect x="70" width="20" height="20" fill="#1C1C1C"/>
<rect x="50" y="20" width="20" height="20" fill="#1C1C1C"/>
<rect x="30" y="58" width="20" height="20" fill="#1C1C1C"/>
<rect x="120" y="128" width="20" height="20" fill="#1C1C1C"/>
<rect x="160" y="78" width="20" height="20" fill="#1C1C1C"/>
<rect x="30" y="78" width="20" height="20" fill="#1C1C1C"/>
<rect x="30" y="98" width="20" height="20" fill="#1C1C1C"/>
<rect y="128" width="20" height="20" fill="#1C1C1C"/>
<rect x="100" y="128" width="20" height="20" fill="#1C1C1C"/>
<rect x="80" y="128" width="20" height="20" fill="#1C1C1C"/>
<rect x="60" y="128" width="20" height="20" fill="#1C1C1C"/>
<rect x="20" y="118" width="20" height="20" fill="#1C1C1C"/>
<rect x="100" width="20" height="20" fill="#1C1C1C"/>
<rect x="120" width="20" height="20" fill="#1C1C1C"/>
<rect x="140" y="20" width="20" height="20" fill="#1C1C1C"/>
<rect x="160" y="58" width="20" height="20" fill="#1C1C1C"/>
<rect x="160" y="96" width="20" height="20" fill="#1C1C1C"/>
<rect x="150" y="108" width="20" height="20" fill="#1C1C1C"/>
<rect x="50" y="38" width="110" height="90" fill="#D9D9D9"/>
<rect x="70" y="20" width="70" height="18" fill="#D9D9D9"/>
<rect x="40" y="118" width="20" height="20" fill="#1C1C1C"/>
<rect x="140" y="118" width="20" height="20" fill="#1C1C1C"/>
<rect x="150" y="38" width="20" height="20" fill="#1C1C1C"/>
<rect x="40" y="38" width="20" height="20" fill="#1C1C1C"/>
<rect x="95" y="38" width="20" height="20" fill="#FF6B4A"/>
<rect x="95" y="57" width="20" height="20" fill="#FF6B4A"/>
<rect x="95" y="88" width="20" height="20" fill="#FF6B4A"/>
</svg>
