<svg width="470" height="320" viewBox="0 0 470 320" fill="none" xmlns="http://www.w3.org/2000/svg">
<rect x="10" y="10" width="450" height="270" fill="#FFE1DA"/>
<rect x="53" y="10" width="3" height="270" fill="#8C2515" fill-opacity="0.3"/>
<rect x="43" y="10" width="3" height="270" fill="#8C2515" fill-opacity="0.3"/>
<rect x="49" y="10" width="1" height="270" fill="#8C2515" fill-opacity="0.3"/>
<rect x="106" y="10" width="3" height="270" fill="#8C2515" fill-opacity="0.3"/>
<rect x="96" y="10" width="3" height="270" fill="#8C2515" fill-opacity="0.3"/>
<rect x="102" y="10" width="1" height="270" fill="#8C2515" fill-opacity="0.3"/>
<rect x="159" y="10" width="3" height="270" fill="#8C2515" fill-opacity="0.3"/>
<rect x="149" y="10" width="3" height="270" fill="#8C2515" fill-opacity="0.3"/>
<rect x="155" y="10" width="1" height="270" fill="#8C2515" fill-opacity="0.3"/>
<rect x="212" y="10" width="3" height="270" fill="#8C2515" fill-opacity="0.3"/>
<rect x="202" y="10" width="3" height="270" fill="#8C2515" fill-opacity="0.3"/>
<rect x="208" y="10" width="1" height="270" fill="#8C2515" fill-opacity="0.3"/>
<rect x="265" y="10" width="3" height="270" fill="#8C2515" fill-opacity="0.3"/>
<rect x="255" y="10" width="3" height="270" fill="#8C2515" fill-opacity="0.3"/>
<rect x="261" y="10" width="1" height="270" fill="#8C2515" fill-opacity="0.3"/>
<rect x="318" y="10" width="3" height="270" fill="#8C2515" fill-opacity="0.3"/>
<rect x="308" y="10" width="3" height="270" fill="#8C2515" fill-opacity="0.3"/>
<rect x="314" y="10" width="1" height="270" fill="#8C2515" fill-opacity="0.3"/>
<rect x="371" y="10" width="3" height="270" fill="#8C2515" fill-opacity="0.3"/>
<rect x="361" y="10" width="3" height="270" fill="#8C2515" fill-opacity="0.3"/>
<rect x="367" y="10" width="1" height="270" fill="#8C2515" fill-opacity="0.3"/>
<rect x="424" y="10" width="3" height="270" fill="#8C2515" fill-opacity="0.3"/>
<rect x="414" y="10" width="3" height="270" fill="#8C2515" fill-opacity="0.3"/>
<rect x="420" y="10" width="1" height="270" fill="#8C2515" fill-opacity="0.3"/>
<rect x="190.947" y="51" width="22.1053" height="4.19118" fill="#472125"/>
<rect x="184.632" y="54.353" width="34.7368" height="4.19118" fill="#472125"/>
<rect x="181.474" y="57.7058" width="41.0526" height="4.19118" fill="#472125"/>
<rect x="178.316" y="61.0586" width="47.3684" height="4.19118" fill="#472125"/>
<rect width="22.1053" height="4.19118" transform="matrix(1 0 0 -1 190.947 108)" fill="#472125"/>
<rect width="34.7368" height="4.19118" transform="matrix(1 0 0 -1 184.632 104.647)" fill="#472125"/>
<rect width="41.0526" height="4.19118" transform="matrix(1 0 0 -1 181.474 101.294)" fill="#472125"/>
<rect width="47.3684" height="4.19118" transform="matrix(1 0 0 -1 178.316 97.9412)" fill="#472125"/>
<rect x="175.158" y="64.4116" width="53.6842" height="30.1765" fill="#472125"/>
<rect x="172" y="71.1177" width="60" height="16.7647" fill="#472125"/>
<rect x="194.105" y="54.353" width="15.7895" height="4.19118" fill="#FDD8A2"/>
<rect x="187.789" y="57.7061" width="28.4211" height="4.19118" fill="#FDD8A2"/>
<rect x="184.632" y="61.0588" width="34.7368" height="4.19118" fill="#FDD8A2"/>
<rect x="181.474" y="64.4119" width="41.0526" height="4.19118" fill="#FDD8A2"/>
<rect width="15.7895" height="4.19118" transform="matrix(1 0 0 -1 194.105 104.647)" fill="#FDD8A2"/>
<rect width="28.4211" height="4.19118" transform="matrix(1 0 0 -1 187.789 101.294)" fill="#FDD8A2"/>
<rect width="34.7368" height="4.19118" transform="matrix(1 0 0 -1 184.632 97.9414)" fill="#FDD8A2"/>
<rect width="41.0526" height="4.19118" transform="matrix(1 0 0 -1 181.474 94.5884)" fill="#FDD8A2"/>
<rect x="178.316" y="67.7646" width="47.3684" height="23.4706" fill="#FDD8A2"/>
<rect x="200.421" y="57.7058" width="3.15789" height="6.70588" fill="#472125"/>
<rect x="216.211" y="77.8237" width="6.31579" height="3.35294" fill="#472125"/>
<rect x="181.474" y="77.8237" width="6.31579" height="3.35294" fill="#472125"/>
<rect x="200.421" y="77.8237" width="9.47368" height="3.35294" fill="#472125"/>
<rect x="200.421" y="67.7646" width="3.15789" height="13.4118" fill="#472125"/>
<rect x="200.421" y="94.5884" width="3.15789" height="6.70588" fill="#472125"/>
<rect x="279" y="124" width="16" height="16" fill="#1C1C1C"/>
<rect x="271" y="132" width="80" height="24" fill="#1C1C1C"/>
<rect x="263" y="148" width="96" height="24" fill="#1C1C1C"/>
<rect x="263" y="180" width="96" height="24" fill="#1C1C1C"/>
<rect x="263" y="220" width="104" height="24" fill="#1C1C1C"/>
<rect x="263" y="236" width="96" height="16" fill="#1C1C1C"/>
<rect x="271" y="244" width="24" height="16" fill="#1C1C1C"/>
<rect x="327" y="244" width="24" height="16" fill="#1C1C1C"/>
<rect x="255" y="164" width="112" height="24" fill="#1C1C1C"/>
<rect x="255" y="196" width="112" height="32" fill="#1C1C1C"/>
<rect x="247" y="204" width="128" height="16" fill="#1C1C1C"/>
<rect x="327" y="124" width="16" height="16" fill="#1C1C1C"/>
<rect x="279" y="132" width="16" height="16" fill="#FDC884"/>
<rect x="255" y="204" width="16" height="16" fill="#FDC884"/>
<rect x="351" y="204" width="16" height="16" fill="#FDC884"/>
<rect x="343" y="228" width="16" height="16" fill="#FDC884"/>
<rect x="327" y="236" width="24" height="16" fill="#FEF6D8"/>
<rect x="271" y="236" width="24" height="16" fill="#FEF6D8"/>
<rect x="279" y="184" width="64" height="16" fill="#FEF6D8"/>
<rect x="279" y="140" width="64" height="16" fill="#FDC884"/>
<rect x="271" y="148" width="80" height="24" fill="#FDC884"/>
<rect x="263" y="164" width="96" height="24" fill="#FDC884"/>
<rect x="263" y="196" width="96" height="24" fill="#FDC884"/>
<rect x="271" y="212" width="80" height="32" fill="#FDC884"/>
<rect x="327" y="132" width="16" height="16" fill="#FDC884"/>
<rect x="295" y="140" width="8" height="16" fill="#DB8431"/>
<rect x="311" y="140" width="8" height="16" fill="#DB8431"/>
<rect x="335" y="172" width="24" height="8" fill="#DB8431"/>
<rect x="263" y="196" width="8" height="8" fill="#DB8431"/>
<rect x="351" y="212" width="8" height="8" fill="#DB8431"/>
<rect x="263" y="212" width="8" height="8" fill="#DB8431"/>
<rect x="279" y="132" width="8" height="8" fill="#DA806E"/>
<rect x="335" y="132" width="8" height="8" fill="#DA806E"/>
<rect x="263" y="172" width="72" height="16" fill="#FEF6D8"/>
<rect x="287" y="188" width="56" height="40" fill="#FEF6D8"/>
<rect x="295" y="220" width="40" height="16" fill="#FEF6D8"/>
<rect x="263" y="172" width="16" height="8" fill="#DB8431"/>
<rect x="327" y="164" width="16" height="8" transform="rotate(90 327 164)" fill="#1C1C1C"/>
<rect x="295" y="164" width="16" height="8" transform="rotate(90 295 164)" fill="#1C1C1C"/>
<rect x="311" y="172" width="8" height="8" transform="rotate(90 311 172)" fill="#1C1C1C"/>
<rect width="16" height="16" transform="matrix(-1 0 0 1 190 124)" fill="#1C1C1C"/>
<rect width="80" height="24" transform="matrix(-1 0 0 1 198 132)" fill="#1C1C1C"/>
<rect width="96" height="24" transform="matrix(-1 0 0 1 206 148)" fill="#1C1C1C"/>
<rect width="96" height="24" transform="matrix(-1 0 0 1 206 180)" fill="#1C1C1C"/>
<rect width="104" height="24" transform="matrix(-1 0 0 1 206 220)" fill="#1C1C1C"/>
<rect width="96" height="16" transform="matrix(-1 0 0 1 206 236)" fill="#1C1C1C"/>
<rect width="24" height="16" transform="matrix(-1 0 0 1 198 244)" fill="#1C1C1C"/>
<rect width="24" height="16" transform="matrix(-1 0 0 1 142 244)" fill="#1C1C1C"/>
<rect width="112" height="24" transform="matrix(-1 0 0 1 214 164)" fill="#1C1C1C"/>
<rect width="112" height="32" transform="matrix(-1 0 0 1 214 196)" fill="#1C1C1C"/>
<rect width="128" height="16" transform="matrix(-1 0 0 1 222 204)" fill="#1C1C1C"/>
<rect width="16" height="16" transform="matrix(-1 0 0 1 142 124)" fill="#1C1C1C"/>
<rect width="16" height="16" transform="matrix(-1 0 0 1 190 132)" fill="#252525"/>
<rect width="16" height="16" transform="matrix(-1 0 0 1 214 204)" fill="#252525"/>
<rect width="16" height="16" transform="matrix(-1 0 0 1 118 204)" fill="#252525"/>
<rect width="16" height="16" transform="matrix(-1 0 0 1 126 228)" fill="#252525"/>
<rect width="24" height="16" transform="matrix(-1 0 0 1 142 236)" fill="#252525"/>
<rect width="24" height="16" transform="matrix(-1 0 0 1 198 236)" fill="#252525"/>
<rect width="64" height="16" transform="matrix(-1 0 0 1 190 184)" fill="#252525"/>
<rect width="64" height="16" transform="matrix(-1 0 0 1 190 140)" fill="#252525"/>
<rect width="80" height="24" transform="matrix(-1 0 0 1 198 148)" fill="#252525"/>
<rect width="96" height="24" transform="matrix(-1 0 0 1 206 164)" fill="#252525"/>
<rect width="96" height="24" transform="matrix(-1 0 0 1 206 196)" fill="#252525"/>
<rect width="80" height="32" transform="matrix(-1 0 0 1 198 212)" fill="#252525"/>
<rect width="16" height="16" transform="matrix(-1 0 0 1 142 132)" fill="#252525"/>
<rect width="16" height="8" transform="matrix(0 1 1 0 142 164)" fill="#FFD66B"/>
<rect width="16" height="8" transform="matrix(0 1 1 0 174 164)" fill="#FFD66B"/>
<rect width="8" height="8" transform="matrix(0 1 1 0 158 172)" fill="#1C1C1C"/>
<rect width="8" height="8" transform="matrix(-1 0 0 1 190 132)" fill="#DA806E"/>
<rect width="8" height="8" transform="matrix(-1 0 0 1 134 132)" fill="#DA806E"/>
<rect x="365" y="114" width="10" height="10" fill="#FFFCF2"/>
<rect x="375" y="84" width="40" height="30" fill="#FFFCF2"/>
<rect x="385" y="97" width="4" height="4" fill="#2C2C2C"/>
<rect x="393" y="97" width="4" height="4" fill="#2C2C2C"/>
<rect x="401" y="97" width="4" height="4" fill="#2C2C2C"/>
<rect width="10" height="10" transform="matrix(-1 0 0 1 105 114)" fill="#FFFCF2"/>
<rect width="40" height="30" transform="matrix(-1 0 0 1 95 84)" fill="#FFFCF2"/>
<rect width="4" height="4" transform="matrix(-1 0 0 1 85 97)" fill="#2C2C2C"/>
<rect width="4" height="4" transform="matrix(-1 0 0 1 77 97)" fill="#2C2C2C"/>
<rect width="4" height="4" transform="matrix(-1 0 0 1 69 97)" fill="#2C2C2C"/>
<rect x="40" y="151" width="80" height="24" fill="#6E46A8"/>
<rect x="72" y="175" width="24" height="40" fill="#4A2A80"/>
<rect x="48" y="167" width="80" height="16" fill="#4A2A80"/>
<rect x="48" y="207" width="72" height="24" fill="#6D46A8"/>
<rect x="104" y="209" width="14" height="14" fill="#4A2A80"/>
<rect x="112" y="207" width="8" height="24" fill="#2C2C2C"/>
<rect x="48" y="207" width="8" height="24" fill="#2C2C2C"/>
<rect x="120" y="167" width="8" height="16" fill="#2C2C2C"/>
<rect x="112" y="151" width="8" height="16" fill="#2C2C2C"/>
<rect x="40" y="151" width="8" height="25" fill="#2C2C2C"/>
<rect x="48" y="175" width="80" height="8" fill="#2C2C2C"/>
<rect x="40" y="151" width="80" height="8" fill="#2C2C2C"/>
<rect x="48" y="207" width="32" height="8" fill="#2C2C2C"/>
<rect x="88" y="207" width="32" height="8" fill="#2C2C2C"/>
<rect x="72" y="175" width="8" height="40" fill="#2C2C2C"/>
<rect x="88" y="175" width="8" height="40" fill="#2C2C2C"/>
<rect width="181" height="29" transform="matrix(-1 0 0 1 221 226)" fill="#DCB079"/>
<rect x="40" y="223" width="184" height="8" fill="#2C2C2C"/>
<rect x="216" y="223" width="8" height="32" fill="#2C2C2C"/>
<rect width="80" height="24" transform="matrix(-1 0 0 1 430 151)" fill="#6E46A8"/>
<rect width="24" height="40" transform="matrix(-1 0 0 1 398 175)" fill="#4A2A80"/>
<rect width="80" height="16" transform="matrix(-1 0 0 1 422 167)" fill="#4A2A80"/>
<rect width="72" height="24" transform="matrix(-1 0 0 1 422 207)" fill="#6D46A8"/>
<rect width="14" height="14" transform="matrix(-1 0 0 1 366 209)" fill="#4A2A80"/>
<rect width="8" height="24" transform="matrix(-1 0 0 1 358 207)" fill="#2C2C2C"/>
<rect width="8" height="24" transform="matrix(-1 0 0 1 422 207)" fill="#2C2C2C"/>
<rect width="8" height="16" transform="matrix(-1 0 0 1 350 167)" fill="#2C2C2C"/>
<rect width="8" height="16" transform="matrix(-1 0 0 1 358 151)" fill="#2C2C2C"/>
<rect width="8" height="25" transform="matrix(-1 0 0 1 430 151)" fill="#2C2C2C"/>
<rect width="80" height="8" transform="matrix(-1 0 0 1 422 175)" fill="#2C2C2C"/>
<rect width="80" height="8" transform="matrix(-1 0 0 1 430 151)" fill="#2C2C2C"/>
<rect width="32" height="8" transform="matrix(-1 0 0 1 422 207)" fill="#2C2C2C"/>
<rect width="32" height="8" transform="matrix(-1 0 0 1 382 207)" fill="#2C2C2C"/>
<rect width="8" height="40" transform="matrix(-1 0 0 1 398 175)" fill="#2C2C2C"/>
<rect width="8" height="40" transform="matrix(-1 0 0 1 382 175)" fill="#2C2C2C"/>
<rect x="248" y="225" width="182" height="30" fill="#DCB079"/>
<rect width="184" height="8" transform="matrix(-1 0 0 1 430 223)" fill="#2C2C2C"/>
<rect width="8" height="32" transform="matrix(-1 0 0 1 254 223)" fill="#2C2C2C"/>
<rect x="205" y="280" width="60" height="40" fill="#A54342"/>
<rect x="200" y="280" width="10" height="40" fill="#543136"/>
<rect x="260" y="280" width="10" height="40" fill="#543136"/>
<rect x="120" y="310" width="230" height="10" fill="#543136"/>
<rect x="20" width="430" height="20" fill="#502F32"/>
<rect x="10" y="270" width="450" height="20" fill="#502F32"/>
<rect x="450" y="20" width="20" height="260" fill="#502F32"/>
<rect x="10" y="10" width="20" height="20" fill="#502F32"/>
<rect x="440" y="10" width="20" height="20" fill="#502F32"/>
<rect y="20" width="20" height="260" fill="#502F32"/>
<rect x="20" y="10" width="430" height="20" fill="#A54342"/>
<rect x="10" y="260" width="450" height="20" fill="#A54342"/>
<rect x="440" y="20" width="20" height="260" fill="#A54342"/>
<rect x="10" y="20" width="20" height="260" fill="#A54342"/>
<rect x="20" y="20" width="20" height="250" fill="#DE806C"/>
<rect x="430" y="20" width="20" height="250" fill="#DE806C"/>
<rect x="20" y="240" width="430" height="30" fill="#DE806C"/>
<rect x="20" y="20" width="430" height="20" fill="#DE806C"/>
<rect x="30" y="240" width="410" height="10" fill="#502F32"/>
<rect x="30" y="30" width="410" height="10" fill="#502F32"/>
<rect x="30" y="30" width="10" height="220" fill="#502F32"/>
<rect x="430" y="30" width="10" height="220" fill="#502F32"/>
</svg>
