<svg width="288" height="306" viewBox="0 0 288 306" fill="none" xmlns="http://www.w3.org/2000/svg">
<rect x="72" y="108" width="126" height="54" fill="#FEF6D8"/>
<rect x="234" y="90" width="180" height="36" transform="rotate(180 234 90)" fill="#FDC884"/>
<rect x="108" y="36" width="54" height="36" transform="rotate(90 108 36)" fill="#FDC884"/>
<rect x="36" y="180" width="18" height="18" fill="#1C1C1C"/>
<rect x="234" y="162" width="36" height="18" fill="#1C1C1C"/>
<rect x="252" y="180" width="18" height="18" fill="#FEF6D8"/>
<rect x="234" y="180" width="18" height="18" fill="#1C1C1C"/>
<rect x="252" y="198" width="18" height="18" fill="#FDC884"/>
<rect x="234" y="54" width="18" height="18" transform="rotate(90 234 54)" fill="#FDC884"/>
<rect x="234" y="72" width="18" height="18" transform="rotate(90 234 72)" fill="#FDC884"/>
<rect x="126" y="72" width="18" height="18" fill="#FDC884"/>
<rect x="144" y="72" width="18" height="18" fill="#FDC884"/>
<rect x="162" y="72" width="18" height="18" fill="#FDC884"/>
<rect x="180" y="72" width="18" height="18" fill="#FDC884"/>
<rect x="198" y="72" width="18" height="18" fill="#FDC884"/>
<rect x="108" y="90" width="54" height="18" fill="#FDC884"/>
<rect x="126" y="90" width="18" height="18" fill="#FDC884"/>
<rect x="144" y="90" width="18" height="18" fill="#FDC884"/>
<rect x="36" y="90" width="54" height="18" fill="#FDC884"/>
<rect x="180" y="90" width="72" height="18" fill="#FDC884"/>
<rect x="198" y="90" width="18" height="18" fill="#FDC884"/>
<rect x="216" y="90" width="18" height="18" fill="#FDC884"/>
<rect x="216" y="72" width="18" height="18" transform="rotate(180 216 72)" fill="#FDC884"/>
<rect x="216" y="36" width="18" height="18" transform="rotate(90 216 36)" fill="#FDC884"/>
<rect x="216" y="216" width="18" height="18" fill="#5E3826"/>
<rect x="216" y="234" width="18" height="18" fill="#5E3826"/>
<rect x="54" y="234" width="198" height="18" fill="#5E3826"/>
<rect x="216" y="252" width="18" height="18" fill="#1C1C1C"/>
<rect x="108" y="252" width="18" height="18" fill="#1C1C1C"/>
<rect x="36" y="252" width="234" height="18" fill="#1C1C1C"/>
<rect x="198" y="234" width="18" height="18" fill="#5E3826"/>
<rect x="198" y="252" width="18" height="18" fill="#1C1C1C"/>
<rect x="90" y="234" width="18" height="18" fill="#5E3826"/>
<rect x="90" y="252" width="18" height="18" fill="#1C1C1C"/>
<rect x="72" y="234" width="18" height="18" fill="#5E3826"/>
<rect x="72" y="252" width="18" height="18" fill="#1C1C1C"/>
<rect x="54" y="234" width="18" height="18" fill="#5E3826"/>
<rect x="54" y="252" width="18" height="18" fill="#1C1C1C"/>
<rect x="180" y="252" width="18" height="18" fill="#1C1C1C"/>
<rect x="162" y="252" width="18" height="18" fill="#1C1C1C"/>
<rect x="144" y="252" width="18" height="18" fill="#1C1C1C"/>
<rect x="126" y="252" width="18" height="18" fill="#1C1C1C"/>
<rect x="54" y="198" width="18" height="18" fill="#5E3826"/>
<rect x="54" y="216" width="18" height="18" fill="#5E3826"/>
<rect x="72" y="198" width="18" height="18" fill="#1C1C1C"/>
<rect x="72" y="216" width="162" height="36" fill="#5E3826"/>
<rect x="72" y="162" width="18" height="18" fill="#1C1C1C"/>
<rect x="72" y="180" width="18" height="18" fill="#1C1C1C"/>
<rect x="54" y="162" width="18" height="18" fill="#1C1C1C"/>
<rect x="54" y="180" width="18" height="72" fill="#5E3826"/>
<rect x="18" y="180" width="18" height="18" fill="#FEF6D8"/>
<rect x="18" y="198" width="18" height="18" fill="#FDC884"/>
<rect x="234" y="216" width="18" height="18" transform="rotate(180 234 216)" fill="#5E3826"/>
<rect x="234" y="162" width="90" height="18" transform="rotate(90 234 162)" fill="#5E3826"/>
<rect x="234" y="180" width="18" height="18" transform="rotate(90 234 180)" fill="#5E3826"/>
<rect x="198" y="18" width="18" height="18" transform="rotate(90 198 18)" fill="#FDC884"/>
<rect x="198" y="36" width="18" height="18" transform="rotate(90 198 36)" fill="#FDC884"/>
<rect x="198" y="54" width="18" height="18" transform="rotate(90 198 54)" fill="#FDC884"/>
<rect x="180" y="36.0547" width="18" height="18" transform="rotate(90 180 36.0547)" fill="#FDC884"/>
<rect x="216" y="36" width="36" height="54" transform="rotate(90 216 36)" fill="#FDC884"/>
<rect x="144" y="36.0547" width="18" height="18" transform="rotate(90 144 36.0547)" fill="#FDC884"/>
<rect x="144" y="36" width="36" height="18" transform="rotate(90 144 36)" fill="#FDC884"/>
<rect x="216" y="54" width="144" height="36" transform="rotate(180 216 54)" fill="#FDC884"/>
<rect x="234" y="90" width="18" height="18" fill="#FDC884"/>
<rect x="198" y="126" width="18" height="18" fill="#FDC884"/>
<rect x="216" y="126" width="18" height="18" fill="#FDC884"/>
<rect x="198" y="126" width="54" height="18" fill="#FDC884"/>
<rect x="126" y="36" width="36" height="18" transform="rotate(90 126 36)" fill="#DB8431"/>
<rect x="126" y="54" width="18" height="18" transform="rotate(90 126 54)" fill="#DB8431"/>
<rect x="144" y="72" width="36" height="18" transform="rotate(-90 144 72)" fill="#DB8431"/>
<rect x="162" y="54" width="18" height="18" transform="rotate(90 162 54)" fill="#DB8431"/>
<rect x="198" y="108" width="54" height="18" fill="#DB8431"/>
<rect x="216" y="108" width="18" height="18" fill="#DB8431"/>
<rect x="198" y="108" width="54" height="18" fill="#DB8431"/>
<rect x="36" y="108" width="36" height="18" fill="#DB8431"/>
<rect x="36" y="162" width="18" height="18" fill="#1C1C1C"/>
<rect x="36" y="198" width="18" height="18" fill="#1C1C1C"/>
<rect x="234" y="144" width="18" height="90" fill="#1C1C1C"/>
<rect x="72" y="18" width="18" height="18" fill="#DA806E"/>
<rect x="198" y="18" width="18" height="18" fill="#DA806E"/>
<rect x="72" width="36" height="18" fill="#1C1C1C"/>
<rect x="234" y="252" width="18" height="36" fill="#1C1C1C"/>
<rect x="18" y="162" width="198" height="18" fill="#1C1C1C"/>
<rect x="90" width="18" height="18" fill="#1C1C1C"/>
<rect x="108" y="18" width="72" height="18" fill="#1C1C1C"/>
<rect x="126" y="18" width="18" height="18" fill="#1C1C1C"/>
<rect x="36" y="144" width="18" height="144" fill="#1C1C1C"/>
<rect x="36" y="144" width="36" height="32" fill="#1C1C1C"/>
<rect x="18" y="216" width="36" height="18" fill="#1C1C1C"/>
<rect x="36" y="216" width="18" height="18" fill="#1C1C1C"/>
<rect x="234" y="216" width="18" height="18" fill="#1C1C1C"/>
<rect x="234" y="216" width="36" height="18" fill="#1C1C1C"/>
<rect x="216" y="144" width="18" height="18" fill="#1C1C1C"/>
<rect x="234" y="144" width="18" height="18" fill="#1C1C1C"/>
<rect x="144" y="18" width="18" height="18" fill="#1C1C1C"/>
<rect x="162" y="18" width="18" height="18" fill="#1C1C1C"/>
<rect x="180" width="18" height="18" fill="#1C1C1C"/>
<rect x="180" width="36" height="18" fill="#1C1C1C"/>
<rect x="234" y="18" width="18" height="18" transform="rotate(90 234 18)" fill="#1C1C1C"/>
<rect x="234" y="18" width="36" height="18" transform="rotate(90 234 18)" fill="#1C1C1C"/>
<rect x="108" y="90" width="18" height="18" transform="rotate(90 108 90)" fill="#1C1C1C"/>
<rect x="108" y="90" width="36" height="18" transform="rotate(90 108 90)" fill="#1C1C1C"/>
<rect x="180" y="90" width="18" height="18" transform="rotate(90 180 90)" fill="#1C1C1C"/>
<rect x="180" y="90" width="36" height="18" transform="rotate(90 180 90)" fill="#1C1C1C"/>
<rect x="144" y="108" width="18" height="18" transform="rotate(90 144 108)" fill="#1C1C1C"/>
<rect x="72" y="18" width="36" height="18" transform="rotate(90 72 18)" fill="#1C1C1C"/>
<rect x="72" y="36" width="18" height="18" transform="rotate(90 72 36)" fill="#1C1C1C"/>
<rect x="18" y="180" width="36" height="18" transform="rotate(90 18 180)" fill="#1C1C1C"/>
<rect x="18" y="198" width="18" height="18" transform="rotate(90 18 198)" fill="#1C1C1C"/>
<rect width="36" height="18" transform="matrix(-1 0 0 1 270 162)" fill="#1C1C1C"/>
<rect width="36" height="18" transform="matrix(0 1 1 0 270 180)" fill="#1C1C1C"/>
<rect width="18" height="18" transform="matrix(0 1 1 0 270 198)" fill="#1C1C1C"/>
<rect x="54" y="54" width="36" height="18" transform="rotate(90 54 54)" fill="#1C1C1C"/>
<rect x="54" y="72" width="18" height="18" transform="rotate(90 54 72)" fill="#1C1C1C"/>
<rect x="252" y="54" width="36" height="18" transform="rotate(90 252 54)" fill="#1C1C1C"/>
<rect x="252" y="72" width="18" height="18" transform="rotate(90 252 72)" fill="#1C1C1C"/>
<rect x="270" y="126" width="18" height="18" transform="rotate(90 270 126)" fill="#1C1C1C"/>
<rect x="270" y="90" width="54" height="18" transform="rotate(90 270 90)" fill="#1C1C1C"/>
<rect x="270" y="108" width="18" height="18" transform="rotate(90 270 108)" fill="#1C1C1C"/>
<rect x="270" y="252" width="18" height="18" transform="rotate(90 270 252)" fill="#1C1C1C"/>
<rect x="270" y="216" width="54" height="18" transform="rotate(90 270 216)" fill="#1C1C1C"/>
<rect x="36" y="126" width="18" height="18" transform="rotate(90 36 126)" fill="#1C1C1C"/>
<rect x="36" y="90" width="54" height="18" transform="rotate(90 36 90)" fill="#1C1C1C"/>
<rect x="36" y="108" width="18" height="18" transform="rotate(90 36 108)" fill="#1C1C1C"/>
<rect x="234" y="306" width="54" height="18" transform="rotate(180 234 306)" fill="#1C1C1C"/>
<rect x="234" y="306" width="18" height="18" transform="rotate(180 234 306)" fill="#1C1C1C"/>
<rect x="216" y="306" width="18" height="18" transform="rotate(180 216 306)" fill="#1C1C1C"/>
<rect x="108" y="306" width="54" height="18" transform="rotate(180 108 306)" fill="#1C1C1C"/>
<rect x="108" y="306" width="18" height="18" transform="rotate(180 108 306)" fill="#1C1C1C"/>
<rect x="90" y="306" width="18" height="18" transform="rotate(180 90 306)" fill="#1C1C1C"/>
<rect x="144" y="288" width="18" height="18" transform="rotate(180 144 288)" fill="#1C1C1C"/>
<rect x="126" y="288" width="18" height="18" transform="rotate(180 126 288)" fill="#1C1C1C"/>
<rect x="180" y="288" width="72" height="36" transform="rotate(180 180 288)" fill="#1C1C1C"/>
<rect x="162" y="288" width="18" height="18" transform="rotate(180 162 288)" fill="#1C1C1C"/>
<rect x="36" y="270" width="18" height="18" transform="rotate(-90 36 270)" fill="#1C1C1C"/>
<rect x="36" y="252" width="18" height="18" transform="rotate(-90 36 252)" fill="#1C1C1C"/>
<rect x="36" y="288" width="144" height="18" transform="rotate(-90 36 288)" fill="#1C1C1C"/>
<rect x="144" y="180" width="18" height="18" fill="#FEF6D8"/>
<rect x="126" y="180" width="18" height="18" fill="#FEF6D8"/>
<rect x="144" y="144" width="18" height="18" fill="#FEF6D8"/>
<rect x="36" y="126" width="36" height="18" fill="#FEF6D8"/>
<rect x="72" y="126" width="18" height="18" fill="#FEF6D8"/>
<rect x="90" y="126" width="18" height="18" fill="#FEF6D8"/>
<rect x="108" y="126" width="18" height="18" fill="#FEF6D8"/>
<rect x="126" y="126" width="18" height="18" fill="#FEF6D8"/>
<rect x="144" y="126" width="18" height="18" fill="#FEF6D8"/>
<rect x="144" y="108" width="18" height="18" fill="#FEF6D8"/>
<rect x="180" y="108" width="18" height="18" fill="#FEF6D8"/>
<rect x="108" y="108" width="18" height="18" fill="#FEF6D8"/>
<rect x="162" y="126" width="18" height="18" fill="#FEF6D8"/>
<rect x="180" y="126" width="18" height="18" fill="#FEF6D8"/>
<rect x="162" y="144" width="18" height="18" fill="#FEF6D8"/>
<rect x="180" y="144" width="18" height="18" fill="#FEF6D8"/>
<rect x="198" y="144" width="54" height="18" fill="#1C1C1C"/>
<rect x="180" y="162" width="18" height="18" fill="#1C1C1C"/>
<rect x="198" y="144" width="18" height="72" fill="#1C1C1C"/>
<rect x="162" y="180" width="18" height="18" fill="#FEF6D8"/>
<rect x="180" y="180" width="18" height="18" fill="#FEF6D8"/>
<rect x="198" y="180" width="18" height="18" fill="#1C1C1C"/>
<rect x="162" y="198" width="18" height="18" fill="#1C1C1C"/>
<rect x="72" y="198" width="144" height="18" fill="#1C1C1C"/>
<rect x="198" y="198" width="18" height="18" fill="#1C1C1C"/>
<rect x="162" y="216" width="18" height="18" fill="#5E3826"/>
<rect x="180" y="216" width="18" height="18" fill="#5E3826"/>
<rect x="198" y="216" width="18" height="18" fill="#5E3826"/>
<rect x="126" y="144" width="18" height="18" fill="#FEF6D8"/>
<rect x="108" y="158" width="27" height="27" fill="#1C1C1C"/>
<rect x="153" y="158" width="27" height="27" fill="#1C1C1C"/>
<rect x="126" y="162" width="18" height="18" fill="#1C1C1C"/>
<rect x="144" y="162" width="18" height="18" fill="#1C1C1C"/>
<rect x="126" y="198" width="18" height="18" fill="#1C1C1C"/>
<rect x="144" y="198" width="18" height="18" fill="#1C1C1C"/>
<rect x="126" y="216" width="18" height="18" fill="#5E3826"/>
<rect x="144" y="216" width="18" height="18" fill="#5E3826"/>
<rect x="108" y="144" width="18" height="18" fill="#FEF6D8"/>
<rect x="108" y="162" width="18" height="18" fill="#1C1C1C"/>
<rect x="108" y="180" width="18" height="18" fill="#FEF6D8"/>
<rect x="108" y="198" width="18" height="18" fill="#1C1C1C"/>
<rect x="108" y="216" width="18" height="18" fill="#5E3826"/>
<rect x="90" y="144" width="18" height="18" fill="#FEF6D8"/>
<rect x="72" y="144" width="18" height="18" fill="#FEF6D8"/>
<rect x="90" y="162" width="18" height="18" fill="#1C1C1C"/>
<rect x="90" y="180" width="108" height="18" fill="#FEF6D8"/>
<rect x="90" y="198" width="18" height="18" fill="#1C1C1C"/>
<rect x="90" y="216" width="18" height="18" fill="#5E3826"/>
<rect x="180" y="234" width="18" height="18" fill="#5E3826"/>
<rect x="144" y="234" width="18" height="18" fill="#5E3826"/>
<rect x="162" y="234" width="18" height="18" fill="#5E3826"/>
<rect x="126" y="234" width="18" height="18" fill="#5E3826"/>
<rect x="108" y="234" width="18" height="18" fill="#5E3826"/>
<rect x="90" y="270" width="18" height="18" fill="#FEF6D8"/>
<rect x="72" y="270" width="18" height="18" fill="#FEF6D8"/>
<rect x="54" y="270" width="54" height="18" fill="#FEF6D8"/>
<rect x="180" y="270" width="54" height="18" fill="#FEF6D8"/>
<rect x="198" y="270" width="18" height="18" fill="#FEF6D8"/>
<rect x="180" y="270" width="18" height="18" fill="#FEF6D8"/>
<rect x="126" y="176" width="9" height="9" fill="#1C1C1C"/>
<rect x="153" y="176" width="9" height="9" fill="#1C1C1C"/>
<rect x="108" y="153" width="18" height="36" fill="#1C1C1C"/>
<rect x="162" y="153" width="18" height="36" fill="#1C1C1C"/>
<rect x="108" y="180" width="18" height="9" fill="#1C1C1C"/>
<rect x="162" y="180" width="18" height="9" fill="#1C1C1C"/>
<rect x="162" y="162" width="18" height="18" fill="#1C1C1C"/>
<rect x="108" y="72" width="126" height="18" fill="#FDC884"/>
</svg>
