<svg width="116" height="140" viewBox="0 0 116 140" fill="none" xmlns="http://www.w3.org/2000/svg">
<rect x="24.8708" y="8.21753" width="8.21768" height="8.21768" fill="#DA806E"/>
<rect x="82.3945" y="8.21753" width="8.21768" height="8.21768" fill="#DA806E"/>
<rect x="24.8708" width="8.21768" height="8.21768" fill="#1C1C1C"/>
<rect x="98.83" y="123.265" width="8.21768" height="8.21768" fill="#1C1C1C"/>
<rect x="0.217773" y="73.959" width="8.21768" height="8.21768" fill="#1C1C1C"/>
<rect x="33.0885" width="8.21768" height="8.21768" fill="#1C1C1C"/>
<rect x="41.3062" y="8.21753" width="8.21768" height="8.21768" fill="#1C1C1C"/>
<rect x="49.5239" y="8.21753" width="8.21768" height="8.21768" fill="#1C1C1C"/>
<rect x="8.43555" y="65.7412" width="8.21768" height="8.21768" fill="#1C1C1C"/>
<rect x="16.6532" y="65.7412" width="8.21768" height="8.21768" fill="#1C1C1C"/>
<rect x="0.217773" y="98.6121" width="8.21768" height="8.21768" fill="#1C1C1C"/>
<rect x="8.43555" y="98.6121" width="8.21768" height="8.21768" fill="#1C1C1C"/>
<rect x="98.83" y="98.6121" width="8.21768" height="8.21768" fill="#1C1C1C"/>
<rect x="107.048" y="98.6121" width="8.21768" height="8.21768" fill="#1C1C1C"/>
<rect x="90.6123" y="65.7412" width="8.21768" height="8.21768" fill="#1C1C1C"/>
<rect x="98.83" y="65.7412" width="8.21768" height="8.21768" fill="#1C1C1C"/>
<rect x="57.7416" y="8.21753" width="8.21768" height="8.21768" fill="#1C1C1C"/>
<rect x="65.9592" y="8.21753" width="8.21768" height="8.21768" fill="#1C1C1C"/>
<rect x="74.1769" width="8.21768" height="8.21768" fill="#1C1C1C"/>
<rect x="82.3945" width="8.21768" height="8.21768" fill="#1C1C1C"/>
<rect x="98.83" y="8.21753" width="8.21768" height="8.21768" transform="rotate(90 98.83 8.21753)" fill="#1C1C1C"/>
<rect x="98.83" y="16.4353" width="8.21768" height="8.21768" transform="rotate(90 98.83 16.4353)" fill="#1C1C1C"/>
<rect x="41.3062" y="41.0884" width="8.21768" height="8.21768" transform="rotate(90 41.3062 41.0884)" fill="#1C1C1C"/>
<rect x="41.3062" y="49.3059" width="8.21768" height="8.21768" transform="rotate(90 41.3062 49.3059)" fill="#1C1C1C"/>
<rect x="74.1769" y="41.0884" width="8.21768" height="8.21768" transform="rotate(90 74.1769 41.0884)" fill="white"/>
<rect x="74.1769" y="49.3059" width="8.21768" height="8.21768" transform="rotate(90 74.1769 49.3059)" fill="#1C1C1C"/>
<rect x="57.7416" y="49.3059" width="8.21768" height="8.21768" transform="rotate(90 57.7416 49.3059)" fill="#1C1C1C"/>
<rect x="24.8708" y="8.21753" width="8.21768" height="8.21768" transform="rotate(90 24.8708 8.21753)" fill="#1C1C1C"/>
<rect x="24.8708" y="16.4353" width="8.21768" height="8.21768" transform="rotate(90 24.8708 16.4353)" fill="#1C1C1C"/>
<rect width="8.21768" height="8.21768" transform="matrix(-1 0 0 1 115.265 73.959)" fill="#1C1C1C"/>
<rect x="16.6532" y="24.6528" width="8.21768" height="8.21768" transform="rotate(90 16.6532 24.6528)" fill="#1C1C1C"/>
<rect x="16.6532" y="32.8706" width="8.21768" height="8.21768" transform="rotate(90 16.6532 32.8706)" fill="#1C1C1C"/>
<rect x="107.048" y="24.6528" width="8.21768" height="8.21768" transform="rotate(90 107.048 24.6528)" fill="#1C1C1C"/>
<rect x="107.048" y="32.8706" width="8.21768" height="8.21768" transform="rotate(90 107.048 32.8706)" fill="#1C1C1C"/>
<rect x="115.265" y="57.5237" width="8.21768" height="8.21768" transform="rotate(90 115.265 57.5237)" fill="#1C1C1C"/>
<rect x="115.265" y="41.0884" width="8.21768" height="8.21768" transform="rotate(90 115.265 41.0884)" fill="#1C1C1C"/>
<rect x="115.265" y="49.3059" width="8.21768" height="8.21768" transform="rotate(90 115.265 49.3059)" fill="#1C1C1C"/>
<rect x="115.265" y="115.047" width="8.21768" height="8.21768" transform="rotate(90 115.265 115.047)" fill="#1C1C1C"/>
<rect x="115.265" y="106.83" width="8.21768" height="8.21768" transform="rotate(90 115.265 106.83)" fill="#1C1C1C"/>
<rect x="8.43555" y="57.5237" width="8.21768" height="8.21768" transform="rotate(90 8.43555 57.5237)" fill="#1C1C1C"/>
<rect x="8.43555" y="41.0884" width="8.21768" height="8.21768" transform="rotate(90 8.43555 41.0884)" fill="#1C1C1C"/>
<rect x="8.43555" y="49.3059" width="8.21768" height="8.21768" transform="rotate(90 8.43555 49.3059)" fill="#1C1C1C"/>
<rect x="82.3945" y="139.7" width="8.21768" height="8.21768" transform="rotate(180 82.3945 139.7)" fill="#1C1C1C"/>
<rect x="98.83" y="139.7" width="8.21768" height="8.21768" transform="rotate(180 98.83 139.7)" fill="#1C1C1C"/>
<rect x="90.6123" y="139.7" width="8.21768" height="8.21768" transform="rotate(180 90.6123 139.7)" fill="#1C1C1C"/>
<rect x="24.8708" y="139.7" width="8.21768" height="8.21768" transform="rotate(180 24.8708 139.7)" fill="#1C1C1C"/>
<rect x="41.3062" y="139.7" width="8.21768" height="8.21768" transform="rotate(180 41.3062 139.7)" fill="#1C1C1C"/>
<rect x="33.0885" y="139.7" width="8.21768" height="8.21768" transform="rotate(180 33.0885 139.7)" fill="#1C1C1C"/>
<rect x="57.7416" y="131.483" width="8.21768" height="8.21768" transform="rotate(180 57.7416 131.483)" fill="#1C1C1C"/>
<rect x="49.5239" y="131.483" width="8.21768" height="8.21768" transform="rotate(180 49.5239 131.483)" fill="#1C1C1C"/>
<rect x="74.1769" y="131.483" width="8.21768" height="8.21768" transform="rotate(180 74.1769 131.483)" fill="#1C1C1C"/>
<rect x="65.9592" y="131.483" width="8.21768" height="8.21768" transform="rotate(180 65.9592 131.483)" fill="#1C1C1C"/>
<rect x="8.43555" y="123.265" width="8.21768" height="8.21768" transform="rotate(-90 8.43555 123.265)" fill="#1C1C1C"/>
<rect x="8.43555" y="115.047" width="8.21768" height="8.21768" transform="rotate(-90 8.43555 115.047)" fill="#1C1C1C"/>
<rect x="8.43555" y="131.483" width="8.21768" height="8.21768" transform="rotate(-90 8.43555 131.483)" fill="#1C1C1C"/>
<rect x="8.43542" y="82.1768" width="8.21768" height="8.21768" fill="#A69078"/>
<rect x="98.83" y="73.959" width="8.21768" height="8.21768" fill="#A69078"/>
<rect x="107.048" y="82.1768" width="8.21768" height="8.21768" fill="#1C1C1C"/>
<rect x="98.83" y="82.1768" width="8.21768" height="8.21768" fill="#A69078"/>
<rect x="107.048" y="90.3943" width="8.21768" height="8.21768" fill="#1C1C1C"/>
<rect x="98.83" y="24.6528" width="8.21768" height="8.21768" transform="rotate(90 98.83 24.6528)" fill="#A69078"/>
<rect x="98.83" y="32.8706" width="8.21768" height="8.21768" transform="rotate(90 98.83 32.8706)" fill="#A69078"/>
<rect x="16.6532" y="32.8706" width="8.21768" height="8.21768" fill="#A69078"/>
<rect x="24.8708" y="32.8706" width="8.21768" height="8.21768" fill="#A69078"/>
<rect x="33.0885" y="32.8706" width="8.21768" height="8.21768" fill="#A69078"/>
<rect x="41.3062" y="32.8706" width="8.21768" height="8.21768" fill="#A69078"/>
<rect x="49.5239" y="32.8706" width="8.21768" height="8.21768" fill="#A69078"/>
<rect x="57.7416" y="32.8706" width="8.21768" height="8.21768" fill="#A69078"/>
<rect x="65.9592" y="32.8706" width="8.21768" height="8.21768" fill="#A69078"/>
<rect x="74.1769" y="32.8706" width="8.21768" height="8.21768" fill="#A69078"/>
<rect x="82.3945" y="32.8706" width="8.21768" height="8.21768" fill="#A69078"/>
<rect x="41.3062" y="41.0884" width="8.21768" height="8.21768" fill="#A69078"/>
<rect x="49.5239" y="41.0884" width="8.21768" height="8.21768" fill="#A69078"/>
<rect x="57.7416" y="41.0884" width="8.21768" height="8.21768" fill="#A69078"/>
<rect x="8.43542" y="41.0884" width="8.21768" height="8.21768" fill="#A69078"/>
<rect x="16.6532" y="41.0884" width="8.21768" height="8.21768" fill="#A69078"/>
<rect x="24.8708" y="41.0884" width="8.21768" height="8.21768" fill="white"/>
<rect x="74.1769" y="41.0884" width="8.21768" height="8.21768" fill="#1C1C1C"/>
<rect x="82.3945" y="41.0884" width="8.21768" height="8.21768" fill="#A69078"/>
<rect x="90.6123" y="41.0884" width="8.21768" height="8.21768" fill="#A69078"/>
<rect x="90.6123" y="32.8706" width="8.21768" height="8.21768" transform="rotate(180 90.6123 32.8706)" fill="#A69078"/>
<rect x="90.6123" y="16.4353" width="8.21768" height="8.21768" transform="rotate(90 90.6123 16.4353)" fill="#A69078"/>
<rect x="90.6123" y="98.6121" width="8.21768" height="8.21768" fill="#1C1C1C"/>
<rect x="90.6123" y="106.83" width="8.21768" height="8.21768" fill="#A69078"/>
<rect x="98.83" y="106.83" width="8.21768" height="8.21768" fill="#A69078"/>
<rect x="90.6123" y="115.047" width="8.21768" height="8.21768" fill="#A69078"/>
<rect x="41.3062" y="115.047" width="8.21768" height="8.21768" fill="#A69078"/>
<rect x="98.83" y="115.047" width="8.21768" height="8.21768" fill="#A69078"/>
<rect x="82.3945" y="106.83" width="8.21768" height="8.21768" fill="#A69078"/>
<rect x="82.3945" y="115.047" width="8.21768" height="8.21768" fill="#A69078"/>
<rect x="33.0885" y="106.83" width="8.21768" height="8.21768" fill="#A69078"/>
<rect x="33.0885" y="115.047" width="8.21768" height="8.21768" fill="#A69078"/>
<rect x="24.8708" y="106.83" width="8.21768" height="8.21768" fill="#A69078"/>
<rect x="24.8708" y="115.047" width="8.21768" height="8.21768" fill="#A69078"/>
<rect x="16.6532" y="106.83" width="8.21768" height="8.21768" fill="#A69078"/>
<rect x="16.6532" y="115.047" width="8.21768" height="8.21768" fill="#A69078"/>
<rect x="74.1769" y="115.047" width="8.21768" height="8.21768" fill="#A69078"/>
<rect x="65.9592" y="115.047" width="8.21768" height="8.21768" fill="#A69078"/>
<rect x="57.7416" y="115.047" width="8.21768" height="8.21768" fill="#A69078"/>
<rect x="49.5239" y="115.047" width="8.21768" height="8.21768" fill="#A69078"/>
<rect x="16.6532" y="90.3943" width="8.21768" height="8.21768" fill="#A69078"/>
<rect x="16.6532" y="98.6121" width="8.21768" height="8.21768" fill="#1C1C1C"/>
<rect x="24.8708" y="90.3943" width="8.21768" height="8.21768" fill="#1C1C1C"/>
<rect x="24.8708" y="98.6121" width="8.21768" height="8.21768" fill="#1C1C1C"/>
<rect x="24.8708" y="73.959" width="8.21768" height="8.21768" fill="#1C1C1C"/>
<rect x="24.8708" y="82.1768" width="8.21768" height="8.21768" fill="#E95C40"/>
<rect x="16.6532" y="73.959" width="8.21768" height="8.21768" fill="#A69078"/>
<rect x="16.6532" y="82.1768" width="8.21768" height="8.21768" fill="#1C1C1C"/>
<rect x="0.217773" y="82.1768" width="8.21768" height="8.21768" fill="#1C1C1C"/>
<rect x="0.217773" y="90.3943" width="8.21768" height="8.21768" fill="#1C1C1C"/>
<rect x="98.83" y="98.6121" width="8.21768" height="8.21768" transform="rotate(180 98.83 98.6121)" fill="#A69078"/>
<rect x="98.83" y="73.959" width="8.21768" height="8.21768" transform="rotate(90 98.83 73.959)" fill="#A69078"/>
<rect x="98.83" y="82.1768" width="8.21768" height="8.21768" transform="rotate(90 98.83 82.1768)" fill="#A69078"/>
<rect x="82.3945" y="8.21753" width="8.21768" height="8.21768" transform="rotate(90 82.3945 8.21753)" fill="#A69078"/>
<rect x="82.3945" y="16.4353" width="8.21768" height="8.21768" transform="rotate(90 82.3945 16.4353)" fill="#A69078"/>
<rect x="82.3945" y="24.6528" width="8.21768" height="8.21768" transform="rotate(90 82.3945 24.6528)" fill="#A69078"/>
<rect x="74.1769" y="16.4353" width="8.21768" height="8.21768" transform="rotate(90 74.1769 16.4353)" fill="#A69078"/>
<rect x="74.1769" y="24.6528" width="8.21768" height="8.21768" transform="rotate(90 74.1769 24.6528)" fill="#A69078"/>
<rect x="57.7416" y="16.4353" width="8.21768" height="8.21768" transform="rotate(90 57.7416 16.4353)" fill="#A69078"/>
<rect x="57.7416" y="24.6528" width="8.21768" height="8.21768" transform="rotate(90 57.7416 24.6528)" fill="#A69078"/>
<rect x="41.3062" y="16.4353" width="8.21768" height="8.21768" transform="rotate(90 41.3062 16.4353)" fill="#A69078"/>
<rect x="41.3062" y="24.6528" width="8.21768" height="8.21768" transform="rotate(90 41.3062 24.6528)" fill="#A69078"/>
<rect x="33.0885" y="16.4353" width="8.21768" height="8.21768" transform="rotate(90 33.0885 16.4353)" fill="#A69078"/>
<rect x="33.0885" y="24.6528" width="8.21768" height="8.21768" transform="rotate(90 33.0885 24.6528)" fill="#A69078"/>
<rect x="41.3062" y="16.4353" width="8.21768" height="8.21768" transform="rotate(180 41.3062 16.4353)" fill="#A69078"/>
<rect x="24.8708" y="32.8706" width="8.21768" height="8.21768" transform="rotate(180 24.8708 32.8706)" fill="#A69078"/>
<rect x="98.83" y="41.0884" width="8.21768" height="8.21768" fill="#A69078"/>
<rect x="82.3945" y="57.5237" width="8.21768" height="8.21768" fill="#A69078"/>
<rect x="90.6123" y="57.5237" width="8.21768" height="8.21768" fill="#A69078"/>
<rect x="98.83" y="57.5237" width="8.21768" height="8.21768" fill="#A69078"/>
<rect x="49.5239" y="16.4353" width="8.21768" height="8.21768" transform="rotate(90 49.5239 16.4353)" fill="#6F5246"/>
<rect x="49.5239" y="24.6528" width="8.21768" height="8.21768" transform="rotate(90 49.5239 24.6528)" fill="#6F5246"/>
<rect x="57.7416" y="24.6528" width="8.21768" height="8.21768" transform="rotate(-90 57.7416 24.6528)" fill="#6F5246"/>
<rect x="65.9592" y="24.6528" width="8.21768" height="8.21768" transform="rotate(90 65.9592 24.6528)" fill="#6F5246"/>
<rect x="82.3945" y="49.3059" width="8.21768" height="8.21768" fill="#6F5246"/>
<rect x="90.6123" y="49.3059" width="8.21768" height="8.21768" fill="#6F5246"/>
<rect x="98.83" y="49.3059" width="8.21768" height="8.21768" fill="#6F5246"/>
<rect x="8.43542" y="49.3059" width="8.21768" height="8.21768" fill="#6F5246"/>
<rect x="16.6532" y="49.3059" width="8.21768" height="8.21768" fill="#6F5246"/>
<rect x="8.43542" y="73.959" width="8.21768" height="8.21768" fill="#6F5246"/>
<rect x="8.43542" y="90.3943" width="8.21768" height="8.21768" fill="#6F5246"/>
<rect x="98.83" y="90.3943" width="8.21768" height="8.21768" fill="#6F5246"/>
<rect x="8.43542" y="57.5237" width="8.21768" height="8.21768" fill="#DBD5C3"/>
<rect x="16.6532" y="57.5237" width="8.21768" height="8.21768" fill="#DBD5C3"/>
<rect x="24.8708" y="57.5237" width="8.21768" height="8.21768" fill="#A4DCE9"/>
<rect x="33.0885" y="57.5237" width="8.21768" height="8.21768" fill="#DBD5C3"/>
<rect x="41.3062" y="57.5237" width="8.21768" height="8.21768" fill="#DBD5C3"/>
<rect x="49.5239" y="57.5237" width="8.21768" height="8.21768" fill="#DBD5C3"/>
<rect x="57.7416" y="57.5237" width="8.21768" height="8.21768" fill="#DBD5C3"/>
<rect x="57.7416" y="49.3059" width="8.21768" height="8.21768" fill="#DBD5C3"/>
<rect x="74.1769" y="49.3059" width="8.21768" height="8.21768" fill="#1C1C1C"/>
<rect x="41.3062" y="49.3059" width="8.21768" height="8.21768" fill="#DBD5C3"/>
<rect x="24.8708" y="49.3059" width="8.21768" height="8.21768" fill="#1C1C1C"/>
<rect x="65.9592" y="57.5237" width="8.21768" height="8.21768" fill="#DBD5C3"/>
<rect x="74.1769" y="57.5237" width="8.21768" height="8.21768" fill="#A4DCE9"/>
<rect x="65.9592" y="65.7412" width="8.21768" height="8.21768" fill="#1C1C1C"/>
<rect x="74.1769" y="65.7412" width="8.21768" height="8.21768" fill="#A4DCE9"/>
<rect x="82.3945" y="65.7412" width="8.21768" height="8.21768" fill="#DBD5C3"/>
<rect x="65.9592" y="73.959" width="8.21768" height="8.21768" fill="#E95C40"/>
<rect x="74.1769" y="73.959" width="8.21768" height="8.21768" fill="#1C1C1C"/>
<rect x="82.3945" y="73.959" width="8.21768" height="8.21768" fill="#DBD5C3"/>
<rect x="65.9592" y="82.1768" width="8.21768" height="8.21768" fill="#E95C40"/>
<rect x="74.1769" y="82.1768" width="8.21768" height="8.21768" fill="#E95C40"/>
<rect x="82.3945" y="82.1768" width="8.21768" height="8.21768" fill="#1C1C1C"/>
<rect x="65.9592" y="90.3943" width="8.21768" height="8.21768" fill="#E95C40"/>
<rect x="74.1769" y="90.3943" width="8.21768" height="8.21768" fill="#1C1C1C"/>
<rect x="82.3945" y="90.3943" width="8.21768" height="8.21768" fill="#DBD5C3"/>
<rect x="65.9592" y="98.6121" width="8.21768" height="8.21768" fill="#1C1C1C"/>
<rect x="74.1769" y="98.6121" width="8.21768" height="8.21768" fill="#DBD5C3"/>
<rect x="82.3945" y="98.6121" width="8.21768" height="8.21768" fill="#1C1C1C"/>
<rect x="49.5239" y="65.7412" width="8.21768" height="8.21768" fill="#DBD5C3"/>
<rect x="57.7416" y="65.7412" width="8.21768" height="8.21768" fill="#1C1C1C"/>
<rect x="49.5239" y="73.959" width="8.21768" height="8.21768" fill="#1C1C1C"/>
<rect x="57.7416" y="73.959" width="8.21768" height="8.21768" fill="#E95C40"/>
<rect x="49.5239" y="82.1768" width="8.21768" height="8.21768" fill="#E95C40"/>
<rect x="57.7416" y="82.1768" width="8.21768" height="8.21768" fill="#E95C40"/>
<rect x="49.5239" y="90.3943" width="8.21768" height="8.21768" fill="#E95C40"/>
<rect x="57.7416" y="90.3943" width="8.21768" height="8.21768" fill="#E95C40"/>
<rect x="49.5239" y="98.6121" width="8.21768" height="8.21768" fill="#E95C40"/>
<rect x="57.7416" y="98.6121" width="8.21768" height="8.21768" fill="#E95C40"/>
<rect x="41.3062" y="65.7412" width="8.21768" height="8.21768" fill="#1C1C1C"/>
<rect x="41.3062" y="73.959" width="8.21768" height="8.21768" fill="#E95C40"/>
<rect x="41.3062" y="82.1768" width="8.21768" height="8.21768" fill="#E95C40"/>
<rect x="41.3062" y="90.3943" width="8.21768" height="8.21768" fill="#E95C40"/>
<rect x="41.3062" y="98.6121" width="8.21768" height="8.21768" fill="#E95C40"/>
<rect x="33.0885" y="65.7412" width="8.21768" height="8.21768" fill="#1C1C1C"/>
<rect x="24.8708" y="65.7412" width="8.21768" height="8.21768" fill="#A4DCE9"/>
<rect x="33.0885" y="73.959" width="8.21768" height="8.21768" fill="#E95C40"/>
<rect x="33.0885" y="82.1768" width="8.21768" height="8.21768" fill="#E95C40"/>
<rect x="33.0885" y="90.3943" width="8.21768" height="8.21768" fill="#E95C40"/>
<rect x="33.0885" y="98.6121" width="8.21768" height="8.21768" fill="#1C1C1C"/>
<rect x="74.1769" y="106.83" width="8.21768" height="8.21768" fill="#DBD5C3"/>
<rect x="57.7416" y="106.83" width="8.21768" height="8.21768" fill="#1C1C1C"/>
<rect x="65.9592" y="106.83" width="8.21768" height="8.21768" fill="#DBD5C3"/>
<rect x="49.5239" y="106.83" width="8.21768" height="8.21768" fill="#1C1C1C"/>
<rect x="41.3062" y="106.83" width="8.21768" height="8.21768" fill="#1C1C1C"/>
<rect x="33.0885" y="123.265" width="8.21768" height="8.21768" fill="#DBD5C3"/>
<rect x="24.8708" y="123.265" width="8.21768" height="8.21768" fill="#DBD5C3"/>
<rect x="16.6532" y="123.265" width="8.21768" height="8.21768" fill="#DBD5C3"/>
<rect x="90.6123" y="123.265" width="8.21768" height="8.21768" fill="#DBD5C3"/>
<rect x="82.3945" y="123.265" width="8.21768" height="8.21768" fill="#DBD5C3"/>
<rect x="74.1769" y="123.265" width="8.21768" height="8.21768" fill="#DBD5C3"/>
</svg>
