<svg width="376" height="288" viewBox="0 0 376 288" fill="none" xmlns="http://www.w3.org/2000/svg">
<rect x="5" y="89.7827" width="366" height="189.217" fill="#A54342"/>
<rect width="330" height="10.8406" transform="matrix(1 0 0 -1 23 90.7681)" fill="#A54342"/>
<rect width="305" height="8.86957" transform="matrix(1 0 0 -1 32 80.9131)" fill="#A54342"/>
<rect width="272" height="9.85507" transform="matrix(1 0 0 -1 55 73.0291)" fill="#A54342"/>
<rect width="234" height="9.85507" transform="matrix(1 0 0 -1 71 65.145)" fill="#A54342"/>
<rect width="202" height="8.86957" transform="matrix(1 0 0 -1 87 56.2754)" fill="#A54342"/>
<rect width="138" height="8.86957" transform="matrix(1 0 0 -1 119 48.3914)" fill="#A54342"/>
<rect width="106" height="8.86957" transform="matrix(1 0 0 -1 135 40.5073)" fill="#A54342"/>
<rect width="74" height="8.86957" transform="matrix(1 0 0 -1 151 32.6233)" fill="#A54342"/>
<rect width="42" height="8.86957" transform="matrix(1 0 0 -1 167 24.739)" fill="#A54342"/>
<rect width="11" height="9.85507" transform="matrix(1 0 0 -1 182 16.855)" fill="#A54342"/>
<rect x="240" y="24" width="8" height="16" fill="#1C1C1C"/>
<rect x="224" y="16" width="8" height="16" fill="#1C1C1C"/>
<rect x="208" y="8" width="8" height="16" fill="#1C1C1C"/>
<rect x="192" width="8" height="16" fill="#1C1C1C"/>
<rect x="256" y="32" width="8" height="16" fill="#1C1C1C"/>
<rect x="256" y="40" width="24" height="8" fill="#1C1C1C"/>
<rect x="272" y="40" width="8" height="16" fill="#1C1C1C"/>
<rect x="272" y="48" width="24" height="8" fill="#1C1C1C"/>
<rect x="288" y="48" width="8" height="16" fill="#1C1C1C"/>
<rect x="288" y="56" width="24" height="8" fill="#1C1C1C"/>
<rect x="304" y="56" width="8" height="16" fill="#1C1C1C"/>
<rect x="304" y="64" width="24" height="8" fill="#1C1C1C"/>
<rect x="320" y="64" width="8" height="16" fill="#1C1C1C"/>
<rect x="320" y="72" width="24" height="8" fill="#1C1C1C"/>
<rect x="336" y="72" width="8" height="16" fill="#1C1C1C"/>
<rect x="336" y="80" width="24" height="8" fill="#1C1C1C"/>
<rect x="352" y="80" width="8" height="16" fill="#1C1C1C"/>
<rect x="352" y="88" width="24" height="8" fill="#1C1C1C"/>
<rect x="208" y="16" width="24" height="8" fill="#1C1C1C"/>
<rect x="224" y="24" width="24" height="8" fill="#1C1C1C"/>
<rect x="240" y="32" width="24" height="8" fill="#1C1C1C"/>
<rect width="24" height="8" transform="matrix(-1 0 0 1 216 8)" fill="#1C1C1C"/>
<rect x="176" width="24" height="8" fill="#1C1C1C"/>
<rect width="8" height="16" transform="matrix(-1 0 0 1 136 24)" fill="#1C1C1C"/>
<rect width="8" height="16" transform="matrix(-1 0 0 1 152 16)" fill="#1C1C1C"/>
<rect width="8" height="16" transform="matrix(-1 0 0 1 168 8)" fill="#1C1C1C"/>
<rect width="8" height="16" transform="matrix(-1 0 0 1 184 0)" fill="#1C1C1C"/>
<rect width="8" height="16" transform="matrix(-1 0 0 1 120 32)" fill="#1C1C1C"/>
<rect width="24" height="8" transform="matrix(-1 0 0 1 120 40)" fill="#1C1C1C"/>
<rect width="8" height="16" transform="matrix(-1 0 0 1 104 40)" fill="#1C1C1C"/>
<rect width="24" height="8" transform="matrix(-1 0 0 1 104 48)" fill="#1C1C1C"/>
<rect width="8" height="16" transform="matrix(-1 0 0 1 88 48)" fill="#1C1C1C"/>
<rect width="24" height="8" transform="matrix(-1 0 0 1 88 56)" fill="#1C1C1C"/>
<rect width="8" height="16" transform="matrix(-1 0 0 1 72 56)" fill="#1C1C1C"/>
<rect width="24" height="8" transform="matrix(-1 0 0 1 72 64)" fill="#1C1C1C"/>
<rect width="8" height="16" transform="matrix(-1 0 0 1 56 64)" fill="#1C1C1C"/>
<rect width="24" height="8" transform="matrix(-1 0 0 1 56 72)" fill="#1C1C1C"/>
<rect width="8" height="16" transform="matrix(-1 0 0 1 40 72)" fill="#1C1C1C"/>
<rect width="24" height="8" transform="matrix(-1 0 0 1 40 80)" fill="#1C1C1C"/>
<rect width="8" height="16" transform="matrix(-1 0 0 1 24 80)" fill="#1C1C1C"/>
<rect width="24" height="8" transform="matrix(-1 0 0 1 24 88)" fill="#1C1C1C"/>
<rect width="24" height="8" transform="matrix(-1 0 0 1 168 16)" fill="#1C1C1C"/>
<rect width="24" height="8" transform="matrix(-1 0 0 1 152 24)" fill="#1C1C1C"/>
<rect width="24" height="8" transform="matrix(-1 0 0 1 136 32)" fill="#1C1C1C"/>
<rect x="160" y="8" width="24" height="8" fill="#1C1C1C"/>
<rect x="32" y="28" width="311" height="172" fill="#FFFCF2"/>
<rect x="221.868" y="52" width="14.9338" height="14.9338" fill="#1C1C1C"/>
<rect x="214.401" y="59.4668" width="74.6691" height="22.4007" fill="#1C1C1C"/>
<rect x="206.934" y="74.4006" width="89.6029" height="22.4007" fill="#1C1C1C"/>
<rect x="206.934" y="104.268" width="89.6029" height="22.4007" fill="#1C1C1C"/>
<rect x="206.934" y="141.603" width="97.0698" height="22.4007" fill="#1C1C1C"/>
<rect x="206.934" y="156.537" width="89.6029" height="14.9338" fill="#1C1C1C"/>
<rect x="214.401" y="164.004" width="22.4007" height="14.9338" fill="#1C1C1C"/>
<rect x="266.669" y="164.004" width="22.4007" height="14.9338" fill="#1C1C1C"/>
<rect x="199.467" y="89.3345" width="104.537" height="22.4007" fill="#1C1C1C"/>
<rect x="199.467" y="119.202" width="104.537" height="29.8676" fill="#1C1C1C"/>
<rect x="192" y="126.669" width="119.471" height="14.9338" fill="#1C1C1C"/>
<rect x="266.669" y="52" width="14.9338" height="14.9338" fill="#1C1C1C"/>
<rect x="221.868" y="59.4668" width="14.9338" height="14.9338" fill="#DAB5A7"/>
<rect x="199.467" y="126.669" width="14.9338" height="14.9338" fill="#DAB5A7"/>
<rect x="289.07" y="126.669" width="14.9338" height="14.9338" fill="#DAB5A7"/>
<rect x="281.603" y="149.07" width="14.9338" height="14.9338" fill="#DAB5A7"/>
<rect x="266.669" y="156.537" width="22.4007" height="14.9338" fill="#EBD9D6"/>
<rect x="214.401" y="156.537" width="22.4007" height="14.9338" fill="#EBD9D6"/>
<rect x="221.868" y="108.002" width="59.7353" height="14.9338" fill="#EBD9D6"/>
<rect x="221.868" y="66.9338" width="59.7353" height="14.9338" fill="#DAB5A7"/>
<rect x="214.401" y="74.4006" width="74.6691" height="22.4007" fill="#DAB5A7"/>
<rect x="206.934" y="89.3345" width="89.6029" height="22.4007" fill="#DAB5A7"/>
<rect x="206.934" y="119.202" width="89.6029" height="22.4007" fill="#DAB5A7"/>
<rect x="214.401" y="134.136" width="74.6691" height="29.8676" fill="#DAB5A7"/>
<rect x="266.669" y="59.4668" width="14.9338" height="14.9338" fill="#DAB5A7"/>
<rect x="236.802" y="66.9338" width="7.46691" height="14.9338" fill="#C68379"/>
<rect x="251.735" y="66.9338" width="7.46691" height="14.9338" fill="#C68379"/>
<rect x="274.136" y="96.8015" width="22.4007" height="7.46691" fill="#C68379"/>
<rect x="206.934" y="119.202" width="7.46691" height="7.46691" fill="#C68379"/>
<rect x="289.07" y="134.136" width="7.46691" height="7.46691" fill="#C68379"/>
<rect x="206.934" y="134.136" width="7.46691" height="7.46691" fill="#C68379"/>
<rect x="221.868" y="59.4668" width="7.46691" height="7.46691" fill="#DA806E"/>
<rect x="274.136" y="59.4668" width="7.46691" height="7.46691" fill="#DA806E"/>
<rect x="206.934" y="96.8015" width="67.2022" height="14.9338" fill="#EBD9D6"/>
<rect x="229.335" y="111.735" width="52.2684" height="37.3346" fill="#EBD9D6"/>
<rect x="236.802" y="141.603" width="37.3346" height="14.9338" fill="#EBD9D6"/>
<rect x="206.934" y="96.8015" width="14.9338" height="7.46691" fill="#C68379"/>
<rect x="266.669" y="89.3345" width="14.9338" height="7.46691" transform="rotate(90 266.669 89.3345)" fill="#1C1C1C"/>
<rect x="236.802" y="89.3345" width="14.9338" height="7.46691" transform="rotate(90 236.802 89.3345)" fill="#1C1C1C"/>
<rect x="251.735" y="96.8015" width="7.46691" height="7.46691" transform="rotate(90 251.735 96.8015)" fill="#1C1C1C"/>
<rect x="222.801" y="84.6677" width="16.8006" height="1.86673" fill="#535353"/>
<rect x="241.468" y="94.0015" width="13.0671" height="1.86673" fill="#535353"/>
<rect x="222.801" y="107.068" width="16.8006" height="1.86673" fill="#535353"/>
<rect x="241.468" y="88.4011" width="1.86673" height="16.8006" fill="#535353"/>
<rect x="219.067" y="88.4011" width="1.86673" height="16.8006" fill="#535353"/>
<rect x="221.867" y="85.6011" width="1.86673" height="1.86673" fill="#535353"/>
<rect x="220.934" y="86.5344" width="1.86673" height="1.86673" fill="#535353"/>
<rect x="220.001" y="87.4678" width="1.86673" height="1.86673" fill="#535353"/>
<rect x="240.535" y="104.268" width="1.86673" height="1.86673" fill="#535353"/>
<rect x="239.601" y="105.202" width="1.86673" height="1.86673" fill="#535353"/>
<rect x="238.668" y="106.135" width="1.86673" height="1.86673" fill="#535353"/>
<rect width="1.86673" height="1.86673" transform="matrix(-1 0 0 1 240.535 85.6011)" fill="#535353"/>
<rect width="1.86673" height="1.86673" transform="matrix(-1 0 0 1 241.468 86.5344)" fill="#535353"/>
<rect width="1.86673" height="1.86673" transform="matrix(-1 0 0 1 242.401 87.4678)" fill="#535353"/>
<rect width="1.86673" height="1.86673" transform="matrix(-1 0 0 1 221.867 104.268)" fill="#535353"/>
<rect width="1.86673" height="1.86673" transform="matrix(-1 0 0 1 222.801 105.202)" fill="#535353"/>
<rect width="1.86673" height="1.86673" transform="matrix(-1 0 0 1 223.734 106.135)" fill="#535353"/>
<rect x="256.402" y="84.6677" width="16.8006" height="1.86673" fill="#535353"/>
<rect x="256.402" y="107.068" width="16.8006" height="1.86673" fill="#535353"/>
<rect x="275.069" y="88.4011" width="1.86673" height="16.8006" fill="#535353"/>
<rect x="252.668" y="88.4011" width="1.86673" height="16.8006" fill="#535353"/>
<rect x="255.469" y="85.6011" width="1.86673" height="1.86673" fill="#535353"/>
<rect x="254.535" y="86.5344" width="1.86673" height="1.86673" fill="#535353"/>
<rect x="253.602" y="87.4678" width="1.86673" height="1.86673" fill="#535353"/>
<rect x="274.136" y="104.268" width="1.86673" height="1.86673" fill="#535353"/>
<rect x="273.202" y="105.202" width="1.86673" height="1.86673" fill="#535353"/>
<rect x="272.269" y="106.135" width="1.86673" height="1.86673" fill="#535353"/>
<rect width="1.86673" height="1.86673" transform="matrix(-1 0 0 1 274.136 85.6011)" fill="#535353"/>
<rect width="1.86673" height="1.86673" transform="matrix(-1 0 0 1 275.069 86.5344)" fill="#535353"/>
<rect width="1.86673" height="1.86673" transform="matrix(-1 0 0 1 276.002 87.4678)" fill="#535353"/>
<rect width="1.86673" height="1.86673" transform="matrix(-1 0 0 1 255.469 104.268)" fill="#535353"/>
<rect width="1.86673" height="1.86673" transform="matrix(-1 0 0 1 256.402 105.202)" fill="#535353"/>
<rect width="1.86673" height="1.86673" transform="matrix(-1 0 0 1 257.335 106.135)" fill="#535353"/>
<path d="M301.121 77.9245C300.805 77.1424 299.723 77.0779 299.317 77.8171L290.649 93.5968C290.296 94.2404 290.733 95.0328 291.466 95.0765L306.868 95.9935C307.601 96.0371 308.13 95.3022 307.855 94.6212L301.121 77.9245Z" fill="#FFBA74"/>
<rect x="304.302" y="158.487" width="17.7339" height="63.4688" transform="rotate(-176.593 304.302 158.487)" fill="#974E0F"/>
<rect x="303.969" y="164.077" width="17.7339" height="8.40028" rx="2" transform="rotate(-176.593 303.969 164.077)" fill="#FF4747"/>
<rect x="304.302" y="158.487" width="17.7339" height="3.73346" transform="rotate(-176.593 304.302 158.487)" fill="#FFD700"/>
<rect x="301.098" y="78.8193" width="1.86673" height="4.66682" rx="0.933364" transform="rotate(-176.593 301.098 78.8193)" fill="#1C1C1C"/>
<rect x="25" y="21" width="325" height="8" fill="#1C1C1C"/>
<rect x="342" y="21" width="8" height="84" fill="#1C1C1C"/>
<rect x="25" y="21" width="8" height="84" fill="#1C1C1C"/>
<rect x="359" y="103" width="10" height="176" fill="#DE806C"/>
<rect x="343" y="110.866" width="17" height="168.134" fill="#DE806C"/>
<rect x="327" y="118.732" width="17" height="160.268" fill="#DE806C"/>
<rect x="311" y="126.598" width="17" height="152.402" fill="#DE806C"/>
<rect x="295" y="134.464" width="17" height="144.536" fill="#DE806C"/>
<rect x="279" y="142.33" width="17" height="136.67" fill="#DE806C"/>
<rect x="263" y="150.196" width="17" height="128.804" fill="#DE806C"/>
<rect x="247" y="158.062" width="17" height="120.939" fill="#DE806C"/>
<rect x="231" y="165.927" width="17" height="113.073" fill="#DE806C"/>
<rect x="215" y="173.793" width="17" height="105.207" fill="#DE806C"/>
<rect x="199" y="181.659" width="17" height="97.3408" fill="#DE806C"/>
<rect width="10" height="176" transform="matrix(-1 0 0 1 17 103)" fill="#DE806C"/>
<rect width="17" height="168.134" transform="matrix(-1 0 0 1 33 110.866)" fill="#DE806C"/>
<rect width="17" height="160.268" transform="matrix(-1 0 0 1 49 118.732)" fill="#DE806C"/>
<rect width="17" height="152.402" transform="matrix(-1 0 0 1 65 126.598)" fill="#DE806C"/>
<rect width="17" height="144.536" transform="matrix(-1 0 0 1 81 134.464)" fill="#DE806C"/>
<rect width="17" height="136.67" transform="matrix(-1 0 0 1 97 142.33)" fill="#DE806C"/>
<rect width="17" height="128.804" transform="matrix(-1 0 0 1 113 150.196)" fill="#DE806C"/>
<rect width="17" height="120.939" transform="matrix(-1 0 0 1 129 158.062)" fill="#DE806C"/>
<rect width="17" height="113.073" transform="matrix(-1 0 0 1 145 165.927)" fill="#DE806C"/>
<rect width="17" height="105.207" transform="matrix(-1 0 0 1 161 173.793)" fill="#DE806C"/>
<rect width="17" height="97.3408" transform="matrix(-1 0 0 1 177 181.659)" fill="#DE806C"/>
<rect x="176" y="189.525" width="24" height="88.4916" fill="#DE806C"/>
<rect width="8" height="185" transform="matrix(-1 0 0 1 8 88)" fill="#1C1C1C"/>
<rect width="8" height="184" transform="matrix(-1 0 0 1 376 88)" fill="#1C1C1C"/>
<rect x="352" y="96" width="8" height="16" fill="#1C1C1C"/>
<rect x="352" y="96" width="24" height="8" fill="#1C1C1C"/>
<rect x="336" y="104" width="8" height="16" fill="#1C1C1C"/>
<rect x="336" y="104" width="24" height="8" fill="#1C1C1C"/>
<rect x="320" y="112" width="8" height="16" fill="#1C1C1C"/>
<rect x="320" y="112" width="24" height="8" fill="#1C1C1C"/>
<rect x="304" y="120" width="8" height="16" fill="#1C1C1C"/>
<rect x="304" y="120" width="24" height="8" fill="#1C1C1C"/>
<rect x="288" y="128" width="8" height="16" fill="#1C1C1C"/>
<rect x="288" y="128" width="24" height="8" fill="#1C1C1C"/>
<rect x="272" y="136" width="8" height="16" fill="#1C1C1C"/>
<rect x="272" y="136" width="24" height="8" fill="#1C1C1C"/>
<rect x="256" y="144" width="8" height="16" fill="#1C1C1C"/>
<rect x="256" y="144" width="24" height="8" fill="#1C1C1C"/>
<rect x="240" y="152" width="8" height="16" fill="#1C1C1C"/>
<rect x="240" y="152" width="24" height="8" fill="#1C1C1C"/>
<rect x="224" y="160" width="8" height="16" fill="#1C1C1C"/>
<rect x="224" y="160" width="24" height="8" fill="#1C1C1C"/>
<rect x="208" y="168" width="8" height="16" fill="#1C1C1C"/>
<rect x="208" y="168" width="24" height="8" fill="#1C1C1C"/>
<rect x="192" y="176" width="8" height="16" fill="#1C1C1C"/>
<rect x="192" y="176" width="24" height="8" fill="#1C1C1C"/>
<rect x="176" y="184" width="8" height="16" fill="#1C1C1C"/>
<rect x="176" y="184" width="24" height="8" fill="#1C1C1C"/>
<rect x="160" y="192" width="8" height="16" fill="#1C1C1C"/>
<rect x="160" y="192" width="24" height="8" fill="#1C1C1C"/>
<rect x="144" y="200" width="8" height="16" fill="#1C1C1C"/>
<rect x="144" y="200" width="24" height="8" fill="#1C1C1C"/>
<rect x="128" y="208" width="8" height="16" fill="#1C1C1C"/>
<rect x="128" y="208" width="24" height="8" fill="#1C1C1C"/>
<rect x="112" y="216" width="8" height="16" fill="#1C1C1C"/>
<rect x="112" y="216" width="24" height="8" fill="#1C1C1C"/>
<rect x="96" y="224" width="8" height="16" fill="#1C1C1C"/>
<rect x="96" y="224" width="24" height="8" fill="#1C1C1C"/>
<rect x="80" y="232" width="8" height="16" fill="#1C1C1C"/>
<rect x="80" y="232" width="24" height="8" fill="#1C1C1C"/>
<rect x="64" y="240" width="8" height="16" fill="#1C1C1C"/>
<rect x="64" y="240" width="24" height="8" fill="#1C1C1C"/>
<rect x="48" y="248" width="8" height="16" fill="#1C1C1C"/>
<rect x="48" y="248" width="24" height="8" fill="#1C1C1C"/>
<rect x="32" y="256" width="24" height="8" fill="#1C1C1C"/>
<rect y="272" width="24" height="8" fill="#1C1C1C"/>
<rect width="8" height="16" transform="matrix(-1 0 0 1 24 96)" fill="#1C1C1C"/>
<rect width="24" height="8" transform="matrix(-1 0 0 1 24 96)" fill="#1C1C1C"/>
<rect width="8" height="16" transform="matrix(-1 0 0 1 40 104)" fill="#1C1C1C"/>
<rect width="24" height="8" transform="matrix(-1 0 0 1 40 104)" fill="#1C1C1C"/>
<rect width="8" height="16" transform="matrix(-1 0 0 1 56 112)" fill="#1C1C1C"/>
<rect width="24" height="8" transform="matrix(-1 0 0 1 56 112)" fill="#1C1C1C"/>
<rect width="8" height="16" transform="matrix(-1 0 0 1 72 120)" fill="#1C1C1C"/>
<rect width="24" height="8" transform="matrix(-1 0 0 1 72 120)" fill="#1C1C1C"/>
<rect width="8" height="16" transform="matrix(-1 0 0 1 88 128)" fill="#1C1C1C"/>
<rect width="24" height="8" transform="matrix(-1 0 0 1 88 128)" fill="#1C1C1C"/>
<rect width="8" height="16" transform="matrix(-1 0 0 1 104 136)" fill="#1C1C1C"/>
<rect width="24" height="8" transform="matrix(-1 0 0 1 104 136)" fill="#1C1C1C"/>
<rect width="8" height="16" transform="matrix(-1 0 0 1 120 144)" fill="#1C1C1C"/>
<rect width="24" height="8" transform="matrix(-1 0 0 1 120 144)" fill="#1C1C1C"/>
<rect width="8" height="16" transform="matrix(-1 0 0 1 136 152)" fill="#1C1C1C"/>
<rect width="24" height="8" transform="matrix(-1 0 0 1 136 152)" fill="#1C1C1C"/>
<rect width="8" height="16" transform="matrix(-1 0 0 1 152 160)" fill="#1C1C1C"/>
<rect width="24" height="8" transform="matrix(-1 0 0 1 152 160)" fill="#1C1C1C"/>
<rect width="8" height="16" transform="matrix(-1 0 0 1 168 168)" fill="#1C1C1C"/>
<rect width="24" height="8" transform="matrix(-1 0 0 1 168 168)" fill="#1C1C1C"/>
<rect width="8" height="16" transform="matrix(-1 0 0 1 184 176)" fill="#1C1C1C"/>
<rect width="24" height="8" transform="matrix(-1 0 0 1 184 176)" fill="#1C1C1C"/>
<rect width="8" height="16" transform="matrix(-1 0 0 1 200 184)" fill="#1C1C1C"/>
<rect width="8" height="16" transform="matrix(-1 0 0 1 216 192)" fill="#1C1C1C"/>
<rect width="24" height="8" transform="matrix(-1 0 0 1 216 192)" fill="#1C1C1C"/>
<rect width="8" height="16" transform="matrix(-1 0 0 1 232 200)" fill="#1C1C1C"/>
<rect width="24" height="8" transform="matrix(-1 0 0 1 232 200)" fill="#1C1C1C"/>
<rect width="8" height="16" transform="matrix(-1 0 0 1 248 208)" fill="#1C1C1C"/>
<rect width="24" height="8" transform="matrix(-1 0 0 1 248 208)" fill="#1C1C1C"/>
<rect width="8" height="16" transform="matrix(-1 0 0 1 264 216)" fill="#1C1C1C"/>
<rect width="24" height="8" transform="matrix(-1 0 0 1 264 216)" fill="#1C1C1C"/>
<rect width="8" height="16" transform="matrix(-1 0 0 1 280 224)" fill="#1C1C1C"/>
<rect width="24" height="8" transform="matrix(-1 0 0 1 280 224)" fill="#1C1C1C"/>
<rect width="332" height="8" transform="matrix(-1 0 0 1 353 274)" fill="#DE806C"/>
<rect width="8" height="16" transform="matrix(-1 0 0 1 296 232)" fill="#1C1C1C"/>
<rect width="24" height="8" transform="matrix(-1 0 0 1 296 232)" fill="#1C1C1C"/>
<rect width="8" height="16" transform="matrix(-1 0 0 1 312 240)" fill="#1C1C1C"/>
<rect width="24" height="8" transform="matrix(-1 0 0 1 312 240)" fill="#1C1C1C"/>
<rect width="8" height="16" transform="matrix(-1 0 0 1 328 248)" fill="#1C1C1C"/>
<rect width="24" height="8" transform="matrix(-1 0 0 1 328 248)" fill="#1C1C1C"/>
<rect width="24" height="8" transform="matrix(-1 0 0 1 344 256)" fill="#1C1C1C"/>
<rect width="24" height="8" transform="matrix(-1 0 0 1 376 272)" fill="#1C1C1C"/>
<path d="M106.946 81C106.413 81 105.92 80.8667 105.466 80.6C105.013 80.3333 104.653 79.9733 104.386 79.52C104.12 79.0667 103.986 78.5733 103.986 78.04V76.7H107.086V77.88H115.246V75.36H106.946C106.413 75.36 105.92 75.2267 105.466 74.96C105.013 74.6933 104.653 74.34 104.386 73.9C104.12 73.4467 103.986 72.9467 103.986 72.4V69.56C103.986 69.0133 104.12 68.52 104.386 68.08C104.653 67.6267 105.013 67.2667 105.466 67C105.92 66.7333 106.413 66.6 106.946 66.6H115.426C115.96 66.6 116.446 66.7333 116.886 67C117.34 67.2667 117.7 67.6267 117.966 68.08C118.246 68.52 118.386 69.0133 118.386 69.56V70.9H115.246V69.72H107.086V72.24H115.426C115.96 72.24 116.446 72.3733 116.886 72.64C117.34 72.9067 117.7 73.2667 117.966 73.72C118.246 74.16 118.386 74.6533 118.386 75.2V78.04C118.386 78.5733 118.246 79.0667 117.966 79.52C117.7 79.9733 117.34 80.3333 116.886 80.6C116.446 80.8667 115.96 81 115.426 81H106.946ZM125.509 81V69.72H119.869V66.6H134.269V69.72H128.629V81H125.509ZM138.685 81C138.151 81 137.658 80.8667 137.205 80.6C136.751 80.3333 136.391 79.9733 136.125 79.52C135.858 79.0667 135.725 78.5733 135.725 78.04V66.6H138.825V77.88H146.985V66.6H150.125V78.04C150.125 78.5733 149.985 79.0667 149.705 79.52C149.438 79.9733 149.078 80.3333 148.625 80.6C148.185 80.8667 147.698 81 147.165 81H138.685ZM152.367 81V66.6H163.787C164.334 66.6 164.827 66.7333 165.267 67C165.72 67.2667 166.08 67.6267 166.347 68.08C166.627 68.52 166.767 69.0133 166.767 69.56V78.04C166.767 78.5733 166.627 79.0667 166.347 79.52C166.08 79.9733 165.72 80.3333 165.267 80.6C164.827 80.8667 164.334 81 163.787 81H152.367ZM155.447 77.88H163.627V69.72H155.447V77.88ZM174.367 81V75.62L167.707 66.6H171.407L175.927 72.28L180.427 66.6H184.167L177.487 75.64V81H174.367ZM129.51 106L124.27 91.6H127.57L130.71 100.18L133.85 91.6H136.71L139.87 100.18L143.01 91.6H146.29L141.05 106H138.67L135.27 96.74L131.89 106H129.51ZM147.765 106V91.6H150.825V106H147.765ZM157.853 106V94.72H152.213V91.6H166.613V94.72H160.973V106H157.853ZM168.128 106V91.6H171.228V97.24H179.728V91.6H182.828V106H179.728V100.36H171.228V106H168.128ZM112.171 131V116.6H115.371L120.251 122.42L125.111 116.6H128.331V131H125.211V121.34L120.251 127.26L115.271 121.36V131H112.171ZM130.765 131V116.6H144.065V119.72H133.905V122.24H142.085V125.36H133.905V127.88H144.065V131H130.765ZM148.606 131C148.073 131 147.58 130.867 147.126 130.6C146.673 130.333 146.313 129.973 146.046 129.52C145.78 129.067 145.646 128.573 145.646 128.04V119.56C145.646 119.013 145.78 118.52 146.046 118.08C146.313 117.627 146.673 117.267 147.126 117C147.58 116.733 148.073 116.6 148.606 116.6H157.086C157.62 116.6 158.106 116.733 158.546 117C159 117.267 159.36 117.627 159.626 118.08C159.906 118.52 160.046 119.013 160.046 119.56V128.04C160.046 128.573 159.906 129.067 159.626 129.52C159.36 129.973 159 130.333 158.546 130.6C158.106 130.867 157.62 131 157.086 131H148.606ZM148.746 127.88H156.906V119.72H148.746V127.88ZM166.366 131L161.126 116.6H164.426L167.566 125.18L170.706 116.6H173.566L176.726 125.18L179.866 116.6H183.146L177.906 131H175.526L172.126 121.74L168.746 131H166.366Z" fill="black"/>
<rect width="338" height="8" transform="matrix(-1 0 0 1 354 280)" fill="#1C1C1C"/>
<rect width="8" height="16" transform="matrix(-1 0 0 1 360 272)" fill="#1C1C1C"/>
<rect width="8" height="16" transform="matrix(-1 0 0 1 24 272)" fill="#1C1C1C"/>
</svg>
