<svg width="45" height="45" viewBox="0 0 45 45" fill="none" xmlns="http://www.w3.org/2000/svg">
<path fill-rule="evenodd" clip-rule="evenodd" d="M44.1 23.0115C44.1 21.416 43.9568 19.8819 43.6909 18.4092H22.5V27.1126H34.6091C34.0875 29.9251 32.5023 32.308 30.1193 33.9035V39.549H37.3909C41.6455 35.6319 44.1 29.8637 44.1 23.0115Z" fill="#4285F4"/>
<path fill-rule="evenodd" clip-rule="evenodd" d="M22.4994 44.9997C28.5744 44.9997 33.6676 42.9849 37.3903 39.5485L30.1187 33.9031C28.1039 35.2531 25.5267 36.0508 22.4994 36.0508C16.6392 36.0508 11.6789 32.0928 9.90962 26.7747H2.39258V32.6042C6.09485 39.9576 13.7039 44.9997 22.4994 44.9997Z" fill="#34A853"/>
<path fill-rule="evenodd" clip-rule="evenodd" d="M9.91023 26.7751C9.46023 25.4251 9.20455 23.983 9.20455 22.5001C9.20455 21.0171 9.46023 19.5751 9.91023 18.2251V12.3955H2.39318C0.869318 15.433 0 18.8694 0 22.5001C0 26.1307 0.869318 29.5671 2.39318 32.6046L9.91023 26.7751Z" fill="#FBBC05"/>
<path fill-rule="evenodd" clip-rule="evenodd" d="M22.4994 8.94886C25.8028 8.94886 28.7687 10.0841 31.1005 12.3136L37.5539 5.86023C33.6574 2.22955 28.5642 0 22.4994 0C13.7039 0 6.09485 5.04205 2.39258 12.3955L9.90962 18.225C11.6789 12.9068 16.6392 8.94886 22.4994 8.94886Z" fill="#EA4335"/>
</svg>
